<svg width="259" height="259" viewBox="0 0 259 259" fill="none" xmlns="http://www.w3.org/2000/svg">
<path d="M69.6386 41.2783L121.843 55.4586L121.115 123.349L69.6386 119.415V41.2783Z" fill="#F2622E"/>
<path d="M74.8834 49.145L96.1537 54.7783L95.9109 83.2359L74.8834 76.7771V49.145Z" fill="white"/>
<path d="M121.601 55.3124L173.902 40.8408V99.8443L120.872 123.251L121.601 55.3124Z" fill="#F2622E"/>
<path d="M119.367 61.9657L123.252 60.9945L127.185 60.606L131.75 61.5286L136.315 62.9855L143.454 67.4047L146.125 70.5127L147.436 74.5434L129.079 123.3L100.233 114.705L119.367 61.9657Z" fill="white"/>
<path d="M65.7051 157.391L149.621 180.75L95.6196 196.775L18.3081 175.408L65.7051 157.391Z" fill="#F2622E"/>
<path d="M39.8213 127.574L92.463 142.24L92.1231 164.433L39.3356 150.641L39.8213 127.574Z" fill="#F7A181"/>
<path d="M32.1484 151.612L35.3049 148.699L40.1126 147.096L50.4079 146.173L62.3542 147.096L67.599 149.233L70.707 152.681L72.7466 158.363V176.428L67.7447 180.653L62.2571 182.207L61.4316 177.545L46.5229 177.982L37.0046 175.845L33.3139 173.854L32.1484 169.872V151.612Z" fill="white"/>
<path d="M189.199 137.238L236.111 123.397V195.61L188.034 207.313L189.199 137.238Z" fill="#F7A181"/>
<path d="M92.4144 142.094L137.917 129.225L129.468 174.728L92.4144 165.112V142.094Z" fill="#F7A181"/>
<path d="M105.381 144.619L156.857 129.71L207.313 144.522L156.857 159.819L105.381 144.619Z" fill="#F2622E"/>
<path d="M156.857 159.819L208.624 145.202L211.684 216.443L156.857 231.594V159.819Z" fill="#F2622E"/>
<path d="M181.284 168.755L190.608 170.552L199.689 173.271L203.768 176.282L206.536 179.827L208.187 191.968L204.254 185.946L198.718 183.858L189.005 181.721L184.975 179.487L181.964 175.457L180.75 171.766L181.284 168.755Z" fill="#F7A181"/>
<path d="M190.414 150.544L195.755 152.972L202.311 158.994L205.031 162.15L209.936 172.786L208.964 165.89L205.274 155.983L202.311 148.261L201.437 144.571V140.006L202.554 136.121L204.157 133.061L210.033 144.571L212.17 152.972L213.141 159.916L212.995 170.746L213.141 176.476L213.578 179.002L215.132 176.331L216.637 169.095L217.56 155.449V141.657L219.017 133.693L221.057 129.468L222.756 134.567L225.427 142.191L226.107 148.164L225.767 155.012L222.611 165.453L219.842 172.446L217.123 179.293L219.842 179.147L221.736 174.485L225.427 172.057L229.798 170.746L235.237 170.26L240.724 169.58L243.152 169.24L241.55 174.242L240.044 176.913L237.859 178.953L232.566 181.187L226.787 182.304L220.474 185.509L217.851 194.444L216.977 198.378L211.83 198.621L208.625 198.378L207.508 189.54L206.536 181.575L208.187 181.041L207.508 178.03L205.322 174.728L201.146 170.746L196.144 166.667L192.453 162.442L190.414 157.877L189.879 153.846L190.414 150.544Z" fill="#F7A181"/>
<path d="M192.405 193.424L200.515 197.358L209.304 198.475H215.18L220.959 197.358L232.274 193.57L236.402 207.993L237.422 211.49L238.102 215.18V219.502L236.791 223.193L235.625 226.835L233.44 229.798L227.855 233.197L217.56 235.917H207.022L197.746 233.683L190.316 228.632L187.743 224.407L186.431 219.308V213.481L187.743 207.945L192.405 193.424Z" fill="#F2622E"/>
<path d="M174.437 109.071L188.228 109.751L234.945 123.397L185.12 138.063L174.437 109.071Z" fill="#F7A181"/>
<path d="M104.555 145.25L157.003 159.771L156.371 231.255L104.555 218.968V145.25Z" fill="#F2622E"/>
<path d="M158.265 104.458L190.705 95.1826V140.297L158.265 149.524V104.458Z" fill="white"/>
<path d="M40.0155 127.185L91.8317 112.471L141.317 127.088L92.7544 142.094L40.0155 127.185Z" fill="#F7A181"/>
<path d="M125.486 95.3281L158.459 104.749L157.828 149.572L125.486 140.734V95.3281Z" fill="white"/>
<path d="M126.554 94.9398L158.508 85.2759L189.928 94.9398L158.508 104.749L126.554 94.9398Z" fill="white"/>
<path d="M95.0854 213.384L147.484 198.96L147.096 236.888L94.6483 251.699L95.0854 213.384Z" fill="#F2622E"/>
<path d="M21.1732 192.987L94.9882 213.578L94.5512 251.554L21.1732 231.352V192.987Z" fill="#F2622E"/>
<path d="M95.4253 196.581L150.592 181.041V197.844L95.4253 213.287V196.581Z" fill="#F2622E"/>
<path d="M17.5796 175.699L95.2311 196.727V213.481L17.1426 191.919L17.5796 175.699Z" fill="#F2622E"/>
<path d="M71.0955 40.5983L121.989 26.0781L173.805 40.9382L121.989 55.6041L71.0955 40.5983Z" fill="#F2622E"/>
<path d="M120.111 25.9128C118.065 26.5214 116.343 27.0135 114.737 27.4538C113.921 27.674 112.782 27.9977 112.212 28.1661C111.072 28.5028 108.948 29.1114 107.226 29.5906C106.617 29.7589 105.4 30.1086 104.507 30.3676C103.613 30.6136 102.396 30.9633 101.787 31.1446C101.178 31.3129 100.078 31.6237 99.3265 31.8439C98.5754 32.0511 97.3322 32.4007 96.5423 32.6209C95.7653 32.841 94.535 33.1907 93.8228 33.3979C92.5278 33.7605 91.4659 34.0713 88.7723 34.8353C82.5563 36.5965 82.375 36.6483 81.2613 36.985C80.6915 37.1663 79.9015 37.3865 79.513 37.4901C78.8655 37.6584 78.3605 37.8009 75.4985 38.5908C74.9676 38.7462 74.0611 39.0052 73.4913 39.1736C72.9215 39.3549 71.7301 39.6916 70.8495 39.9376C69.9689 40.1837 69.1919 40.4556 69.1401 40.5592C69.0753 40.6499 69.0235 52.4603 69.0106 66.783C68.9976 81.1186 68.9717 92.9031 68.9588 92.9808C68.9458 93.0456 68.9199 98.7695 68.907 105.672L68.894 118.233L68.4796 118.428C68.2465 118.531 64.9702 119.489 61.1888 120.551C40.4688 126.418 39.8342 126.599 39.5623 127.052C39.4587 127.195 39.4328 128.27 39.2385 139.277C39.1349 144.677 39.0572 146.542 38.9407 146.62C38.85 146.684 38.2284 146.905 37.555 147.125C36.4284 147.487 33.7736 148.795 33.1002 149.326C32.9448 149.456 32.5822 150.039 32.2844 150.634L31.7534 151.709L31.6498 161.059C31.5851 166.2 31.4944 170.435 31.4426 170.487C31.3649 170.564 30.0829 170.966 22.792 173.141C21.5488 173.517 19.9171 173.983 19.166 174.19C17.4048 174.682 16.8739 174.915 16.7832 175.265C16.6667 175.692 16.6926 191.958 16.8091 192.139C16.9386 192.333 18.13 192.761 19.3214 193.033C20.0078 193.188 20.1891 193.279 20.2409 193.512C20.2797 193.667 20.3315 202.123 20.3445 212.315C20.3704 222.494 20.4351 231.028 20.4869 231.261C20.5776 231.585 20.72 231.74 21.0438 231.883C21.2898 231.986 21.5747 232.064 21.6913 232.064C21.8078 232.064 22.1575 232.18 22.4683 232.323C22.7791 232.465 23.4266 232.634 23.8928 232.698C24.3719 232.763 24.8899 232.919 25.0712 233.035C25.2396 233.139 25.8871 233.32 26.4957 233.424C27.1044 233.54 27.7389 233.708 27.9073 233.825C28.0756 233.942 28.5936 234.071 29.0339 234.136C29.4872 234.188 30.1347 234.356 30.4584 234.511C30.7951 234.654 31.4426 234.835 31.8959 234.9C32.3491 234.965 32.9578 235.133 33.2297 235.275C33.5017 235.405 34.1621 235.586 34.6801 235.677C35.1981 235.755 35.755 235.91 35.9104 236.014C36.0658 236.104 36.5967 236.26 37.1018 236.337C37.5939 236.415 38.2543 236.596 38.5781 236.739C38.8889 236.868 39.5234 237.05 39.9896 237.114C40.4429 237.192 40.9868 237.334 41.181 237.438C41.3753 237.542 41.9969 237.723 42.5537 237.84C43.1106 237.943 43.7192 238.124 43.9135 238.215C44.0948 238.319 44.6128 238.461 45.0401 238.526C45.4675 238.591 46.2833 238.798 46.8402 238.966C48.3294 239.445 49.6892 239.821 50.6345 240.028C51.1007 240.132 51.7223 240.313 52.0331 240.43C52.3439 240.546 52.9267 240.714 53.3281 240.805C53.7296 240.883 54.5325 241.09 55.1023 241.258C57.5239 241.945 60.606 242.799 62.8075 243.395C63.7658 243.654 64.8148 243.952 65.1385 244.056C65.4623 244.146 66.2781 244.379 66.9515 244.561C67.6249 244.729 68.6739 245.014 69.2825 245.182C69.8912 245.351 71.0826 245.687 71.9373 245.92C72.792 246.153 73.9575 246.464 74.5273 246.633C75.0971 246.788 76.2108 247.099 76.9878 247.306C77.7777 247.526 79.7202 248.07 81.326 248.51C85.5089 249.676 85.5866 249.702 91.7767 251.398C94.1724 252.059 94.4573 252.11 95.1437 252.007C96.0761 251.877 96.4646 251.787 97.4488 251.489C97.8761 251.359 99.0157 251.036 99.974 250.777C100.932 250.518 102.188 250.168 102.758 250C103.328 249.831 104.468 249.52 105.284 249.287C106.099 249.067 107.265 248.743 107.874 248.575C108.482 248.394 110.347 247.876 112.018 247.41C113.688 246.943 115.501 246.438 116.032 246.283C118.208 245.674 119.788 245.234 121.018 244.884C121.73 244.677 123.595 244.159 125.162 243.732C126.729 243.291 128.516 242.799 129.15 242.618C129.772 242.437 130.782 242.152 131.417 241.971C132.517 241.66 136.299 240.598 139.148 239.821C141.103 239.277 145.441 238.06 146.477 237.762C146.957 237.619 147.423 237.412 147.513 237.296C147.656 237.127 147.708 236.286 147.76 233.566L147.824 230.057L148.148 230.07C148.329 230.082 149.145 230.277 149.961 230.497C152.46 231.196 154.105 231.649 155.504 232.012L156.837 232.349L158.094 232.012C158.78 231.831 159.958 231.494 160.71 231.287C161.461 231.067 162.678 230.73 163.429 230.523C164.18 230.316 165.281 230.005 165.89 229.823C166.938 229.526 168.272 229.15 171.329 228.282C172.611 227.92 173.906 227.557 176.573 226.806C177.221 226.625 178.231 226.34 178.84 226.185C179.448 226.016 180.355 225.757 180.847 225.615C181.352 225.459 182.31 225.187 182.984 224.993C183.657 224.812 184.784 224.488 185.47 224.268C186.169 224.061 186.791 223.918 186.869 223.97C186.946 224.022 187.257 224.592 187.568 225.239C189.562 229.5 192.567 232.154 197.682 234.175C199.508 234.9 200.505 235.172 203.38 235.768C205.711 236.247 206.591 236.337 209.816 236.467C214.4 236.648 219.503 236.324 222.455 235.69C225.032 235.12 225.848 234.848 228.762 233.592C230.419 232.867 232.647 231.39 233.851 230.199C235.794 228.295 237.27 225.369 238.151 221.691C238.966 218.285 238.992 218.104 238.811 215.578C238.63 213.053 238.474 212.315 236.907 206.747C236.169 204.092 235.638 202.408 234.732 199.728C234.123 197.902 233.942 197.215 234.045 197.125C234.136 197.06 234.68 196.814 235.276 196.581C235.962 196.309 236.428 196.037 236.558 195.843C236.739 195.571 236.752 195.13 236.674 192.463C236.635 190.779 236.584 187.36 236.571 184.874C236.545 180.523 236.558 180.342 236.804 180.186C236.933 180.083 237.866 179.461 238.863 178.8C240.624 177.622 240.689 177.557 241.22 176.625C243.214 173.09 244.392 167.728 243.253 167.301C242.942 167.197 242.89 167.223 241.349 168.181C240.43 168.751 240.054 168.907 238.992 169.127C238.306 169.269 237.464 169.386 237.14 169.386H236.558L236.635 146.425C236.674 131.585 236.661 123.4 236.584 123.245C236.402 122.921 235.664 122.585 234.266 122.196C233.592 122.002 232.453 121.678 231.74 121.471C230.562 121.134 227.868 120.37 225.071 119.58C224.462 119.412 223.388 119.101 222.675 118.894C221.963 118.7 220.396 118.259 219.179 117.923C217.974 117.586 216.628 117.21 216.2 117.068C215.773 116.938 214.025 116.433 212.315 115.954C208.171 114.802 202.266 113.131 200.66 112.665C199.948 112.458 198.083 111.927 196.516 111.486C192.1 110.256 191.556 110.075 191.505 109.842C191.466 109.712 191.427 106.358 191.414 102.37C191.401 98.381 191.323 95.0269 191.272 94.9104C191.142 94.6902 190.792 94.5737 186.286 93.2398C184.797 92.7995 183.217 92.3333 182.789 92.1909C182.362 92.0614 181.52 91.8024 180.912 91.634C178.71 91.0124 175.058 89.8858 174.967 89.8081C174.929 89.7563 174.864 78.697 174.825 65.229C174.786 51.748 174.747 40.7146 174.721 40.7017C174.475 40.4686 173.919 40.2225 173.31 40.093C172.895 39.9894 172.002 39.7563 171.329 39.5621C169.295 38.9793 167.444 38.4613 166.278 38.1376C165.669 37.9822 165.009 37.775 164.815 37.6973C164.607 37.6196 164.025 37.4642 163.52 37.3476C163.002 37.2311 162.445 37.0627 162.264 36.9721C162.082 36.8814 161.733 36.7649 161.487 36.726C161.24 36.6742 160.425 36.4541 159.674 36.2469C158.922 36.0267 157.796 35.703 157.148 35.5217C155.309 35.0037 153.509 34.4857 152.007 34.0583C151.23 33.8511 150.013 33.5015 149.288 33.2943C148.549 33.0871 146.788 32.582 145.364 32.1806C142.916 31.4942 141.44 31.0669 139.018 30.3676C137.141 29.8237 135.742 29.4222 131.546 28.2308C130.238 27.8682 129.526 27.661 126.042 26.6639C125.265 26.4437 124.061 26.0941 123.362 25.8869C122.662 25.6797 121.924 25.5113 121.743 25.5243C121.562 25.5243 120.824 25.7056 120.111 25.9128ZM127.104 28.1661C129.953 28.9819 135.185 30.4841 138.733 31.4942C142.269 32.5043 145.131 33.372 145.079 33.4108C145.014 33.4626 144.6 33.6051 144.134 33.7346C143.667 33.8511 142.8 34.0972 142.191 34.2655C141.582 34.4339 140.365 34.7835 139.472 35.0296C138.578 35.2756 137.335 35.6253 136.687 35.8066C136.053 36.0008 134.913 36.3116 134.162 36.5188C133.411 36.726 132.103 37.0886 131.248 37.3347C130.394 37.5807 128.904 37.9951 127.946 38.2541C126.029 38.7851 123.828 39.4067 122.844 39.7045C122.494 39.8211 121.795 40.0153 121.29 40.1448C120.785 40.2743 119.619 40.5981 118.687 40.87C117.767 41.129 116.537 41.4787 115.967 41.6341C115.397 41.7895 114.374 42.0744 113.701 42.2686C113.028 42.4629 111.746 42.8125 110.852 43.0586C109.958 43.3046 108.715 43.6672 108.068 43.8485C107.433 44.0298 106.32 44.3406 105.607 44.5349C104.895 44.7421 103.639 45.0917 102.823 45.3248C101.243 45.7781 99.1841 46.3479 97.7337 46.7493C97.2545 46.8788 96.7106 47.0731 96.5423 47.1896C96.1797 47.4227 95.6099 47.4616 95.1307 47.2673C94.9494 47.2026 94.1336 46.9695 93.3436 46.7493C91.7896 46.322 89.7047 45.7392 87.9953 45.2601C87.4255 45.1047 86.3247 44.7939 85.5348 44.5737C83.8383 44.1205 82.3102 43.6931 80.29 43.1233C78.3734 42.5794 77.1173 42.2298 75.0453 41.66C72.5459 40.9736 72.1704 40.8441 72.3905 40.7535C72.4941 40.7017 82.116 37.9563 93.758 34.6411C105.4 31.3259 116.421 28.179 118.234 27.6481C120.047 27.1301 121.626 26.6898 121.73 26.6898C121.834 26.6898 124.255 27.3502 127.104 28.1661ZM159.272 37.3606C165.643 39.1865 170.966 40.7405 171.121 40.8312C171.393 40.9736 171.393 40.9736 171.134 41.0125C170.992 41.0384 170.552 41.1679 170.163 41.3103C169.775 41.4398 169.101 41.647 168.674 41.7506C166.654 42.2427 165.643 42.5276 165.048 42.7478C164.698 42.8773 164.077 43.0586 163.688 43.1363C163.002 43.2658 161.59 43.6672 159.997 44.1593C159.57 44.2888 158.754 44.5219 158.184 44.6644C157.614 44.8198 156.54 45.1047 155.789 45.3248C155.037 45.532 153.755 45.8946 152.94 46.1148C151.152 46.6069 149.87 46.9565 147.889 47.5263C147.073 47.7594 145.791 48.122 145.04 48.3163C144.289 48.5235 143.162 48.8343 142.515 49.0156C141.88 49.1969 140.715 49.5206 139.925 49.7278C139.148 49.948 137.892 50.2976 137.141 50.5048C136.389 50.712 135.263 51.0358 134.615 51.2171C133.502 51.5149 132.66 51.748 129.241 52.7063C127.065 53.315 126.263 53.5351 124.385 54.0402C123.465 54.2992 122.546 54.5582 122.352 54.6359C122.067 54.7395 121.808 54.7136 121.186 54.5323C120.733 54.3898 119.386 54.0143 118.169 53.6776C116.964 53.3538 115.708 52.9912 115.385 52.9006C115.061 52.8099 114.012 52.5121 113.054 52.2531C112.095 51.9941 111.02 51.6962 110.684 51.5797C110.347 51.4761 109.557 51.2559 108.935 51.0876C107.886 50.8156 107.174 50.6214 103.471 49.5724C102.719 49.3652 101.683 49.0803 101.165 48.9508C99.3006 48.4587 98.0315 48.0184 98.0963 47.9148C98.1351 47.8501 98.3812 47.7594 98.6531 47.7076C99.0934 47.6299 100.375 47.2803 103.38 46.4256C104.001 46.2443 105.05 45.9464 105.711 45.7651C106.358 45.5838 107.485 45.2601 108.197 45.0529C108.91 44.8457 110.166 44.496 110.982 44.2888C111.797 44.0687 112.846 43.7708 113.313 43.6154C113.779 43.473 114.569 43.2528 115.061 43.1104C116.343 42.7737 118.428 42.2039 120.176 41.6988C122.131 41.142 123.608 40.7276 125.032 40.3391C126.781 39.8729 129.785 39.0182 131.961 38.3966C134.292 37.7232 137.775 36.739 138.889 36.4411C141.207 35.8195 144.367 34.926 146.141 34.395C146.711 34.2267 147.293 34.0842 147.436 34.0713C147.578 34.0583 152.901 35.5476 159.272 37.3606ZM72.2092 42.1003C72.9862 42.3075 74.2294 42.6701 74.9805 42.8773C77.8943 43.7061 78.5936 43.9003 80.031 44.2888C80.8469 44.509 82.103 44.8586 82.8153 45.0658C83.5275 45.273 84.7837 45.6227 85.5995 45.8428C86.4154 46.063 87.555 46.3867 88.1248 46.5551C88.6946 46.7234 89.8601 47.0472 90.7148 47.2673C91.5695 47.5004 92.6184 47.7983 93.0458 47.9278C93.4731 48.0443 94.6127 48.3681 95.571 48.6271C96.5293 48.8861 97.5912 49.1839 97.9409 49.3005C98.6013 49.5077 100.868 50.1293 102.111 50.453C102.927 50.6602 104.519 51.1135 105.931 51.5538C106.397 51.6833 107.239 51.9293 107.809 52.0718C108.379 52.2272 109.428 52.5121 110.14 52.7063C110.852 52.9006 111.901 53.1855 112.471 53.3409C113.041 53.4963 113.843 53.7294 114.258 53.8718C114.659 54.0143 115.087 54.1308 115.19 54.1308C115.307 54.1308 115.838 54.2733 116.395 54.4416C117.586 54.8042 120.098 55.5165 120.603 55.6201C121.134 55.7237 121.212 56.0992 121.212 58.3396V60.3209L120.422 60.6317C119.8 60.8648 119.451 61.1238 118.764 61.8361C118.039 62.6001 117.858 62.898 117.612 63.6491C117.457 64.1541 117.21 64.8146 117.081 65.1383C116.939 65.4621 116.718 66.0707 116.576 66.4981C116.433 66.9254 116.136 67.7672 115.915 68.3758C115.682 68.9845 115.397 69.8262 115.268 70.2536C115.138 70.6809 114.905 71.3155 114.763 71.6781C114.62 72.0277 114.349 72.727 114.18 73.2321C113.144 76.094 112.497 77.9588 112.341 78.4768C112.238 78.8006 111.927 79.6941 111.642 80.4841C111.344 81.2611 110.787 82.8151 110.412 83.9158C110.023 85.0166 109.376 86.8555 108.961 87.9951C108.56 89.1347 108.055 90.5333 107.861 91.1031C107.058 93.3952 106.838 94.0039 106.384 95.2471C106.125 95.9593 105.763 96.9435 105.607 97.4486C105.439 97.9407 105.128 98.8213 104.921 99.3911C104.455 100.673 103.186 104.221 102.706 105.607C102.266 106.837 100.945 110.567 100.363 112.212C99.7539 113.908 99.7798 113.869 99.1452 113.791C98.8474 113.753 98.1351 113.571 97.5653 113.39C95.2343 112.678 92.2688 111.888 91.8932 111.888C91.3752 111.888 90.0414 112.25 81.7145 114.672C81.1059 114.84 80.3548 115.048 80.031 115.125C79.7073 115.203 79.2152 115.345 78.9303 115.449C78.6454 115.553 77.0137 116.019 75.3043 116.485C73.5949 116.964 71.743 117.495 71.1862 117.664C70.6293 117.832 70.1372 117.974 70.0984 117.974C70.0207 117.974 70.189 70.1629 70.2667 69.7356C70.2926 69.5931 70.3315 63.8563 70.3444 56.9798C70.3703 42.7737 70.3962 41.6988 70.6293 41.6988C70.72 41.6988 71.4322 41.8801 72.2092 42.1003ZM173.66 64.9311C173.66 77.6351 173.698 88.28 173.737 88.6037C173.802 89.0699 173.776 89.1994 173.621 89.2642C173.426 89.3419 170.305 88.4354 162.328 85.9749C160.412 85.3921 158.599 84.8871 158.314 84.8482C157.912 84.8094 156.151 85.2885 150.621 86.9591C146.672 88.1375 143.421 89.0829 143.395 89.044C143.357 89.0052 144.25 86.3893 145.364 83.2165C146.788 79.1891 147.384 77.3372 147.332 77.0912C147.293 76.884 147.358 76.612 147.475 76.4307C147.617 76.1976 147.695 75.6667 147.734 74.4105C147.785 72.8824 147.76 72.5716 147.501 71.691C147.216 70.7457 147.125 70.6032 145.675 68.9845C144.185 67.3269 142.8 66.0189 141.738 65.2808C140.818 64.6462 136.998 62.6131 135.328 61.8749C133.45 61.0461 130.73 60.308 128.723 60.0878C127.972 60.0101 127.195 59.8936 126.988 59.8418C126.781 59.8029 126.016 59.8029 125.304 59.8677C124.579 59.9195 123.647 59.9454 123.219 59.9324L122.442 59.8936V57.9252C122.442 56.8503 122.481 55.9309 122.52 55.892C122.585 55.8273 123.996 55.3999 125.745 54.9078C127.001 54.5711 129.927 53.7553 131.248 53.3927C131.896 53.2114 133.022 52.9006 133.774 52.6934C135.431 52.2272 136.946 51.8128 138.565 51.3595C139.238 51.1653 140.52 50.8156 141.414 50.5696C142.308 50.3235 143.564 49.9739 144.198 49.7926C144.846 49.6113 146.011 49.2875 146.788 49.0803C147.578 48.8731 148.705 48.5494 149.314 48.381C150.621 48.0055 152.253 47.5522 154.558 46.9306C155.491 46.6716 156.617 46.3608 157.084 46.2313C157.55 46.1018 158.573 45.8169 159.35 45.6097C160.969 45.1565 165.449 43.9133 169.839 42.683C171.484 42.2298 173.012 41.8413 173.245 41.8413L173.66 41.8283V64.9311ZM129.124 61.3181C129.863 61.4217 130.937 61.6548 131.507 61.8231C132.077 62.0044 132.75 62.1857 132.997 62.2246C133.243 62.2764 133.631 62.4188 133.838 62.5483C134.058 62.6778 134.46 62.8462 134.745 62.9368C135.91 63.3124 139.951 65.4621 141.285 66.4204C142.256 67.1326 143.447 68.2334 144.47 69.4118C145.066 70.0852 145.675 70.7586 145.804 70.914C146.18 71.2896 146.724 73.0767 146.724 73.8925C146.724 74.9415 146.49 75.7962 146.063 76.3142C145.571 76.9099 143.745 78.1142 142.541 78.6452L141.608 79.0466H138.5C135.548 79.0596 135.276 79.0337 133.126 78.6452C131.883 78.4121 130.277 78.1013 129.578 77.9588C128.878 77.8034 128.218 77.7128 128.114 77.7516C128.011 77.7905 127.842 78.0495 127.739 78.3085C127.635 78.5804 127.467 78.943 127.376 79.1243C127.273 79.3056 127.156 79.6553 127.104 79.9013C127.052 80.1474 126.923 80.5229 126.806 80.7431C126.69 80.9503 126.509 81.4812 126.379 81.9086C126.25 82.3359 125.913 83.3201 125.615 84.1101C125.317 84.8871 124.942 85.936 124.773 86.4411C124.605 86.9332 124.294 87.8397 124.074 88.4483C123.841 89.057 123.504 90.0153 123.297 90.5851C123.09 91.1549 122.624 92.4628 122.248 93.4988C121.872 94.5348 121.406 95.8428 121.199 96.4126C121.005 96.9824 120.668 97.9148 120.461 98.4846C120.254 99.0544 119.749 100.453 119.347 101.593C118.622 103.6 118.208 104.765 117.534 106.643C117.353 107.135 117.003 108.132 116.744 108.845C116.291 110.075 115.177 113.196 114.53 114.996C113.831 116.99 113.455 117.91 113.351 117.884C113.054 117.832 110.554 117.146 109.881 116.938C109.453 116.809 107.705 116.317 105.996 115.838C102.681 114.918 100.881 114.361 100.881 114.271C100.881 114.219 103.186 107.705 107.459 95.7003C107.848 94.5996 108.327 93.2269 108.534 92.6571C108.728 92.0873 109.13 90.9736 109.402 90.1966C109.687 89.4066 110.865 86.1173 112.018 82.8798C113.17 79.6423 114.543 75.7573 115.087 74.2681C115.618 72.7659 116.343 70.7586 116.68 69.8003C117.534 67.3787 117.586 67.288 117.703 67.4175C117.754 67.4823 117.936 67.8837 118.104 68.3111C118.661 69.7226 120.577 71.4709 123.828 73.517C126.806 75.3947 128.192 75.8998 132.673 76.7415C133.307 76.8581 134.473 76.9358 135.664 76.9358C138.189 76.9487 139.031 76.7415 140.443 75.8221C141.401 75.2005 141.518 75.0839 141.971 74.1774L142.463 73.1932L142.321 72.1184C142.23 71.5227 142.074 70.8881 141.958 70.7068C141.505 69.9946 140.119 68.5571 139.018 67.6895C136.674 65.8247 135.25 65.0865 132.025 64.1153C129.371 63.3124 125.654 63.3512 124.398 64.2059C123.815 64.6074 123.129 65.4362 122.921 65.9801C122.701 66.6017 122.494 67.7931 122.572 68.0132C122.611 68.1168 123.025 68.5183 123.478 68.8809C123.919 69.2435 124.462 69.7097 124.657 69.9039C126.509 71.7169 128.373 72.7788 130.808 73.4004C132.207 73.763 132.375 73.776 133.502 73.6594C135.457 73.4652 136.389 72.7788 136.558 71.432C136.687 70.4737 136.61 70.2536 135.846 69.3212C135.289 68.6219 135.03 68.4276 133.994 67.9355C131.637 66.8089 131.3 66.6923 130.238 66.6923C129.021 66.6923 128.904 66.7441 128.594 67.3528C128.27 67.9744 128.27 68.1945 128.606 69.0881C128.801 69.5931 128.982 69.8651 129.241 69.9946C129.668 70.2147 130.355 70.2536 130.471 70.0593C130.575 69.891 130.303 69.4118 129.863 68.9974C129.358 68.5312 129.358 67.8967 129.85 67.7801C130.381 67.6377 131.714 68.0391 133.217 68.7643C134.317 69.3082 134.641 69.5284 135.069 70.0723C135.457 70.5644 135.574 70.8104 135.509 71.0176C135.159 72.1313 134.835 72.3903 133.553 72.5328C132.388 72.6752 131.896 72.6105 130.471 72.1702C128.723 71.6133 127.493 70.914 126.029 69.619C125.291 68.9715 124.475 68.2593 124.229 68.0391C123.789 67.6636 123.776 67.6377 123.867 66.9772C123.957 66.252 124.475 65.475 125.097 65.0995C125.68 64.7628 127.247 64.5815 128.891 64.6721C130.251 64.7498 130.614 64.8275 132.517 65.4491C133.761 65.8635 135.069 66.3945 135.755 66.77C137.283 67.6247 139.148 69.101 140.171 70.2536C140.935 71.1342 141.013 71.2766 141.155 72.1054C141.297 72.9342 141.285 73.0378 140.987 73.6983C140.728 74.294 140.546 74.4882 139.847 74.9415C138.306 75.9386 135.975 76.1329 132.608 75.576C129.137 74.9933 127.117 74.294 125.019 72.9731C124.527 72.6623 123.634 72.0925 123.038 71.7169C122.429 71.3284 121.38 70.4608 120.629 69.7356C119.49 68.6219 119.257 68.324 119.023 67.6636C118.868 67.2362 118.622 66.6923 118.48 66.4592C118.234 66.0319 118.234 66.0189 118.48 65.7081C118.622 65.5268 118.777 65.1254 118.816 64.8275C118.868 64.4779 119.075 64.0635 119.373 63.675C119.917 63.0016 121.639 61.6418 121.963 61.6418C122.274 61.6418 125.136 61.3699 126.133 61.2533C127.441 61.1109 127.674 61.1109 129.124 61.3181ZM145.506 78.6711C145.558 78.7876 145.493 79.1502 145.364 79.4869C145.247 79.8236 144.988 80.5359 144.807 81.0668C144.626 81.5978 144.393 82.1158 144.302 82.2064C144.211 82.2971 144.134 82.4007 144.134 82.4136C144.134 82.7892 143.797 84.0842 143.616 84.3691C143.486 84.5763 143.318 85.0813 143.24 85.4698C143.149 85.8583 143.007 86.2598 142.916 86.3763C142.813 86.4799 142.631 86.9461 142.515 87.4123C142.398 87.8785 142.256 88.3059 142.191 88.3836C142.139 88.4483 142.023 88.7332 141.932 89.0052C141.738 89.6138 141.582 89.6915 139.213 90.3908C138.177 90.6887 135.91 91.3621 134.162 91.8801C132.414 92.3981 129.681 93.2139 128.076 93.6931C126.47 94.1593 125.084 94.6255 124.993 94.7161C124.864 94.8456 124.825 97.4874 124.838 107.822C124.838 115.035 124.786 120.836 124.721 120.94C124.631 121.082 123.685 120.849 119.71 119.723C117.003 118.959 114.75 118.285 114.685 118.233C114.582 118.13 114.75 117.625 115.967 114.284C116.226 113.571 116.9 111.707 117.457 110.14C118.013 108.573 119.062 105.659 119.788 103.665C120.513 101.67 121.147 99.8961 121.212 99.7148C121.264 99.5335 121.937 97.6687 122.701 95.5708C123.465 93.4729 124.475 90.6369 124.968 89.2901C127.907 81.1057 128.619 79.1761 128.723 79.0725C128.801 78.9948 129.668 79.1114 130.886 79.3574C134.887 80.1474 137.309 80.3546 140.132 80.1474C142.139 80.0049 142.282 79.979 143.279 79.4999C143.862 79.2279 144.509 78.8912 144.716 78.7488C145.182 78.425 145.416 78.4121 145.506 78.6711ZM159.35 86.3504C159.855 86.4929 160.956 86.8166 161.81 87.0886C162.665 87.3605 163.805 87.7102 164.336 87.8656C169.749 89.4714 172.326 90.3131 172.157 90.4167C172.093 90.4556 171.018 90.7923 169.775 91.1419C167.327 91.8412 162.03 93.3693 158.702 94.3406C154.753 95.4931 148.083 97.4097 147.242 97.6428C146.775 97.7723 145.675 98.0961 144.781 98.3551C141.854 99.2098 141.919 99.1968 141.142 99.0155C140.754 98.9249 138.72 98.3421 136.623 97.7335C129.979 95.8169 128.801 95.4672 128.218 95.3118C127.894 95.2212 127.7 95.1176 127.765 95.0528C127.829 94.9881 128.412 94.7809 129.047 94.5866C130.355 94.1981 131.611 93.8226 133.32 93.3175C133.968 93.1233 135.159 92.7736 135.975 92.5276C136.791 92.2945 138.72 91.7117 140.249 91.2585C141.777 90.7923 143.965 90.1448 145.092 89.821C147.021 89.2642 147.824 89.0181 150.414 88.2411C151.787 87.8397 153.924 87.2051 155.206 86.8296C155.776 86.6612 156.617 86.4152 157.084 86.2598C158.003 85.9749 158.029 85.9749 159.35 86.3504ZM175.498 91.2844C176.159 91.4916 179.189 92.4369 182.245 93.3823C185.289 94.3276 187.736 95.1435 187.684 95.1953C187.62 95.2341 186.946 95.4672 186.156 95.7003C185.379 95.9334 183.799 96.3996 182.66 96.7363C179.578 97.6558 175.356 98.899 173.595 99.417C172.74 99.663 171.6 99.9997 171.07 100.168C170.539 100.336 168.881 100.829 167.379 101.269C165.89 101.709 164.102 102.227 163.429 102.434C162.756 102.629 161.564 102.978 160.774 103.198C159.997 103.431 159.117 103.69 158.832 103.781C158.353 103.937 158.197 103.924 157.019 103.574C156.307 103.367 155.232 103.069 154.623 102.901C151.645 102.072 144.315 99.9479 144.211 99.8702C144.043 99.7666 144.367 99.663 147.306 98.8083C148.731 98.3939 151.243 97.6687 152.875 97.1896C154.519 96.7104 156.229 96.2183 156.695 96.0888C157.161 95.9593 158.262 95.6485 159.156 95.3766C160.049 95.1046 161.15 94.7938 161.616 94.6643C162.082 94.5348 163.157 94.237 164.012 93.978C164.866 93.719 167.314 93.0197 169.438 92.3981C171.575 91.7765 173.439 91.1937 173.582 91.0901C173.944 90.8311 174.139 90.857 175.498 91.2844ZM190.158 96.0759C190.197 96.1924 190.248 104.61 190.287 114.802C190.339 124.98 190.404 134.706 190.443 136.389L190.52 139.458L189.627 139.73C183.333 141.634 158.819 148.756 158.741 148.718C158.625 148.64 158.65 114.892 158.767 108.663L158.832 104.985L159.803 104.688C161.694 104.118 172.3 100.971 175.019 100.168C175.589 99.9997 176.638 99.6889 177.35 99.4817C178.063 99.2616 179.876 98.7306 181.365 98.2903C185.807 96.9824 186.597 96.7363 188.164 96.2442C189.718 95.7392 190.054 95.7133 190.158 96.0759ZM132.841 97.85C136.454 98.899 141.388 100.311 143.81 101.01C146.231 101.709 149.961 102.784 152.098 103.406C154.235 104.014 156.345 104.636 156.799 104.778L157.602 105.05V126.923C157.602 147.669 157.589 148.795 157.381 148.795C157.252 148.795 156.656 148.653 156.048 148.472C155.439 148.303 152.499 147.487 149.508 146.659C146.516 145.83 143.577 145.014 142.968 144.846C142.359 144.677 138.695 143.654 134.81 142.579C130.925 141.504 127.363 140.507 126.884 140.365L126.004 140.106V118.233C126.004 106.216 126.042 96.2831 126.081 96.1665C126.12 96.05 126.185 95.9593 126.211 95.9593C126.25 95.9593 129.228 96.814 132.841 97.85ZM195.157 112.276C196.749 112.73 198.511 113.235 200.401 113.779C201.696 114.154 203.496 114.659 205.452 115.19C206.164 115.384 206.889 115.617 207.071 115.708L207.394 115.889L206.876 116.11C206.591 116.226 205.724 116.498 204.934 116.705C202.888 117.262 201.683 117.599 199.56 118.22C198.524 118.518 196.982 118.971 196.128 119.218C195.273 119.464 193.978 119.839 193.24 120.059C192.178 120.37 191.867 120.422 191.712 120.305C191.556 120.176 191.531 119.451 191.531 115.889C191.531 112.095 191.556 111.629 191.738 111.525C191.958 111.396 192.346 111.486 195.157 112.276ZM95.0142 113.908C96.6459 114.374 98.6661 114.944 99.5208 115.19C100.375 115.423 101.606 115.773 102.24 115.954C104.882 116.718 106.656 117.223 110.075 118.182C110.684 118.35 111.901 118.7 112.795 118.946C113.688 119.192 114.763 119.502 115.19 119.632L115.967 119.878L115.255 120.085C114.867 120.202 113.377 120.616 111.953 121.018C110.528 121.419 108.871 121.885 108.262 122.054C107.653 122.235 106.527 122.559 105.737 122.779C104.96 122.999 103.704 123.349 102.953 123.556C100.932 124.139 99.5596 124.527 97.9668 124.98C97.1898 125.2 95.9336 125.55 95.1825 125.757C94.4314 125.977 93.3048 126.301 92.6573 126.482C90.1579 127.195 88.85 127.557 87.4773 127.946C86.7003 128.166 85.5866 128.49 85.0168 128.645C84.447 128.813 83.1908 129.163 82.2325 129.435C81.2742 129.694 79.5778 130.173 78.477 130.497C77.3763 130.821 75.9777 131.222 75.369 131.391C74.0093 131.753 71.2768 132.53 69.8005 132.945C69.1919 133.113 68.376 133.346 67.9875 133.463C67.599 133.566 67.1587 133.734 67.0033 133.838C66.6537 134.058 67.0033 134.149 58.8837 131.883C55.167 130.834 51.6317 129.862 51.023 129.694C50.4144 129.539 49.2877 129.228 48.4978 129.008C47.7208 128.788 45.9984 128.308 44.6775 127.946C43.3696 127.583 42.2688 127.259 42.23 127.234C42.1523 127.143 42.7221 126.962 45.7135 126.133C47.3064 125.693 48.692 125.304 50.764 124.708C53.0691 124.048 54.6231 123.608 58.2103 122.597C59.065 122.351 60.2952 122.002 60.9298 121.82C61.5773 121.639 62.5356 121.367 63.0665 121.212C63.5975 121.069 64.504 120.81 65.0738 120.642C65.6436 120.474 66.6407 120.176 67.2753 119.995C67.9228 119.813 68.8811 119.541 69.412 119.386C69.943 119.23 70.8754 118.971 71.484 118.803C72.0927 118.648 73.1157 118.363 73.7503 118.169C74.9028 117.832 76.7417 117.327 78.6065 116.809C79.1375 116.666 79.8368 116.459 80.1605 116.356C80.4843 116.252 81.3001 116.019 81.9735 115.825C82.6469 115.643 83.6959 115.358 84.3045 115.177C85.6254 114.802 87.8528 114.18 89.355 113.766C89.9637 113.597 90.6889 113.377 90.9738 113.261C91.2587 113.157 91.6213 113.066 91.7767 113.066C91.945 113.053 93.3954 113.442 95.0142 113.908ZM211.098 116.809C211.629 116.951 212.665 117.236 213.416 117.456C214.167 117.676 215.423 118.039 216.2 118.259C216.99 118.479 218.117 118.79 218.726 118.971C219.334 119.14 220.267 119.399 220.798 119.541C221.328 119.684 222.118 119.904 222.546 120.046C222.973 120.176 223.996 120.461 224.812 120.694C226.34 121.108 228.218 121.639 230.057 122.183C230.627 122.351 231.572 122.61 232.168 122.766C232.763 122.934 233.204 123.103 233.139 123.154C233.087 123.206 232.66 123.374 232.194 123.517C231.261 123.815 223.815 125.977 223.193 126.133C222.986 126.185 222.08 126.457 221.186 126.716C217.754 127.726 216.407 128.114 213.222 129.021C212.587 129.202 211.331 129.565 210.438 129.824C209.544 130.083 208.443 130.406 207.977 130.536C207.511 130.665 206.035 131.093 204.675 131.481C198.731 133.216 195.325 134.201 194.962 134.291C194.755 134.343 194.069 134.537 193.434 134.732C192.813 134.926 192.178 135.068 192.01 135.042L191.725 135.004L191.621 128.658C191.569 125.162 191.543 122.196 191.582 122.041C191.673 121.717 191.556 121.756 197.552 120.046C199.404 119.515 201.476 118.92 202.732 118.557C203.302 118.389 204.416 118.065 205.193 117.845C205.983 117.625 207.265 117.236 208.042 117.003C209.751 116.485 209.868 116.472 211.098 116.809ZM119.373 120.823C119.852 120.953 121.083 121.302 122.119 121.6C123.155 121.885 124.048 122.183 124.113 122.248C124.242 122.377 124.424 126.767 124.437 130.108L124.45 132.206L123.582 132.465C121.782 132.983 119.943 133.501 118.752 133.838C118.078 134.019 116.926 134.356 116.2 134.563C115.462 134.77 114.271 135.107 113.546 135.314C112.807 135.522 111.655 135.858 110.982 136.04C110.308 136.221 109.143 136.558 108.392 136.765C107.64 136.985 106.54 137.296 105.931 137.464C104.429 137.891 102.318 138.487 100.66 138.966C99.8834 139.186 98.7697 139.497 98.161 139.666C96.4905 140.145 94.3149 140.753 93.3566 141.038C92.5796 141.258 92.4501 141.258 91.9321 141.09C91.6213 140.986 86.2988 139.497 80.0958 137.775C73.9057 136.065 68.7775 134.628 68.7127 134.589C68.5962 134.511 69.3602 134.291 74.6568 132.815C76.3662 132.336 78.1144 131.831 78.5418 131.701C78.9691 131.572 79.9922 131.274 80.808 131.054C83.7088 130.264 88.85 128.801 91.0385 128.153C91.6472 127.985 92.6055 127.713 93.1753 127.57C93.7451 127.415 94.7034 127.156 95.312 126.962C95.9207 126.78 97.1768 126.431 98.0963 126.172C100.052 125.641 101.386 125.265 103.017 124.786C103.665 124.592 104.947 124.229 105.866 123.97C106.799 123.711 108.016 123.374 108.586 123.219C110.852 122.597 114.504 121.549 116.032 121.082C117.923 120.5 118.221 120.474 119.373 120.823ZM235.522 146.736C235.483 159.207 235.405 169.451 235.366 169.502C235.314 169.541 234.46 169.58 233.45 169.593C230.277 169.606 226.91 170.357 225.058 171.471C223.012 172.688 222.675 172.973 221.38 174.54C220.15 176.029 219.697 176.716 218.894 178.282C218.57 178.93 218.337 179.15 218.337 178.826C218.337 178.645 219.593 175.33 221.367 170.81C223.983 164.167 224.165 163.701 224.488 162.742C225.537 159.596 226.003 157.951 226.353 156.177C226.845 153.6 226.871 153.47 227.001 151.385C227.143 149.158 226.988 147.021 226.483 144.224C225.978 141.453 225.473 139.782 223.996 136.04C223.258 134.149 222.727 131.792 222.533 129.435C222.455 128.619 222.377 128.347 222.144 128.114C221.808 127.777 221.859 127.726 222.636 127.557C222.947 127.493 223.543 127.324 223.97 127.182C224.398 127.039 225.395 126.741 226.172 126.521C226.962 126.301 228.037 125.977 228.568 125.809C229.098 125.641 229.837 125.472 230.186 125.421C230.549 125.369 231.041 125.213 231.287 125.097C231.546 124.967 232.194 124.773 232.724 124.657C233.268 124.553 233.877 124.372 234.084 124.255C234.291 124.151 234.719 124.061 235.03 124.061H235.599L235.522 146.736ZM42.2041 128.477C43.512 128.865 44.2761 129.072 46.9826 129.811C47.6431 129.992 48.2776 130.199 48.4071 130.264C48.5237 130.329 48.9769 130.445 49.4043 130.523C49.8316 130.614 50.5309 130.795 50.9583 130.924C51.3856 131.067 52.1756 131.3 52.7065 131.442C55.7109 132.271 56.6433 132.517 57.6923 132.815C58.3398 132.996 59.3499 133.268 59.9585 133.437C60.5672 133.592 61.2406 133.825 61.4737 133.942C61.7068 134.071 62.0305 134.162 62.1989 134.162C62.3672 134.162 62.937 134.278 63.468 134.434C63.9989 134.576 65.4234 134.965 66.6278 135.276C67.8451 135.599 69.0624 135.975 69.3473 136.104C69.6322 136.234 70.2279 136.402 70.6682 136.48C71.1214 136.545 71.6653 136.7 71.8984 136.804C72.1315 136.92 72.792 137.089 73.3488 137.205C73.9057 137.309 74.4884 137.477 74.6438 137.568C74.7992 137.658 75.3302 137.814 75.8482 137.904C76.3532 137.995 76.9748 138.176 77.2338 138.319C77.4928 138.448 78.0626 138.617 78.5159 138.681C78.9562 138.746 79.5778 138.914 79.9015 139.057C80.2253 139.199 80.7821 139.368 81.1318 139.407C81.4944 139.458 81.9347 139.588 82.1289 139.679C82.3232 139.782 82.9189 139.95 83.4628 140.054C83.9937 140.158 84.693 140.352 85.0297 140.494C85.3535 140.637 85.9233 140.792 86.2859 140.844C86.6614 140.883 87.1535 141.038 87.3996 141.181C87.6327 141.31 88.2802 141.504 88.837 141.595C89.3809 141.699 90.0025 141.854 90.2097 141.971C90.4169 142.074 90.8054 142.191 91.0774 142.243C91.4529 142.307 91.5565 142.398 91.5695 142.618C91.5954 143.395 91.5306 164.012 91.5047 164.05C91.4788 164.063 90.922 163.934 90.2486 163.753C88.7334 163.338 86.0916 162.613 84.3045 162.121C83.5534 161.914 82.5433 161.629 82.0383 161.499C81.5462 161.357 80.3807 161.033 79.4483 160.774C77.959 160.36 75.2913 159.622 73.9186 159.259C73.6078 159.168 73.4265 159.039 73.4136 158.909C73.297 155.775 73.2064 155.024 72.8438 154.157C72.015 152.175 70.8883 150.893 68.0523 148.731C66.2652 147.358 62.0046 146.128 57.9513 145.817C57.0318 145.752 55.5426 145.61 54.649 145.493C52.7195 145.273 47.3452 145.234 45.1826 145.428C44.3538 145.506 42.9811 145.752 42.0228 145.998C41.1033 146.244 40.3263 146.425 40.3004 146.4C40.2357 146.348 40.5076 131.973 40.6112 129.785C40.6501 128.852 40.7148 128.075 40.7537 128.075C40.7925 128.075 41.453 128.257 42.2041 128.477ZM220.979 128.412C220.927 128.606 220.435 129.37 219.878 130.108C219.256 130.937 218.803 131.688 218.726 132.012C218.648 132.297 218.505 132.776 218.402 133.061C217.949 134.382 217.288 137.127 216.977 138.979C216.666 140.883 216.641 141.323 216.615 145.454C216.602 148.562 216.666 150.88 216.835 153.198C217.081 156.708 217.055 158.275 216.705 161.875C216.407 164.957 215.773 169.554 215.397 171.134C215.061 172.623 214.232 175.537 214.064 175.848C214.012 175.939 213.934 172.235 213.895 167.625C213.792 155.827 213.805 155.996 211.603 147.436C211.24 146.011 210.865 144.703 210.774 144.522C210.684 144.341 210.114 143.292 209.492 142.191C208.469 140.339 207.304 137.878 206.112 135.029C205.853 134.408 205.491 133.683 205.322 133.424C205.141 133.178 204.999 132.919 204.999 132.867C204.999 132.673 205.335 132.517 206.164 132.297C206.63 132.168 207.446 131.934 207.977 131.766C208.508 131.598 209.622 131.274 210.438 131.054C211.253 130.834 212.51 130.471 213.222 130.264C214.892 129.772 216.744 129.228 218.531 128.723C219.321 128.49 220.098 128.27 220.28 128.205C220.914 127.998 221.069 128.036 220.979 128.412ZM221.458 131.442C221.587 131.831 221.769 132.556 221.846 133.061C221.924 133.553 222.183 134.486 222.429 135.133C222.662 135.768 223.09 136.933 223.388 137.723C224.242 140.028 224.786 141.699 224.877 142.256C224.929 142.54 225.071 143.214 225.201 143.745C225.589 145.312 225.719 146.879 225.719 149.767C225.706 152.603 225.485 155.141 225.162 155.918C225.058 156.164 224.942 156.721 224.89 157.148C224.838 157.575 224.54 158.715 224.229 159.673C223.906 160.632 223.53 161.823 223.388 162.302C223.245 162.794 223.038 163.312 222.947 163.468C222.844 163.623 222.688 164.012 222.611 164.335C222.52 164.646 222.313 165.19 222.144 165.527C221.976 165.863 221.834 166.213 221.834 166.304C221.834 166.394 221.73 166.679 221.587 166.925C221.458 167.171 221.303 167.521 221.251 167.702C221.199 167.884 220.966 168.428 220.733 168.933C219.878 170.746 219.762 171.03 219.762 171.225C219.762 171.328 219.593 171.73 219.386 172.118C219.192 172.507 218.972 173.012 218.92 173.258C218.868 173.491 218.726 173.879 218.596 174.1C218.467 174.32 218.324 174.708 218.272 174.954C218.221 175.2 218.091 175.55 217.987 175.718C217.741 176.107 217.107 177.959 216.77 179.293C216.615 179.862 216.446 180.432 216.369 180.562C216.304 180.691 216.2 181.093 216.136 181.468C216.071 181.844 215.864 183.035 215.682 184.123C215.359 186.014 215.346 186.13 215.566 186.363C216.123 186.985 216.615 186.428 217.418 184.278C217.728 183.462 218.661 181.455 219.49 179.836C220.849 177.169 221.121 176.728 222.274 175.33C223.465 173.905 223.659 173.724 225.006 172.895C227.428 171.406 228.904 171.056 234.032 170.81C237.076 170.668 240.145 170.202 240.987 169.774C241.284 169.606 241.673 169.515 241.932 169.541C242.32 169.58 242.359 169.619 242.346 169.969C242.333 170.538 241.582 173.206 241.168 174.177C240.689 175.291 239.951 176.482 239.42 176.987C237.801 178.529 234.045 180.316 231.74 180.652C229.461 180.976 226.599 181.598 225.447 181.999C224.916 182.193 223.88 182.647 223.141 183.022C222.028 183.579 221.678 183.825 221.134 184.46C220.772 184.887 220.318 185.379 220.137 185.56C219.956 185.755 219.723 186.04 219.632 186.221C219.541 186.402 219.347 186.687 219.218 186.868C218.661 187.594 218.285 188.267 218.052 188.927C217.923 189.316 217.728 189.769 217.638 189.925C217.534 190.067 217.405 190.43 217.353 190.702C217.301 190.973 217.184 191.414 217.094 191.66C216.9 192.152 216.006 197.28 216.006 197.889V198.264H212.639C209.544 198.264 209.259 198.251 209.039 198.031C208.832 197.824 208.78 197.474 208.702 195.661C208.599 192.968 208.223 190.999 207.485 189.29C207.071 188.293 206.721 187.814 205.84 186.933C203.911 185.042 204.053 185.12 201.411 184.227C199.521 183.579 198.575 183.333 197.164 183.113C194.742 182.75 191.155 181.947 190.818 181.688C190.754 181.637 190.365 181.52 189.977 181.429C189.588 181.339 189.005 181.131 188.682 180.963C188.358 180.795 188.047 180.652 187.995 180.652C187.788 180.652 184.032 177.803 183.605 177.337C183.489 177.195 183.035 176.444 182.595 175.641C181.896 174.372 181.766 174.035 181.546 172.792C181.3 171.471 181.235 169.269 181.442 169.062C181.494 169.023 181.87 169.153 182.284 169.36C183.178 169.8 184.395 170.111 186.027 170.292C186.674 170.37 187.866 170.538 188.682 170.681C189.497 170.81 190.611 170.992 191.142 171.069C193.02 171.341 198.485 173.141 199.171 173.724C199.275 173.815 199.56 173.944 199.793 174.022C200.349 174.216 203.393 176.716 204.131 177.57C205.633 179.37 206.643 181.106 207.589 183.501C208.275 185.224 208.806 186.221 209.039 186.221C209.259 186.221 209.531 185.327 209.531 184.641C209.531 183.838 209.194 181.196 209.013 180.51C208.521 178.671 206.928 175.861 205.426 174.177C204.649 173.31 203.043 171.717 202.939 171.717C202.888 171.717 202.396 171.277 201.826 170.746C201.256 170.202 200.466 169.515 200.078 169.217C199.689 168.92 199.184 168.531 198.951 168.35C198.718 168.169 198.381 167.91 198.187 167.767C197.267 167.068 194.859 164.827 194.25 164.089C193.926 163.714 193.615 163.325 193.538 163.248C192.748 162.341 192.178 161.331 191.543 159.712C191.116 158.624 190.896 157.019 190.857 154.752C190.831 152.991 190.857 152.486 191.051 151.877L191.272 151.126L192.489 151.761C195.04 153.082 196.672 154.338 199.611 157.252C201.321 158.961 202.551 160.347 202.849 160.929C202.965 161.163 203.108 161.357 203.173 161.357C203.237 161.357 203.354 161.538 203.445 161.745C203.535 161.965 203.704 162.212 203.82 162.302C203.95 162.393 204.118 162.639 204.209 162.872C204.299 163.105 204.468 163.364 204.571 163.455C204.688 163.545 204.882 163.856 205.011 164.141C205.141 164.426 205.309 164.75 205.387 164.853C205.452 164.957 205.788 165.656 206.138 166.407C206.501 167.158 206.993 168.207 207.239 168.738C208.327 171.043 208.832 172.351 209.22 173.789C209.57 175.058 210.204 176.962 210.334 177.13C210.515 177.35 210.8 177.104 211.046 176.547C211.163 176.236 211.189 175.977 211.098 175.576C211.033 175.265 210.917 174.255 210.826 173.336C210.632 171.108 210.049 168.35 209.078 165.048C208.909 164.478 208.715 163.753 208.625 163.429C208.547 163.105 208.378 162.587 208.236 162.263C207.835 161.305 206.177 157.601 205.4 155.918C205.258 155.594 205.024 155.011 204.882 154.623C204.338 153.121 203.975 152.188 203.457 150.997C202.875 149.689 202.409 148.277 202.059 146.788C201.891 146.076 201.852 145.247 201.852 142.838L201.865 139.795L202.603 137.335C203.237 135.185 203.846 133.773 204.118 133.773C204.222 133.773 204.817 134.796 204.934 135.198C204.986 135.379 205.232 135.988 205.478 136.558C205.724 137.127 206.022 137.827 206.138 138.112C206.423 138.785 208.767 143.421 209.117 144.004C209.272 144.25 209.402 144.561 209.402 144.677C209.402 144.807 209.544 145.208 209.725 145.584C210.153 146.516 211.461 151.178 211.733 152.81C211.823 153.263 211.94 153.742 212.004 153.872C212.069 153.988 212.238 155.426 212.38 157.044C212.6 159.479 212.665 161.849 212.769 170.409C212.859 177.13 212.95 180.898 213.04 181.067C213.118 181.196 213.274 181.3 213.39 181.274C213.649 181.222 214.245 180.018 214.504 179.008C214.75 178.075 215.32 176.327 215.579 175.757C215.682 175.511 215.825 174.954 215.889 174.501C215.954 174.048 216.084 173.452 216.187 173.18C216.291 172.908 216.472 172.105 216.589 171.393C216.705 170.681 216.913 169.658 217.042 169.127C217.172 168.596 217.314 167.599 217.366 166.925C217.405 166.252 217.534 165.138 217.638 164.465C218.195 160.981 218.324 157.044 218.026 152.473C217.923 150.919 217.793 148.964 217.754 148.148C217.638 146.115 217.897 140.805 218.208 138.824C218.428 137.386 219.127 134.46 219.321 134.136C219.373 134.071 219.49 133.657 219.58 133.216C219.684 132.789 219.891 132.219 220.046 131.973C220.642 130.95 220.875 130.665 221.031 130.691C221.134 130.717 221.316 131.054 221.458 131.442ZM202.668 133.579C202.668 133.683 202.525 134.045 202.357 134.382C202.02 135.042 201.58 136.299 201.36 137.27C201.282 137.594 201.114 138.228 200.984 138.694C200.855 139.161 200.712 139.989 200.66 140.546C200.596 141.245 200.518 141.582 200.388 141.634C200.285 141.673 199.611 141.517 198.873 141.297C197.073 140.753 195.247 140.222 193.473 139.717C192.657 139.484 191.906 139.238 191.828 139.173C191.712 139.096 191.66 138.643 191.66 137.788V136.519L192.476 136.247C192.916 136.104 193.603 135.91 193.991 135.806C194.613 135.638 199.171 134.317 201.437 133.644C202.421 133.346 202.668 133.333 202.668 133.579ZM124.592 135.975C124.631 137.218 124.644 138.306 124.618 138.371C124.579 138.5 122.662 139.122 120.824 139.601C120.293 139.743 119.334 140.002 118.687 140.184C118.052 140.365 116.796 140.715 115.903 140.961C115.009 141.194 112.911 141.776 111.241 142.243C109.57 142.709 107.446 143.305 106.514 143.564C104.364 144.159 104.144 144.237 103.963 144.574C103.859 144.768 103.781 147.85 103.704 155.141C103.639 160.8 103.561 165.863 103.522 166.381C103.432 167.521 103.704 167.482 100.816 166.666C99.7539 166.368 97.5524 165.76 95.9336 165.32C94.3149 164.879 92.9551 164.478 92.9033 164.439C92.7997 164.322 92.8386 142.528 92.9551 142.437C93.0458 142.372 93.6415 142.191 96.8013 141.284C97.5912 141.064 98.8085 140.702 99.5078 140.494C100.207 140.287 100.868 140.119 100.958 140.119C101.062 140.119 101.476 140.002 101.878 139.873C102.292 139.73 103.419 139.407 104.377 139.148C105.335 138.889 106.423 138.578 106.773 138.474C107.135 138.358 108.029 138.099 108.78 137.891C109.531 137.684 110.632 137.373 111.241 137.205C111.849 137.037 112.756 136.778 113.248 136.648C113.753 136.506 114.685 136.234 115.32 136.053C115.967 135.858 116.977 135.573 117.586 135.405C121.057 134.447 121.743 134.24 122.572 133.968C123.077 133.799 123.711 133.67 123.996 133.683L124.514 133.709L124.592 135.975ZM124.631 140.015C124.67 140.106 124.721 140.339 124.76 140.533C124.89 141.129 125.071 141.207 129.694 142.463C130.484 142.67 131.533 142.955 132.025 143.097C132.53 143.24 133.579 143.525 134.356 143.732C135.146 143.939 136.04 144.198 136.351 144.315C136.661 144.431 137.024 144.522 137.166 144.522C137.309 144.522 137.84 144.664 138.345 144.846C138.863 145.014 139.653 145.247 140.119 145.351C140.909 145.519 141.777 145.765 143.68 146.335C144.108 146.464 144.794 146.672 145.221 146.788C145.726 146.931 145.934 147.047 145.856 147.125C145.739 147.241 144.509 147.63 142.191 148.29C140.611 148.731 139.407 149.08 138.824 149.274C138.5 149.378 137.892 149.546 137.464 149.663C137.037 149.767 136.402 149.961 136.04 150.09C135.69 150.233 134.965 150.427 134.447 150.544C133.929 150.647 133.346 150.816 133.152 150.919C132.958 151.01 132.31 151.217 131.714 151.372C130.704 151.618 130.575 151.631 129.966 151.45C129.604 151.346 128.982 151.178 128.594 151.075C127.299 150.738 126.34 150.466 125.291 150.155C124.721 149.974 123.97 149.78 123.634 149.702C123.284 149.624 122.818 149.495 122.598 149.391C122.365 149.3 121.717 149.119 121.147 148.99C120.577 148.873 119.969 148.692 119.788 148.601C119.606 148.51 119.218 148.394 118.946 148.342C118.661 148.29 118.052 148.135 117.599 147.992C117.146 147.85 116.278 147.591 115.656 147.436C115.048 147.267 114.025 146.995 113.377 146.814C109.92 145.83 109.285 145.648 108.392 145.428C107.861 145.286 107.291 145.143 107.135 145.105C106.397 144.923 106.98 144.651 109.57 143.939C113.054 142.981 113.546 142.851 115.838 142.217C117.12 141.854 119.36 141.233 120.824 140.818C124.696 139.743 124.566 139.769 124.631 140.015ZM193.732 141.012C194.483 141.233 195.584 141.569 196.193 141.738C196.801 141.919 197.98 142.256 198.834 142.502C199.676 142.748 200.414 143.007 200.466 143.097C200.557 143.253 200.777 146.451 200.699 146.542C200.647 146.581 200.207 146.71 197.876 147.358C197.125 147.565 195.675 147.979 194.639 148.277C190.624 149.43 188.876 149.922 186.545 150.569C185.91 150.751 184.887 151.036 184.279 151.204C183.67 151.372 182.66 151.657 182.012 151.839C181.378 152.007 180.212 152.344 179.422 152.564C178.645 152.784 177.506 153.108 176.897 153.276C176.288 153.444 175.071 153.781 174.178 154.04C171.963 154.675 168.713 155.581 166.602 156.164C166.032 156.319 165.216 156.565 164.789 156.695C164.361 156.824 163.222 157.148 162.264 157.42C161.305 157.679 159.622 158.145 158.521 158.456C157.071 158.87 156.475 158.987 156.307 158.896C156.177 158.832 155.607 158.65 155.05 158.521C154.494 158.378 153.406 158.08 152.616 157.847C150.155 157.148 148.498 156.682 147.695 156.488C147.267 156.371 146.594 156.177 146.206 156.047C145.817 155.905 145.053 155.711 144.522 155.581C143.991 155.465 143.434 155.309 143.305 155.231C143.059 155.115 141.971 154.804 139.523 154.183C138.876 154.014 138.28 153.846 138.202 153.794C138.125 153.755 137.49 153.561 136.791 153.38C136.092 153.198 135.004 152.9 134.369 152.745C133.748 152.577 133.204 152.408 133.165 152.37C133.022 152.227 132.738 152.318 145.493 148.523C145.998 148.381 146.724 148.135 147.112 147.992C148.226 147.591 148.368 147.578 149.158 147.863C149.56 148.018 150.233 148.2 150.634 148.264C151.049 148.342 151.541 148.485 151.748 148.588C151.942 148.692 152.486 148.847 152.94 148.925C153.406 149.003 154.04 149.184 154.351 149.326C154.662 149.456 155.296 149.637 155.75 149.702C156.203 149.78 156.799 149.948 157.058 150.09C157.666 150.427 158.314 150.301 159.065 150.09C159.324 149.948 159.92 149.78 160.36 149.715C160.79 149.524 161.461 149.469 161.797 149.313C162.147 149.158 162.769 148.977 163.196 148.912C163.636 148.847 164.154 148.692 164.361 148.588C164.569 148.472 165.1 148.329 165.527 148.264C165.967 148.187 166.576 148.018 166.9 147.876C167.223 147.72 167.806 147.552 168.208 147.5C168.609 147.449 169.166 147.28 169.464 147.125C169.749 146.969 170.409 146.801 170.927 146.736C171.484 146.659 171.963 146.529 172.106 146.4C172.248 146.27 172.714 146.141 173.193 146.076C173.672 146.024 174.294 145.843 174.605 145.687C174.903 145.532 175.524 145.351 175.991 145.286C176.457 145.234 177.091 145.066 177.415 144.936C177.739 144.794 178.399 144.612 178.891 144.522C179.383 144.431 179.876 144.263 180.005 144.133C180.135 144.004 180.523 143.887 181.002 143.848C181.442 143.81 182.129 143.628 182.543 143.447C182.971 143.266 183.644 143.084 184.058 143.046C184.473 143.02 184.991 142.877 185.237 142.722C185.47 142.579 186.079 142.398 186.597 142.32C187.153 142.243 187.671 142.087 187.853 141.945C188.034 141.802 188.487 141.673 189.031 141.621C189.73 141.543 190.08 141.427 190.754 141.012C191.725 140.417 191.777 140.417 193.732 141.012ZM108.392 146.646C109.997 147.099 111.979 147.656 112.795 147.889C114.724 148.42 118.182 149.391 125.032 151.321C126.457 151.722 128.114 152.188 128.723 152.357C129.332 152.525 130.549 152.862 131.443 153.121C133.204 153.613 137.943 154.947 141.22 155.866C142.359 156.19 143.9 156.617 144.652 156.837C145.403 157.044 146.503 157.368 147.112 157.537C147.721 157.705 148.821 158.016 149.573 158.236C150.324 158.443 152.007 158.922 153.315 159.285C154.623 159.647 155.814 159.997 155.957 160.075L156.216 160.217L156.112 195.532C156.06 214.944 156.009 230.847 155.983 230.872C155.931 230.924 148.252 228.852 148.044 228.736C147.915 228.645 147.876 225.822 147.889 213.947C147.889 205.866 147.915 199.236 147.941 199.21C147.967 199.184 148.653 198.951 149.456 198.705C150.272 198.459 151.01 198.174 151.101 198.083C151.243 197.941 151.269 196.296 151.256 189.471C151.256 184.835 151.217 180.95 151.165 180.847C151.023 180.445 150.712 180.342 146.322 179.176C145.7 179.008 144.911 178.788 144.574 178.671C143.991 178.49 142.8 178.166 141.026 177.726C140.637 177.622 140.054 177.454 139.731 177.35C139.407 177.246 138.591 177.013 137.918 176.845C137.244 176.664 135.936 176.314 135.004 176.055C134.084 175.783 132.919 175.459 132.414 175.33C131.922 175.2 130.834 174.915 130.018 174.682C129.202 174.462 128.037 174.138 127.428 173.97C125.473 173.439 123.388 172.869 121.989 172.481C121.238 172.261 120.111 171.95 119.464 171.782C118.829 171.6 117.664 171.289 116.874 171.069C115.087 170.577 113.002 170.007 111.241 169.528C110.489 169.321 109.298 168.997 108.586 168.803C107.874 168.596 106.799 168.311 106.203 168.169C105.517 167.987 105.05 167.793 104.934 167.638C104.778 167.417 104.766 166.291 104.83 160.062C104.869 156.034 104.934 151.152 104.973 149.21C105.05 146.024 105.076 145.687 105.271 145.752C105.387 145.778 106.786 146.179 108.392 146.646ZM57.5498 147.112C61.5255 147.513 61.9917 147.591 63.8565 148.083C65.8637 148.614 67.4436 149.521 69.1271 151.1C69.93 151.852 69.6969 152.732 68.4408 153.755C67.3271 154.662 64.2191 156.177 62.4838 156.669C59.0779 157.627 55.9829 157.977 50.6345 157.99C46.2574 157.99 43.5897 157.627 39.627 156.501C35.7679 155.4 34.8744 155.024 33.7866 154.079C33.0096 153.406 32.9189 153.276 32.8412 152.719C32.7635 152.162 32.8153 151.994 33.2297 151.152C33.67 150.285 33.7866 150.168 34.5636 149.715C35.0298 149.443 35.7291 149.054 36.1176 148.86C37.05 148.394 39.9896 147.461 40.2875 147.539C40.4299 147.578 40.8961 147.526 41.3494 147.423C43.6545 146.879 45.1696 146.749 49.4949 146.736C53.3152 146.723 54.0922 146.762 57.5498 147.112ZM201.243 148.303C201.463 149.145 202.033 150.738 202.292 151.282C202.421 151.541 202.888 152.706 203.328 153.859C203.768 155.024 204.558 156.902 205.089 158.055C206.863 161.836 207.2 162.704 207.925 165.242C208.521 167.34 208.741 168.479 208.534 168.479C208.469 168.479 207.731 166.99 206.876 165.164L205.322 161.836L203.755 160.01C202.188 158.197 198.899 154.882 197.164 153.38C196.4 152.719 193.784 150.997 193.551 150.997C193.512 150.997 193.201 150.828 192.877 150.621C192.152 150.181 192.165 150.168 193.991 149.676C194.742 149.469 195.882 149.158 196.516 148.977C197.164 148.795 198.239 148.497 198.912 148.329C199.585 148.148 200.22 147.941 200.337 147.889C200.44 147.824 200.66 147.759 200.816 147.759C201.049 147.759 201.126 147.863 201.243 148.303ZM189.536 153.846C189.536 156.229 189.575 156.669 189.899 158.184C190.313 160.204 191.336 162.496 192.372 163.753C193.745 165.41 196.27 167.871 197.617 168.842C199.521 170.215 199.961 170.59 201.023 171.691C201.541 172.222 202.59 173.206 203.354 173.867C204.118 174.527 204.908 175.291 205.089 175.563C206.565 177.726 206.954 178.386 207.317 179.28C207.537 179.849 207.705 180.354 207.692 180.419C207.666 180.484 207.045 179.629 206.306 178.529L204.96 176.521L202.965 174.877C201.334 173.543 200.712 173.128 199.611 172.597C196.503 171.134 192.981 170.085 189.264 169.528C183.268 168.622 183.23 168.622 182.466 168.156C182.051 167.91 181.65 167.612 181.559 167.508C181.365 167.275 180.73 167.249 180.549 167.482C180.471 167.573 180.303 168.35 180.173 169.217L179.953 170.784L180.355 172.779C180.73 174.656 180.795 174.838 181.572 176.249C182.569 178.036 182.984 178.464 185.664 180.471L187.71 181.999L189.912 182.698C192.113 183.385 194.651 183.955 197.267 184.33C198.096 184.46 199.365 184.77 200.44 185.133C202.668 185.884 202.732 185.91 202.085 186.027C201.8 186.078 200.699 186.337 199.624 186.622C196.698 187.386 194.626 188.513 193.097 190.171C192.476 190.857 192.411 191.012 191.479 193.835C190.935 195.454 190.093 197.966 189.601 199.43C188.772 201.877 188.371 203.185 187.581 205.97C187.412 206.539 187.102 207.821 186.881 208.819C186.04 212.717 185.936 213.468 185.82 216.977L185.69 220.344L186.04 221.548C186.234 222.196 186.363 222.766 186.338 222.792C186.312 222.818 179.85 224.656 171.976 226.871C164.102 229.098 157.563 230.937 157.446 230.976C157.239 231.041 157.226 229.021 157.291 195.778C157.33 176.379 157.381 160.399 157.407 160.256C157.446 160.049 157.705 159.932 158.534 159.699C159.13 159.531 160.192 159.22 160.904 159.026C162.276 158.624 164.336 158.042 166.149 157.537C166.757 157.368 167.858 157.044 168.609 156.837C169.36 156.63 170.409 156.332 170.94 156.177C171.471 156.034 172.442 155.762 173.077 155.581C173.724 155.4 174.734 155.115 175.343 154.96C175.952 154.791 176.768 154.571 177.156 154.454C177.545 154.338 178.516 154.053 179.293 153.833C181.313 153.276 182.854 152.836 184.279 152.421C184.952 152.227 185.768 151.994 186.092 151.916C186.415 151.839 187.14 151.631 187.71 151.45C188.28 151.282 188.928 151.152 189.135 151.165L189.523 151.191L189.536 153.846ZM69.5933 154.778C69.6322 154.947 69.671 156.086 69.671 157.329V159.583L69.0753 160.14C68.6091 160.567 68.0782 160.839 66.6407 161.396C64.3227 162.315 62.4579 162.989 61.9917 163.105C61.1888 163.312 61.1888 163.235 61.124 170.189C61.0852 174.333 61.0075 176.547 60.9168 176.638C60.7355 176.819 58.7671 177.234 57.1095 177.441C55.426 177.648 48.951 177.635 46.4905 177.428C43.2401 177.143 40.9868 176.703 38.4745 175.835C34.4729 174.462 33.5794 173.815 32.9837 171.859L32.6599 170.81L32.7635 163.273C32.8283 159.116 32.8801 155.529 32.893 155.283V154.856L33.3463 155.257C33.929 155.762 34.2398 155.918 35.8068 156.475C39.6529 157.834 43.4861 158.715 46.892 159.026C49.8964 159.298 55.4649 159.129 58.4045 158.689C60.0103 158.443 63.196 157.692 64.1932 157.316C65.2551 156.928 67.7803 155.607 68.6221 155.011C69.0235 154.726 69.3861 154.493 69.425 154.493C69.4768 154.493 69.5415 154.623 69.5933 154.778ZM72.3776 168.699L72.3905 176.107L71.7689 176.923C70.6423 178.425 68.648 179.733 65.7472 180.86C64.7889 181.235 62.95 181.675 62.3154 181.688C62.0823 181.688 62.2377 164.491 62.4708 164.245C62.5485 164.167 63.1054 163.921 63.714 163.701C64.3227 163.494 65.281 163.131 65.8508 162.911C66.4206 162.691 67.2623 162.367 67.7156 162.199C68.648 161.849 69.3732 161.383 71.0308 160.023L72.1963 159.078L72.274 160.191C72.3258 160.8 72.3646 164.62 72.3776 168.699ZM76.0813 161.098C77.3504 161.473 77.7259 161.577 80.0958 162.186C80.7433 162.354 81.5591 162.574 81.9088 162.691C82.2714 162.807 82.9318 163.001 83.398 163.118C83.8642 163.235 84.8225 163.507 85.5348 163.714C86.247 163.921 87.4773 164.258 88.2543 164.465C89.0442 164.659 90.3522 165.022 91.168 165.242C91.9839 165.475 93.1494 165.786 93.758 165.954C94.3667 166.122 95.5322 166.446 96.348 166.666C97.1639 166.899 98.3294 167.223 98.938 167.379C100.246 167.728 102.94 168.466 104.571 168.933C105.219 169.101 106.384 169.425 107.161 169.645C107.951 169.852 109.233 170.215 110.01 170.422C110.8 170.642 111.966 170.966 112.6 171.134C113.248 171.315 114.491 171.652 115.385 171.911C116.278 172.157 117.651 172.533 118.428 172.753C119.218 172.96 120.267 173.245 120.759 173.387C121.264 173.517 122.313 173.815 123.09 174.022C123.88 174.229 126.237 174.89 128.335 175.472C130.432 176.055 133.618 176.923 135.392 177.415C137.179 177.907 139.795 178.632 141.22 179.034C142.644 179.422 144.703 179.992 145.791 180.277C146.879 180.575 147.721 180.86 147.669 180.911C147.617 180.963 146.024 181.442 144.134 181.986C137.024 184.006 133.735 184.952 132.31 185.392C131.753 185.56 131.209 185.703 131.119 185.703C131.015 185.703 130.51 185.845 129.992 186.014C129.073 186.311 128.076 186.609 125.939 187.192C125.369 187.36 124.268 187.658 123.478 187.878C122.701 188.099 121.445 188.461 120.694 188.694C119.943 188.914 118.842 189.225 118.234 189.394C116.977 189.717 115.333 190.184 114.478 190.443C113.831 190.65 112.121 191.129 110.852 191.466C110.386 191.582 109.725 191.789 109.363 191.932C109.013 192.061 108.249 192.256 107.679 192.372C107.122 192.489 106.591 192.631 106.514 192.696C106.436 192.761 105.879 192.929 105.271 193.071C104.675 193.214 103.976 193.408 103.73 193.525C103.483 193.628 102.901 193.771 102.447 193.861C101.994 193.939 101.502 194.094 101.347 194.185C101.191 194.289 100.673 194.431 100.168 194.522C99.6762 194.599 99.0546 194.768 98.8085 194.897C98.5625 195.014 97.9538 195.195 97.4488 195.286C96.9567 195.376 96.2962 195.571 95.9984 195.713L95.4674 195.985L94.3796 195.648C93.7839 195.467 92.9292 195.221 92.463 195.105C89.7694 194.405 89.2514 194.263 88.9277 194.133C88.7205 194.056 88.1118 193.9 87.5679 193.784C87.024 193.667 86.4283 193.512 86.247 193.408C86.0657 193.317 85.6902 193.214 85.4053 193.162C85.1204 193.123 84.4211 192.942 83.8513 192.774C82.8282 192.463 81.6368 192.139 79.8368 191.673C79.3447 191.543 78.5288 191.323 78.0238 191.168C77.5317 191.012 76.7676 190.805 76.3403 190.702C75.9129 190.598 74.9287 190.326 74.1388 190.106C73.3618 189.886 72.1963 189.562 71.5488 189.394C70.9142 189.225 69.7746 188.914 69.0235 188.707C66.5242 188.008 64.6982 187.503 63.5198 187.192C62.8852 187.024 61.7456 186.713 60.9945 186.506C60.2434 186.299 58.9355 185.936 58.0808 185.703C57.2261 185.47 55.9181 185.12 55.167 184.913C54.4159 184.706 53.2893 184.395 52.6418 184.227C52.0072 184.058 50.8029 183.734 49.987 183.501C49.1712 183.268 48.0057 182.944 47.397 182.789C46.7884 182.621 45.5063 182.284 44.548 182.012C43.5897 181.753 42.4242 181.429 41.958 181.3C41.4918 181.17 40.3263 180.847 39.368 180.588C38.4097 180.316 37.1277 179.966 36.519 179.811C35.9104 179.642 34.6283 179.306 33.67 179.034C27.8684 177.441 26.7418 177.13 25.641 176.832C24.4626 176.521 20.9013 175.55 20.2668 175.369C20.0596 175.304 19.943 175.226 20.0078 175.187C20.1243 175.123 27.4929 172.908 28.6195 172.597C28.8656 172.533 29.526 172.325 30.0829 172.144C31.5592 171.665 31.7405 171.756 32.1031 173.077C32.2585 173.685 33.3204 174.812 34.188 175.317C34.5118 175.498 34.8614 175.731 34.978 175.822C35.1075 175.926 35.496 176.081 35.8715 176.185C36.2471 176.288 36.6485 176.457 36.7651 176.56C36.8816 176.664 37.3867 176.858 37.8788 176.962C38.3709 177.078 38.8889 177.234 39.0313 177.311C39.1738 177.389 40.2357 177.648 41.3753 177.894C43.771 178.399 48.6661 178.839 51.8648 178.839C54.4159 178.839 58.5729 178.503 59.7384 178.192C60.36 178.023 60.7096 177.985 60.8003 178.075C60.878 178.153 60.9298 179.047 60.9427 180.173C60.9557 182.737 60.9557 182.698 61.2276 182.841C61.5902 183.035 64.1155 182.66 65.3975 182.219C69.3732 180.86 72.4035 178.697 73.3877 176.508C73.569 176.107 73.5819 175.213 73.4913 168.453C73.4395 164.271 73.4395 160.787 73.4913 160.709C73.6208 160.515 74.5273 160.645 76.0813 161.098ZM19.2308 176.301C19.5934 176.392 20.0207 176.534 20.1761 176.625C20.3315 176.703 20.7977 176.832 21.1992 176.91C21.6136 176.975 22.2999 177.156 22.7273 177.285C23.1546 177.428 23.9446 177.648 24.4755 177.79C26.7806 178.386 27.1821 178.503 28.1015 178.775C28.6325 178.943 29.4483 179.163 29.9145 179.28C31.1189 179.577 33.411 180.212 33.8643 180.367C34.0844 180.445 34.7449 180.626 35.3535 180.782C37.0759 181.196 38.7464 181.649 39.1738 181.805C39.3939 181.883 40.0544 182.064 40.663 182.219C41.2717 182.375 42.3724 182.673 43.1235 182.88C44.5739 183.281 45.7524 183.592 48.2388 184.278C49.0935 184.511 50.4014 184.874 51.1525 185.068C51.9036 185.275 53.1598 185.612 53.9368 185.819C54.7267 186.04 55.8922 186.35 56.5268 186.545C57.1743 186.726 58.3398 187.05 59.1168 187.257C59.9067 187.464 61.1888 187.814 61.9658 188.021C62.7557 188.241 64.0378 188.591 64.8148 188.811C65.6047 189.018 66.7702 189.342 67.4048 189.523C68.0523 189.704 69.1012 189.989 69.7358 190.158C70.3833 190.326 71.5747 190.65 72.3905 190.883C73.2064 191.116 74.3719 191.44 74.9805 191.595C75.9906 191.867 77.2986 192.217 80.9375 193.227C81.6886 193.434 82.9448 193.771 83.7218 193.991C84.5117 194.198 85.6772 194.522 86.3118 194.703C86.9593 194.884 87.8269 195.117 88.2543 195.234C89.0572 195.428 91.2457 196.024 92.722 196.451C93.1882 196.581 93.8098 196.749 94.1206 196.84L94.6645 196.982V204.675C94.6645 209.777 94.6257 212.393 94.535 212.445C94.4573 212.496 94.1206 212.445 93.7839 212.341C93.4472 212.237 92.6184 212.004 91.945 211.823C91.2716 211.642 90.0802 211.305 89.2903 211.085C85.8456 210.139 83.0484 209.362 82.6858 209.272C82.4786 209.22 80.6656 208.728 78.6713 208.171C76.677 207.614 74.6697 207.07 74.2035 206.941C72.5977 206.501 68.9588 205.503 67.858 205.193C66.9127 204.921 60.0492 203.03 47.915 199.702C46.1668 199.223 38.7335 197.164 31.3908 195.143L18.0394 191.466L17.9617 189.458C17.9099 188.358 17.871 184.9 17.871 181.779V176.12H18.2336C18.4279 176.12 18.8811 176.198 19.2308 176.301ZM235.353 181.196C235.392 181.365 235.457 184.576 235.496 188.358L235.573 195.221L234.719 195.584C233.722 196.011 233.657 195.985 233.242 195.027C232.958 194.379 232.064 191.608 232.064 191.401C232.064 191.168 231.391 190.287 230.782 189.717C230.445 189.394 229.759 188.914 229.267 188.642C228.166 188.047 226.379 187.257 226.107 187.257C225.99 187.257 225.369 187.088 224.721 186.868C224.061 186.661 223.09 186.428 222.546 186.363C222.002 186.299 221.523 186.221 221.484 186.182C221.38 186.065 221.795 185.392 222.248 184.978C222.753 184.511 224.022 183.799 225.201 183.32C225.99 182.996 228.062 182.53 232.038 181.753C232.983 181.572 234.032 181.313 234.369 181.17C235.159 180.847 235.289 180.86 235.353 181.196ZM150.013 189.355C150.091 195.907 150.078 197.034 149.922 197.202C149.741 197.371 149.184 197.552 146.853 198.187C145.312 198.614 143.136 199.223 141.544 199.689C140.792 199.909 139.666 200.233 139.018 200.401C138.384 200.582 137.218 200.906 136.428 201.126C135.651 201.346 134.512 201.67 133.903 201.839C133.294 202.007 132.194 202.318 131.443 202.538C129.565 203.069 127.454 203.652 126.068 204.027C125.421 204.195 124.721 204.403 124.514 204.48C124.294 204.558 123.685 204.739 123.155 204.869C122.624 205.011 121.575 205.296 120.824 205.516C120.072 205.736 118.946 206.047 118.298 206.216C117.664 206.384 116.408 206.734 115.514 207.006C113.921 207.472 112.264 207.938 110.852 208.314C110.464 208.417 109.531 208.676 108.78 208.896C107.394 209.285 106.345 209.583 103.794 210.295C103.017 210.515 101.878 210.839 101.269 211.02C97.8243 212.004 96.3092 212.393 96.1408 212.328C95.9854 212.263 95.9595 211.175 95.9595 204.675V197.099L96.2574 196.969C96.5423 196.84 109.557 193.097 111.823 192.489C112.471 192.307 113.338 192.061 113.766 191.932C115.074 191.53 116.045 191.245 117.198 190.922C118.777 190.481 120.966 189.873 122.248 189.523C123.841 189.07 125.188 188.681 126.081 188.409C126.509 188.28 127.273 188.047 127.765 187.917C128.257 187.775 129.306 187.49 130.083 187.257C130.873 187.037 132.038 186.713 132.699 186.545C133.346 186.376 133.994 186.182 134.136 186.104C134.279 186.027 134.874 185.858 135.47 185.716C136.066 185.586 136.817 185.379 137.141 185.275C137.918 185.004 139.472 184.563 140.508 184.317C140.974 184.214 141.621 184.006 141.958 183.877C142.295 183.734 142.696 183.631 142.864 183.631C143.033 183.631 143.654 183.45 144.263 183.242C144.859 183.022 145.467 182.854 145.597 182.854C145.817 182.854 147.721 182.271 148.796 181.883C149.042 181.792 149.404 181.714 149.585 181.701L149.922 181.688L150.013 189.355ZM22.7143 194.107C22.9863 194.25 23.5043 194.431 23.8669 194.509C24.2424 194.587 24.9935 194.794 25.5504 194.962C26.1072 195.143 26.7418 195.286 26.9749 195.286C27.208 195.286 27.713 195.441 28.1015 195.623C28.49 195.804 29.1375 195.985 29.526 196.024C29.9145 196.063 30.4196 196.192 30.6527 196.322C30.8728 196.451 31.5074 196.633 32.0772 196.71C32.634 196.801 33.2686 196.982 33.5017 197.112C33.7348 197.241 34.1362 197.384 34.4082 197.423C35.4442 197.591 36.1435 197.785 36.6097 198.018C36.8687 198.148 37.3608 198.264 37.6845 198.264C38.0083 198.264 38.5004 198.381 38.7982 198.51C39.0961 198.64 39.7565 198.847 40.2745 198.964C40.7925 199.08 41.3753 199.261 41.5695 199.365C41.7767 199.469 42.3595 199.624 42.8904 199.702C43.4084 199.779 44.1077 199.961 44.4444 200.09C44.7811 200.22 45.4027 200.388 45.8301 200.453C46.2445 200.518 46.8531 200.686 47.151 200.828C47.4618 200.971 48.1611 201.152 48.692 201.23C49.223 201.321 49.7928 201.476 49.9611 201.58C50.1295 201.683 50.6216 201.839 51.0619 201.903C51.5022 201.981 52.1238 202.149 52.4475 202.292C52.7713 202.434 53.3799 202.616 53.8073 202.68C54.2346 202.758 55.0246 202.952 55.5555 203.121C56.0865 203.289 57.0836 203.574 57.757 203.755C58.4304 203.936 59.5441 204.234 60.2175 204.429C60.8909 204.61 61.8104 204.843 62.2507 204.934C62.691 205.037 63.1701 205.18 63.3126 205.257C63.455 205.322 64.0248 205.477 64.5817 205.594C65.1385 205.711 65.7083 205.879 65.8637 205.97C66.0062 206.06 66.4206 206.177 66.7702 206.229C67.1199 206.28 67.9357 206.488 68.5703 206.682C69.671 207.019 70.3315 207.2 72.1963 207.666C72.6236 207.783 73.4395 208.003 74.0093 208.171C75.0064 208.456 76.9878 209.013 78.736 209.479C81.08 210.101 81.8311 210.308 82.362 210.476C82.6858 210.58 83.3203 210.761 83.7865 210.878C84.2527 210.994 85.2758 211.266 86.0528 211.473C86.8427 211.681 87.8917 211.965 88.3967 212.095C88.8888 212.237 89.6788 212.458 90.145 212.613C90.5982 212.755 91.2069 212.911 91.4918 212.963C92.3206 213.092 93.9264 213.675 94.1983 213.934C94.4444 214.167 94.4444 214.426 94.289 226.003C94.0688 242.23 93.9134 250.595 93.8357 250.686C93.7839 250.725 92.5796 250.427 91.1292 250.025C87.7492 249.093 68.1947 243.654 36.9723 234.965C31.9865 233.566 26.4957 232.051 24.7734 231.572L21.6395 230.704L21.6006 228.567C21.5747 227.389 21.5359 219.14 21.5229 210.217C21.497 194.846 21.51 194.004 21.7172 193.952C22.1316 193.848 22.2093 193.861 22.7143 194.107ZM193.693 194.625C194.03 194.962 194.496 195.351 194.703 195.467C194.923 195.597 195.39 195.856 195.739 196.076C196.568 196.555 196.477 196.516 197.617 196.905C199.896 197.682 201.437 198.109 202.538 198.264C203.069 198.342 203.833 198.446 204.222 198.523C206.604 198.938 208.197 199.041 212.056 199.041C215.928 199.041 218.143 198.925 219.632 198.653C220.021 198.588 220.927 198.433 221.639 198.329C223.88 197.966 227.052 197.021 228.438 196.283C229.746 195.597 230.536 195.105 230.601 194.949C230.678 194.755 231.533 194.069 231.611 194.146C231.766 194.289 234.654 203.017 235.379 205.516C237.102 211.383 237.438 212.924 237.645 215.682C237.801 217.728 237.801 217.78 237.451 219.606C236.92 222.312 236.014 225.252 235.366 226.301C233.929 228.632 232.828 229.811 230.899 231.093C229.552 231.999 227.791 232.867 225.848 233.592C225.019 233.89 224.579 234.019 222.352 234.537C219.567 235.198 212.354 235.612 208.884 235.314C205.387 235.016 204.765 234.926 202.668 234.473C200.207 233.942 199.806 233.825 197.656 232.957C195.545 232.116 193.512 230.898 192.152 229.642C190.482 228.114 189.433 226.677 188.552 224.682C188.254 224.009 187.866 223.128 187.684 222.74C187.244 221.73 186.998 219.904 186.998 217.495C186.998 215.462 187.348 211.94 187.646 210.955C187.71 210.709 187.866 210.01 187.982 209.401C188.086 208.793 188.293 207.86 188.435 207.329C188.889 205.672 189.471 203.677 189.743 202.862C189.873 202.434 190.106 201.735 190.236 201.308C190.546 200.285 190.961 199.054 191.336 198.005C191.841 196.568 192.191 195.506 192.372 194.871C192.683 193.771 192.826 193.745 193.693 194.625ZM146.698 211.37C146.672 217.806 146.646 226.068 146.62 229.746L146.594 236.428L146.102 236.635C145.843 236.752 145.066 236.998 144.393 237.179C143.719 237.36 142.644 237.645 141.997 237.827C141.362 238.008 140.21 238.332 139.446 238.539C137.723 239.018 135.612 239.601 134.162 240.015C133.553 240.183 132.427 240.507 131.637 240.727C130.86 240.948 129.047 241.453 127.622 241.854C126.198 242.255 124.424 242.748 123.673 242.955C122.921 243.162 121.821 243.473 121.212 243.641C118.013 244.535 99.715 249.65 97.7855 250.194C96.5423 250.543 95.4804 250.802 95.4027 250.751C95.1955 250.621 95.5451 214.037 95.7653 213.83C95.7912 213.804 96.1408 213.701 96.5682 213.61C96.9826 213.519 97.6689 213.325 98.0963 213.183C98.9251 212.911 99.4172 212.781 101.075 212.354C101.645 212.211 102.37 211.978 102.694 211.862C103.017 211.732 103.509 211.59 103.794 211.538C104.079 211.486 104.869 211.279 105.543 211.085C106.216 210.891 107.032 210.657 107.356 210.58C107.679 210.489 108.547 210.243 109.298 210.023C110.049 209.816 111.241 209.479 111.953 209.272C112.665 209.078 113.779 208.754 114.413 208.573C115.061 208.391 116.187 208.067 116.939 207.873C117.69 207.666 118.946 207.303 119.723 207.083C120.513 206.85 121.678 206.526 122.313 206.358C122.96 206.19 124.087 205.866 124.838 205.646C125.589 205.426 126.664 205.141 127.234 204.998C128.205 204.752 128.853 204.558 131.378 203.794C131.948 203.613 132.763 203.405 133.191 203.302C133.618 203.211 134.033 203.095 134.11 203.043C134.175 202.978 134.706 202.823 135.276 202.693C136.506 202.395 138.461 201.851 139.536 201.502C139.964 201.359 140.546 201.217 140.831 201.165C141.116 201.113 141.634 200.971 141.984 200.828C142.333 200.699 142.916 200.518 143.279 200.44C143.641 200.375 144.354 200.168 144.846 200C145.351 199.831 145.972 199.689 146.244 199.689H146.724L146.698 211.37Z" fill="#282627"/>
<path d="M74.6956 48.1739C74.4237 48.3811 74.333 48.5883 74.2812 49.1192C74.2424 49.4818 74.1906 55.8921 74.1517 63.3513L74.0999 76.9229L74.5014 77.3632C74.8251 77.6999 75.1748 77.8942 75.9906 78.1402C76.5863 78.3215 77.1302 78.4769 77.2209 78.4769C77.3115 78.4769 77.8425 78.6194 78.4123 78.7877C80.3548 79.3705 81.3908 79.6683 82.362 79.9014C82.893 80.0309 83.7736 80.264 84.3045 80.4324C84.8355 80.5878 85.742 80.8468 86.3118 81.0022C86.8816 81.1705 87.7881 81.4166 88.319 81.5849C88.85 81.7403 89.5234 81.9216 89.8083 81.9864C90.0932 82.0641 90.7666 82.2583 91.2975 82.4267C91.8285 82.595 92.6184 82.8022 93.0328 82.867C93.4602 82.9447 93.9264 83.0871 94.0818 83.1907C94.2242 83.2814 94.6775 83.4368 95.0789 83.5145C95.9854 83.7087 96.2833 83.5792 96.4775 82.9058C96.5552 82.595 96.607 77.7258 96.607 68.4795V54.5453L96.2056 54.2086C95.5969 53.6906 95.1955 53.5222 94.3408 53.4186C93.9134 53.3668 93.4602 53.2373 93.3436 53.1337C93.2271 53.0172 92.6055 52.8488 91.9839 52.7452C91.3623 52.6416 90.7407 52.4604 90.6241 52.3567C90.5076 52.2531 89.9637 52.0848 89.4198 51.9941C88.8759 51.8905 88.2931 51.7222 88.1248 51.6186C87.9564 51.502 87.3866 51.3466 86.8686 51.2689C86.3506 51.1912 85.7679 51.0488 85.5736 50.9452C85.3794 50.8416 84.9132 50.6992 84.5376 50.6344C84.1621 50.5567 83.4757 50.3624 83.0095 50.1941C82.5433 50.0257 81.844 49.8315 81.4426 49.7538C81.0411 49.6761 80.4454 49.4948 80.1217 49.3523C79.7979 49.1969 79.4094 49.0804 79.254 49.0804C79.0986 49.0804 78.5547 48.938 78.0497 48.7696C77.5317 48.6012 76.7676 48.3681 76.3403 48.2516C75.9129 48.148 75.4467 48.0185 75.3043 47.9796C75.1359 47.9278 74.9028 48.0056 74.6956 48.1739ZM77.6871 49.9092C78.7231 50.22 83.0743 51.515 87.3478 52.7841C91.6213 54.0402 95.1955 55.141 95.2861 55.2057C95.4286 55.3223 95.4415 57.7569 95.3638 68.6867C95.325 76.0294 95.2473 82.077 95.1955 82.1159C95.1566 82.1677 93.4602 81.7403 91.427 81.1705C87.7881 80.1604 82.8412 78.7877 81.1965 78.3474C79.8497 77.9848 77.5964 77.3503 76.4698 77.0136L75.4338 76.7157L75.3949 71.7429C75.3302 64.1542 75.5115 49.3394 75.6539 49.3394C75.7316 49.3394 76.6381 49.5984 77.6871 49.9092Z" fill="#282627"/>
<path d="M77.7 53.8587C77.4022 54.4285 78.0238 54.7134 81.585 55.6847C82.0512 55.8142 83.152 56.125 84.0455 56.3969C84.9391 56.6559 86.1305 57.0056 86.7003 57.1739C87.2701 57.3293 88.7982 57.7567 90.1061 58.1322C92.722 58.8833 93.1494 58.9092 93.2141 58.3912C93.24 58.2099 93.1753 58.0027 93.0846 57.925C92.994 57.8473 92.1004 57.5495 91.1033 57.2646C90.1061 56.9797 88.5651 56.5264 87.6715 56.2674C86.778 55.9955 85.6772 55.6847 85.211 55.5552C84.7448 55.4257 83.0354 54.9336 81.4037 54.4674C79.7591 54.0012 78.2957 53.6127 78.1274 53.6127C77.972 53.6127 77.7777 53.7292 77.7 53.8587Z" fill="#282627"/>
<path d="M77.8425 57.0962C77.7259 57.2905 77.7259 57.4459 77.8295 57.6272C77.9072 57.7696 77.9979 57.8862 78.0238 57.8862C78.0497 57.8862 79.3447 58.2747 80.8987 58.7409C87.5032 60.7222 87.4125 60.7093 87.4125 59.9582C87.4125 59.479 87.5679 59.5438 84.1103 58.5337C82.621 58.0934 80.8598 57.5624 80.1994 57.3552C78.4382 56.8113 78.0108 56.7595 77.8425 57.0962Z" fill="#282627"/>
<path d="M185.897 100.104C185.548 100.233 184.576 100.557 183.76 100.803C182.323 101.243 178.166 102.538 176.34 103.108C175.861 103.263 175.343 103.509 175.188 103.652L174.916 103.911L175.006 111.02C175.058 115.255 175.149 118.234 175.226 118.376C175.421 118.752 175.913 118.803 176.793 118.518C177.247 118.376 178.257 118.065 179.034 117.845C179.824 117.625 181.015 117.275 181.688 117.068C182.362 116.874 183.566 116.524 184.343 116.291C187.063 115.501 188.163 115.113 188.293 114.867C188.371 114.724 188.371 113.856 188.293 112.523C188.228 111.357 188.086 108.158 187.969 105.413C187.801 101.567 187.71 100.362 187.568 100.129C187.335 99.7798 186.804 99.7668 185.897 100.104ZM186.661 102.46C186.804 104.882 186.998 109.984 187.011 111.979C187.037 113.688 187.011 113.999 186.817 114.206C186.571 114.465 186.001 114.659 181.688 115.903C180.16 116.343 178.36 116.874 177.687 117.081C177.014 117.301 176.418 117.418 176.366 117.366C176.314 117.314 176.224 114.374 176.172 110.826L176.081 104.403L178.593 103.6C179.979 103.16 182.245 102.434 183.631 101.981C185.017 101.528 186.247 101.165 186.376 101.152C186.558 101.139 186.597 101.347 186.661 102.46Z" fill="#282627"/>
<path d="M46.7495 149.119C45.9984 149.21 45.1826 149.352 44.9365 149.43C44.6905 149.508 44.1595 149.624 43.7451 149.689C43.3437 149.754 42.7091 149.961 42.3206 150.129C41.9451 150.298 41.5048 150.479 41.3494 150.531C41.194 150.583 40.8573 150.855 40.5983 151.152C40.158 151.632 40.1191 151.722 40.1839 152.266C40.2357 152.771 40.3393 152.94 40.8184 153.354C41.1163 153.613 41.5566 153.898 41.7638 153.976C41.9839 154.053 42.4501 154.235 42.7998 154.377C43.8099 154.778 47.7208 155.387 49.9223 155.478C52.849 155.607 57.9124 155.012 59.311 154.377C59.6348 154.235 60.0103 154.105 60.1398 154.105C60.5154 154.105 61.6809 153.173 61.9528 152.655C62.173 152.253 62.1859 152.137 62.0435 151.787C61.9528 151.567 61.6291 151.191 61.3312 150.958C60.7096 150.44 59.052 149.702 58.534 149.702C58.3398 149.702 57.8088 149.585 57.3556 149.456C56.9023 149.326 55.8145 149.145 54.9469 149.067C52.9008 148.886 48.4719 148.912 46.7495 149.119Z" fill="#282627"/>
<path d="M131.637 190.067C131.287 190.17 130.795 190.339 130.562 190.442C130.329 190.546 129.733 190.701 129.241 190.805C128.749 190.909 128.153 191.077 127.92 191.193C127.687 191.297 127.286 191.427 127.04 191.465C126.793 191.517 126.185 191.686 125.68 191.854C125.188 192.009 124.488 192.216 124.126 192.294C123.776 192.372 123.271 192.527 123.025 192.631C122.455 192.851 120.526 193.408 119.27 193.719C118.739 193.848 118.156 194.029 117.987 194.12C117.819 194.211 117.314 194.353 116.874 194.444C113.999 195.053 112.51 197.474 113.559 199.831C113.805 200.388 114.245 200.841 115.229 201.592C115.825 202.046 117.133 202.11 118.363 201.761C118.894 201.605 119.736 201.385 120.215 201.243C120.694 201.113 121.16 200.958 121.251 200.88C121.342 200.815 121.782 200.686 122.248 200.595C122.714 200.504 123.414 200.297 123.802 200.142C124.191 199.986 124.747 199.805 125.032 199.766C125.589 199.663 126.327 199.456 128.555 198.73C129.358 198.471 130.122 198.264 130.251 198.264C130.394 198.264 130.756 198.173 131.067 198.057C131.378 197.953 132.194 197.694 132.867 197.487C134.81 196.904 135.094 196.775 135.807 196.14C136.946 195.117 137.244 193.848 136.752 192.113C136.558 191.465 135.237 190.17 134.563 189.976C133.903 189.795 132.388 189.834 131.637 190.067Z" fill="#282627"/>
</svg>
