<svg width="114" height="137" viewBox="0 0 114 137" fill="none" xmlns="http://www.w3.org/2000/svg">
<path d="M2.32227 16.0712L57.9539 0.636719L112.087 15.9588L56.905 32.255L2.32227 16.0712Z" fill="#F2622E"/>
<path d="M57.2051 32.2927L113.062 16.2588L112 120.5L57.2051 136.401V32.2927Z" fill="#F2622E"/>
<path d="M0.936523 15.959L57.5797 0L59.0032 0.487011L2.88457 16.4085L0.936523 15.959Z" fill="#F2F2F2"/>
<path d="M28.0596 24.4252L84.7776 7.9043L86.3511 8.35385L30.2324 24.9497L28.0596 24.4252Z" fill="#F2F2F2"/>
<path d="M55.0322 32.2551L111.9 15.5469L112.237 15.5843L112.574 15.6593L112.912 15.7716L113.099 15.884L113.249 15.9964L113.361 16.2212V16.4834L57.205 32.7796L55.0322 32.2551Z" fill="#F2F2F2"/>
<path d="M54.4707 136.475L112.95 120.029L113.099 120.104V120.217V120.329V120.441V120.554V120.704L112.912 120.853L56.6435 137L54.4707 136.475Z" fill="#F2F2F2"/>
<path d="M0.449549 16.6268L0.674323 16.2628L0.974022 15.9595L1.7982 16.2628L1.1988 121.828L0.824173 121.707L0.449549 121.464L0.262237 121.343L0.14985 121.1L0.0374624 120.797L0 120.493L0.449549 16.6268Z" fill="#F2F2F2"/>
<path d="M1.79758 15.9966L58.4782 32.2927L57.3543 32.8547L1.72266 16.9706L1.79758 15.9966Z" fill="#F2F2F2"/>
<rect x="56.6426" y="32.1426" width="1.04895" height="103.921" fill="#F2F2F2"/>
<path d="M0.449219 120.554L56.8676 135.726L56.7927 137L0.711456 121.753L0.449219 120.554Z" fill="#F2F2F2"/>
<path d="M112.686 16.6384L113.372 16.3335L113.098 120.554L112.087 120.704L112.686 16.6384Z" fill="#F2F2F2"/>
<path d="M57.5792 0L112.761 15.7342L112.424 16.5958L57.4668 0.899098L57.5792 0Z" fill="#F2F2F2"/>
<path d="M84.1396 31.4685L107.216 24.5005V50.387L84.1396 58.4414V31.4685Z" fill="#EFEFEF"/>
<path d="M83.8687 31.4341C83.8138 31.2914 83.8928 31.1323 84.0397 31.0898L106.892 24.4882C107.125 24.4208 107.355 24.6031 107.343 24.8456C107.336 24.9975 107.232 25.1275 107.085 25.1686L84.1826 31.5916C84.053 31.628 83.917 31.5597 83.8687 31.4341Z" fill="#F2F2F2"/>
<path d="M86.1107 34.1344C86.0162 33.8405 86.182 33.5263 86.478 33.4384L95.3751 30.7971C95.4755 30.7673 95.5823 30.7672 95.6827 30.7967C96.201 30.9492 96.2026 31.6828 95.6849 31.8374L86.7921 34.4933C86.5051 34.579 86.2023 34.4195 86.1107 34.1344Z" fill="#F2F2F2"/>
<path d="M86.1478 36.3502C86.0533 36.0563 86.2191 35.7421 86.5151 35.6543L95.4122 33.0129C95.5126 32.9831 95.6194 32.983 95.7198 33.0125C96.2381 33.165 96.2397 33.8986 95.722 34.0532L86.8292 36.7091C86.5423 36.7948 86.2394 36.6353 86.1478 36.3502Z" fill="#F2F2F2"/>
<path d="M84.3135 58.2456C84.2602 58.1071 84.3331 57.9521 84.4737 57.9048L107.257 50.2372C107.427 50.1803 107.604 50.2989 107.616 50.4771C107.624 50.6004 107.548 50.7139 107.431 50.7532L84.6398 58.3992C84.5075 58.4436 84.3636 58.3759 84.3135 58.2456Z" fill="#F2F2F2"/>
<rect x="83.8408" y="31.1689" width="0.674323" height="27.2726" rx="0.337162" fill="#F2F2F2"/>
<rect x="106.843" y="24.5005" width="0.674323" height="26.0738" rx="0.337162" fill="#F2F2F2"/>
<path d="M1.38686 16.7832L56.6814 32.6673V136.138L0.75 121.079L1.38686 16.7832Z" fill="#F2622E"/>
</svg>
