<svg width="24" height="24" viewBox="0 0 24 24" fill="none" xmlns="http://www.w3.org/2000/svg">
<g clip-path="url(#clip0_18_2957)">
<path d="M12.0009 0.959961C5.9094 0.959961 0.960938 5.90842 0.960938 12C0.960938 18.0915 5.9094 23.04 12.0009 23.04C18.0925 23.04 23.0409 18.0915 23.0409 12C23.0409 5.90842 18.0925 0.959961 12.0009 0.959961ZM12.0009 1.91996C17.5737 1.91996 22.0809 6.42725 22.0809 12C22.0809 17.5727 17.5737 22.08 12.0009 22.08C6.42822 22.08 1.92094 17.5727 1.92094 12C1.92094 6.42725 6.42822 1.91996 12.0009 1.91996ZM11.5209 6.23996V11.52H6.24094V12.48H11.5209V17.76H12.4809V12.48H17.7609V11.52H12.4809V6.23996H11.5209Z" fill="black"/>
</g>
<defs>
<clipPath id="clip0_18_2957">
<rect width="24" height="24" fill="white"/>
</clipPath>
</defs>
</svg>
