<svg width="24" height="24" viewBox="0 0 24 24" fill="none" xmlns="http://www.w3.org/2000/svg">
<g clip-path="url(#clip0_980_828)">
<path d="M15.6958 21.1224H20.5982C21.0286 21.1224 21.3698 20.9822 21.6219 20.7018C21.874 20.4215 22 20.0462 22 19.576V8.73497C22 8.26484 21.874 7.88959 21.6219 7.60922C21.3698 7.32885 21.0286 7.18866 20.5982 7.18866H16.1121V19.576C16.1121 19.8649 16.0767 20.1382 16.0059 20.3959C15.9351 20.6537 15.8318 20.8958 15.6958 21.1224ZM18.0408 11.4877V10.1283C18.0408 9.93009 18.1399 9.83097 18.3381 9.83097H19.7485C19.9468 9.83097 20.0459 9.93009 20.0459 10.1283V11.4877C20.0459 11.6916 19.9468 11.7936 19.7485 11.7936H18.3381C18.1399 11.7936 18.0408 11.6916 18.0408 11.4877ZM18.0408 14.8352V13.4758C18.0408 13.2776 18.1399 13.1784 18.3381 13.1784H19.7485C19.9468 13.1784 20.0459 13.2776 20.0459 13.4758V14.8352C20.0459 15.0334 19.9468 15.1326 19.7485 15.1326H18.3381C18.1399 15.1326 18.0408 15.0334 18.0408 14.8352ZM18.0408 18.1827V16.8233C18.0408 16.6194 18.1399 16.5174 18.3381 16.5174H19.7485C19.9468 16.5174 20.0459 16.6194 20.0459 16.8233V18.1827C20.0459 18.381 19.9468 18.4801 19.7485 18.4801H18.3381C18.1399 18.4801 18.0408 18.381 18.0408 18.1827ZM2 19.576C2 20.0462 2.12603 20.4215 2.37808 20.7018C2.63013 20.9822 2.97423 21.1224 3.41036 21.1224H13.5378C13.9739 21.1224 14.318 20.9822 14.57 20.7018C14.8221 20.4215 14.9482 20.0462 14.9482 19.576V4.55485C14.9482 4.07906 14.8221 3.7024 14.57 3.42486C14.318 3.14732 13.9739 3.00854 13.5378 3.00854H3.41036C2.97423 3.00854 2.63013 3.14732 2.37808 3.42486C2.12603 3.7024 2 4.07906 2 4.55485V19.576ZM5.53441 19.7545V16.9933C5.53441 16.795 5.59388 16.6378 5.71283 16.5217C5.83178 16.4056 5.98754 16.3475 6.18012 16.3475H10.8445C11.0427 16.3475 11.1999 16.4056 11.316 16.5217C11.4322 16.6378 11.4902 16.795 11.4902 16.9933V19.7545H5.53441ZM5.25403 7.57099V5.92274C5.25403 5.67917 5.37014 5.55739 5.60237 5.55739H7.30161C7.54517 5.55739 7.66694 5.67917 7.66694 5.92274V7.57099C7.66694 7.81455 7.54517 7.93633 7.30161 7.93633H5.60237C5.37014 7.93633 5.25403 7.81455 5.25403 7.57099ZM9.35768 7.57099V5.92274C9.35768 5.67917 9.47663 5.55739 9.71452 5.55739H11.4052C11.6488 5.55739 11.7706 5.67917 11.7706 5.92274V7.57099C11.7706 7.81455 11.6488 7.93633 11.4052 7.93633H9.71452C9.47663 7.93633 9.35768 7.81455 9.35768 7.57099ZM5.25403 11.0374V9.38917C5.25403 9.14561 5.37014 9.02383 5.60237 9.02383H7.30161C7.54517 9.02383 7.66694 9.14561 7.66694 9.38917V11.0374C7.66694 11.281 7.54517 11.4028 7.30161 11.4028H5.60237C5.37014 11.4028 5.25403 11.281 5.25403 11.0374ZM9.35768 11.0374V9.38917C9.35768 9.14561 9.47663 9.02383 9.71452 9.02383H11.4052C11.6488 9.02383 11.7706 9.14561 11.7706 9.38917V11.0374C11.7706 11.281 11.6488 11.4028 11.4052 11.4028H9.71452C9.47663 11.4028 9.35768 11.281 9.35768 11.0374ZM5.25403 14.5039V12.8556C5.25403 12.612 5.37014 12.4903 5.60237 12.4903H7.30161C7.54517 12.4903 7.66694 12.612 7.66694 12.8556V14.5039C7.66694 14.7474 7.54517 14.8692 7.30161 14.8692H5.60237C5.37014 14.8692 5.25403 14.7474 5.25403 14.5039ZM9.35768 14.5039V12.8556C9.35768 12.612 9.47663 12.4903 9.71452 12.4903H11.4052C11.6488 12.4903 11.7706 12.612 11.7706 12.8556V14.5039C11.7706 14.7474 11.6488 14.8692 11.4052 14.8692H9.71452C9.47663 14.8692 9.35768 14.7474 9.35768 14.5039Z" fill="black" fill-opacity="0.85"/>
</g>
<defs>
<clipPath id="clip0_980_828">
<rect width="20" height="18.1223" fill="white" transform="translate(2 3)"/>
</clipPath>
</defs>
</svg>
