<svg width="24" height="24" viewBox="0 0 24 24" fill="none" xmlns="http://www.w3.org/2000/svg">
<g clip-path="url(#clip0_1027_810)">
<path d="M4.25518 19.2453C4.37237 19.356 4.50583 19.4309 4.65557 19.4699C4.80531 19.509 4.95505 19.509 5.10479 19.4699C5.25453 19.4309 5.38474 19.356 5.49541 19.2453L11.7454 12.9954L17.9954 19.2453C18.1061 19.356 18.2363 19.4309 18.386 19.4699C18.5357 19.509 18.6871 19.5106 18.8401 19.4748C18.9931 19.439 19.1249 19.3625 19.2356 19.2453C19.3463 19.1347 19.4196 19.0045 19.4554 18.8547C19.4912 18.705 19.4912 18.5553 19.4554 18.4055C19.4196 18.2558 19.3463 18.1256 19.2356 18.0148L12.9857 11.7551L19.2356 5.50513C19.3463 5.39445 19.4212 5.26424 19.4603 5.11451C19.4994 4.96476 19.4994 4.81502 19.4603 4.66528C19.4212 4.51554 19.3463 4.38534 19.2356 4.27466C19.1185 4.15747 18.985 4.08097 18.8353 4.04517C18.6855 4.00936 18.5357 4.00936 18.386 4.04517C18.2363 4.08097 18.1061 4.15747 17.9954 4.27466L11.7454 10.5247L5.49541 4.27466C5.38474 4.15747 5.2529 4.08097 5.09991 4.04517C4.94691 4.00936 4.79554 4.00936 4.64581 4.04517C4.49607 4.08097 4.36586 4.15747 4.25518 4.27466C4.1445 4.38534 4.07126 4.51554 4.03545 4.66528C3.99965 4.81502 3.99965 4.96476 4.03545 5.11451C4.07126 5.26424 4.1445 5.39445 4.25518 5.50513L10.5052 11.7551L4.25518 18.0148C4.1445 18.1256 4.06963 18.2558 4.03057 18.4055C3.99151 18.5553 3.98988 18.705 4.02569 18.8547C4.0615 19.0045 4.13799 19.1347 4.25518 19.2453Z" fill="#333333"/>
</g>
<defs>
<clipPath id="clip0_1027_810">
<rect width="15.4896" height="15.5006" fill="white" transform="translate(4 4)"/>
</clipPath>
</defs>
</svg>
