<svg width="24" height="24" viewBox="0 0 24 24" fill="none" xmlns="http://www.w3.org/2000/svg">
<g clip-path="url(#clip0_979_1115)">
<path d="M5.48085 16.9064C5.23121 16.9064 5.02979 16.8298 4.8766 16.6766C4.72341 16.5235 4.64681 16.3277 4.64681 16.0894V14.515C4.64681 14.2709 4.72341 14.0738 4.8766 13.9235C5.02979 13.7731 5.23121 13.6979 5.48085 13.6979H7.56596C7.81561 13.6979 8.01703 13.7731 8.17022 13.9235C8.32341 14.0738 8.40001 14.2709 8.40001 14.515V16.0894C8.40001 16.3277 8.32341 16.5235 8.17022 16.6766C8.01703 16.8298 7.81561 16.9064 7.56596 16.9064H5.48085ZM2 10.3703V8.43833H22V10.3703H2ZM4.67235 19.5448H19.3277C20.2184 19.5448 20.8865 19.3249 21.3319 18.8851C21.7773 18.4454 22 17.7887 22 16.915V7.64685C22 6.77308 21.7773 6.11493 21.3319 5.67237C20.8865 5.22982 20.2184 5.00854 19.3277 5.00854H4.67235C3.78156 5.00854 3.11347 5.2284 2.66809 5.66812C2.2227 6.10784 2 6.76741 2 7.64685V16.915C2 17.7887 2.2227 18.4454 2.66809 18.8851C3.11347 19.3249 3.78156 19.5448 4.67235 19.5448Z" fill="black" fill-opacity="0.85"/>
</g>
<defs>
<clipPath id="clip0_979_1115">
<rect width="20" height="14.5447" fill="white" transform="translate(2 5)"/>
</clipPath>
</defs>
</svg>
