<svg width="24" height="24" viewBox="0 0 24 24" fill="none" xmlns="http://www.w3.org/2000/svg">
<path d="M4.5173 16.2976C4.43023 15.9493 4.07732 15.7375 3.72906 15.8246C3.38079 15.9117 3.16904 16.2646 3.25611 16.6128L4.5173 16.2976ZM5.51899 20.3646L5.11897 20.8769L5.11897 20.8769L5.51899 20.3646ZM20.1591 16.4552L20.7897 16.6129L20.7897 16.6128L20.1591 16.4552ZM20.5452 10.1538L20.0328 10.5538L20.0329 10.5538L20.5452 10.1538ZM3.50061 10.1538L4.01293 10.5538L4.01295 10.5538L3.50061 10.1538ZM2.46468 13.1016C2.52079 13.4562 2.85372 13.6981 3.20829 13.642C3.56286 13.5859 3.80481 13.253 3.74869 12.8984L2.46468 13.1016ZM18.8123 6.89464L18.1852 7.06562L18.1852 7.06563L18.8123 6.89464ZM18.1205 5.00945L18.6423 4.62194L18.6423 4.62189L18.1205 5.00945ZM17.0235 4.17151L17.2601 3.56612L17.2601 3.5661L17.0235 4.17151ZM5.2331 6.89464L5.8602 7.06563L5.8602 7.06563L5.2331 6.89464ZM5.92491 5.00945L5.40307 4.62191L5.40307 4.62192L5.92491 5.00945ZM7.02192 4.17151L6.7853 3.56611L6.7853 3.56611L7.02192 4.17151ZM3.25611 16.6128C3.52511 17.6888 3.73973 18.5518 3.99489 19.2215C4.25629 19.9077 4.58405 20.4593 5.11897 20.8769L5.91902 19.8523C5.64015 19.6345 5.42461 19.3228 5.20972 18.7587C4.98861 18.1783 4.79397 17.4043 4.5173 16.2976L3.25611 16.6128ZM5.11897 20.8769C5.6539 21.2946 6.26853 21.4788 6.99757 21.566C7.70925 21.6511 8.59846 21.65 9.70756 21.65V20.35C8.5668 20.35 7.76863 20.3489 7.15193 20.2752C6.55259 20.2035 6.19788 20.07 5.91902 19.8523L5.11897 20.8769ZM9.70756 21.65H14.3382V20.35H9.70756V21.65ZM14.3382 21.65C15.4473 21.65 16.3365 21.6511 17.0482 21.566C17.7773 21.4788 18.3919 21.2946 18.9268 20.8769L18.1268 19.8523C17.8479 20.07 17.4932 20.2035 16.8939 20.2752C16.2772 20.3489 15.479 20.35 14.3382 20.35V21.65ZM18.9268 20.8769C19.4617 20.4593 19.7895 19.9077 20.0509 19.2215C20.3061 18.5518 20.5207 17.6888 20.7897 16.6129L19.5285 16.2975C19.2518 17.4043 19.0572 18.1783 18.8361 18.7587C18.6212 19.3228 18.4056 19.6345 18.1268 19.8523L18.9268 20.8769ZM20.7897 16.6128C21.2137 14.9168 21.5506 13.5759 21.6583 12.516C21.7678 11.4391 21.6566 10.5211 21.0575 9.75378L20.0329 10.5538C20.3345 10.9402 20.4593 11.457 20.365 12.3845C20.269 13.3289 19.9624 14.5618 19.5285 16.2976L20.7897 16.6128ZM21.0575 9.7538C20.4584 8.98644 19.5948 8.6559 18.5235 8.50092C17.4691 8.34838 16.0865 8.35 14.3382 8.35V9.65C16.1274 9.65 17.3979 9.65162 18.3374 9.78753C19.26 9.921 19.7311 10.1674 20.0328 10.5538L21.0575 9.7538ZM14.3382 8.35H9.70756V9.65H14.3382V8.35ZM9.70756 8.35C7.95934 8.35 6.57675 8.34838 5.52231 8.50092C4.451 8.6559 3.58739 8.98644 2.98828 9.75379L4.01295 10.5538C4.31467 10.1674 4.78584 9.921 5.70844 9.78753C6.64791 9.65162 7.91837 9.65 9.70756 9.65V8.35ZM2.9883 9.75376C2.28505 10.6544 2.25285 11.7632 2.46468 13.1016L3.74869 12.8984C3.54966 11.6408 3.6586 11.0076 4.01293 10.5538L2.9883 9.75376ZM20.1498 9.329L19.4394 6.72365L18.1852 7.06563L18.8956 9.67098L20.1498 9.329ZM19.4394 6.72366C19.1802 5.77297 19.0141 5.12254 18.6423 4.62194L17.5986 5.39696C17.7887 5.65294 17.8966 6.00712 18.1852 7.06562L19.4394 6.72366ZM18.6423 4.62189C18.2898 4.14722 17.8107 3.78135 17.2601 3.56612L16.7868 4.7769C17.1102 4.90332 17.3916 5.11822 17.5987 5.39701L18.6423 4.62189ZM17.2601 3.5661C16.6793 3.33913 16.0081 3.34999 15.0227 3.34999V4.64999C16.1199 4.64999 16.4899 4.66086 16.7869 4.77692L17.2601 3.5661ZM5.1498 9.67098L5.8602 7.06563L4.60599 6.72365L3.89559 9.329L5.1498 9.67098ZM5.8602 7.06563C6.14884 6.00707 6.25666 5.65295 6.44675 5.39699L5.40307 4.62192C5.0313 5.12253 4.8652 5.77301 4.60599 6.72365L5.8602 7.06563ZM6.44674 5.39699C6.65378 5.11821 6.93511 4.90332 7.25853 4.77692L6.7853 3.56611C6.2346 3.78134 5.75559 4.14723 5.40307 4.62191L6.44674 5.39699ZM7.25853 4.77692C7.55548 4.66086 7.92548 4.64999 9.02269 4.64999V3.34999C8.03735 3.34999 7.36608 3.33912 6.7853 3.56611L7.25853 4.77692ZM9.67269 3.99999C9.67269 3.80671 9.8294 3.65 10.0227 3.65V2.35C9.11146 2.35 8.37269 3.08871 8.37269 3.99999H9.67269ZM10.0227 3.65H14.0227V2.35H10.0227V3.65ZM14.0227 3.65C14.216 3.65 14.3727 3.80668 14.3727 3.99999H15.6727C15.6727 3.08874 14.934 2.35 14.0227 2.35V3.65ZM14.3727 3.99999C14.3727 4.19331 14.216 4.35 14.0227 4.35V5.65C14.934 5.65 15.6727 4.91123 15.6727 3.99999H14.3727ZM14.0227 4.35H10.0227V5.65H14.0227V4.35ZM10.0227 4.35C9.82941 4.35 9.67269 4.19328 9.67269 3.99999H8.37269C8.37269 4.91126 9.11145 5.65 10.0227 5.65V4.35Z" fill="black" fill-opacity="0.54"/>
</svg>
