<svg width="24" height="24" viewBox="0 0 24 24" fill="none" xmlns="http://www.w3.org/2000/svg">
<g clip-path="url(#clip0_962_9745)">
<path d="M4.2737 17.7318L11.4282 21.7863C11.9313 22.0712 12.4343 22.0712 12.9373 21.7863L20.0828 17.7318C20.5009 17.4954 20.8176 17.2227 21.0328 16.9136C21.2479 16.6045 21.3555 16.1257 21.3555 15.4772V8.27723C21.3555 7.80451 21.2661 7.41209 21.0873 7.09997C20.9085 6.78785 20.6282 6.5227 20.2464 6.30451L13.81 2.64997C13.2646 2.33482 12.7222 2.17725 12.1828 2.17725C11.6434 2.17725 11.0979 2.33482 10.5464 2.64997L4.11916 6.30451C3.73128 6.5227 3.44795 6.78785 3.26916 7.09997C3.09037 7.41209 3.00098 7.80451 3.00098 8.27723V15.4772C3.00098 16.1257 3.11007 16.6045 3.32825 16.9136C3.54643 17.2227 3.86158 17.4954 4.2737 17.7318ZM5.09188 16.5318C4.82522 16.3864 4.64037 16.2287 4.53734 16.059C4.43431 15.8893 4.3828 15.6803 4.3828 15.4318V8.56814L11.4646 12.6136V20.159L5.09188 16.5318ZM19.2737 16.5318L12.8919 20.159V12.6136L19.9737 8.56814V15.4318C19.9737 15.6803 19.9222 15.8893 19.8191 16.059C19.7161 16.2287 19.5343 16.3864 19.2737 16.5318ZM12.1828 11.3409L5.16461 7.36815L11.1555 3.94997C11.8464 3.55603 12.5313 3.55603 13.2101 3.94997L19.2009 7.36815L12.1828 11.3409Z" fill="#333333"/>
</g>
<defs>
<clipPath id="clip0_962_9745">
<rect width="18.3545" height="20" fill="white" transform="translate(3 2)"/>
</clipPath>
</defs>
</svg>
