<svg width="24" height="24" viewBox="0 0 24 24" fill="none" xmlns="http://www.w3.org/2000/svg">
<g clip-path="url(#clip0_728_1408)">
<path d="M20.8 11.6C20.8 15.8 16.88 19.2 12 19.2C11.16 19.2 10.36 19.12 9.60001 18.92C9.60001 18.92 8.08001 20.8 5.60001 20.8C6.80001 19.08 6.80001 17.72 6.80001 17.72C4.60001 16.32 3.20001 14.12 3.20001 11.6C3.20001 7.4 7.12001 4 12 4C16.88 4 20.8 7.4 20.8 11.6Z" fill="#F2622E"/>
<path d="M20.8 11.6C20.8 15.8 16.88 19.2 12 19.2C11.16 19.2 10.36 19.12 9.60001 18.92C9.60001 18.92 8.08001 20.8 5.60001 20.8C6.80001 19.08 6.80001 17.72 6.80001 17.72C4.60001 16.32 3.20001 14.12 3.20001 11.6C3.20001 7.4 7.12001 4 12 4C16.88 4 20.8 7.4 20.8 11.6Z" stroke="#F2622E" stroke-width="0.74344" stroke-miterlimit="10"/>
</g>
<defs>
<clipPath id="clip0_728_1408">
<rect width="24" height="24" fill="white"/>
</clipPath>
</defs>
</svg>
