<svg width="24" height="24" viewBox="0 0 24 24" fill="none" xmlns="http://www.w3.org/2000/svg">
<g clip-path="url(#clip0_962_9709)">
<path d="M8.0227 20.9999C8.22415 20.9999 8.40927 20.9453 8.57805 20.836C8.74684 20.7268 8.95373 20.5629 9.19874 20.3444L12.0163 17.8292H17.2596C18.0708 17.8292 18.7541 17.6831 19.3095 17.3908C19.8648 17.0987 20.2854 16.674 20.5712 16.1169C20.8571 15.5597 21 14.8797 21 14.0768V7.80097C21 6.99806 20.8571 6.31804 20.5712 5.76092C20.2854 5.20379 19.8648 4.77912 19.3095 4.48691C18.7541 4.19469 18.0708 4.04858 17.2596 4.04858H6.74048C5.92923 4.04858 5.24592 4.19469 4.69056 4.48691C4.13521 4.77912 3.71461 5.20379 3.42877 5.76092C3.14292 6.31804 3 6.99806 3 7.80097V14.0768C3 14.8797 3.14292 15.5597 3.42877 16.1169C3.71461 16.674 4.13521 17.0987 4.69056 17.3908C5.24592 17.6831 5.92923 17.8292 6.74048 17.8292H7.1325V19.9593C7.1325 20.2761 7.21008 20.5287 7.36526 20.7172C7.52043 20.9057 7.73957 20.9999 8.0227 20.9999ZM8.35754 19.5006V17.1246C8.35754 16.9006 8.31126 16.7422 8.2187 16.6494C8.12614 16.5565 7.96825 16.5101 7.74502 16.5101H6.74048C5.91289 16.5101 5.30173 16.3039 4.90699 15.8915C4.51225 15.4792 4.31489 14.8715 4.31489 14.0686V7.80097C4.31489 7.00352 4.51225 6.39861 4.90699 5.98622C5.30173 5.57385 5.91289 5.36766 6.74048 5.36766H17.2596C18.0817 5.36766 18.6915 5.57385 19.089 5.98622C19.4864 6.39861 19.6852 7.00352 19.6852 7.80097V14.0686C19.6852 14.8715 19.4864 15.4792 19.089 15.8915C18.6915 16.3039 18.0817 16.5101 17.2596 16.5101H11.9674C11.7387 16.5101 11.5536 16.5347 11.412 16.5838C11.2704 16.633 11.1234 16.7368 10.971 16.8952L8.35754 19.5006Z" fill="#333333"/>
</g>
<defs>
<clipPath id="clip0_962_9709">
<rect width="18" height="18" fill="white" transform="translate(3 3)"/>
</clipPath>
</defs>
</svg>
