<svg width="149" height="139" viewBox="0 0 149 139" fill="none" xmlns="http://www.w3.org/2000/svg">
<path d="M97.6769 3.31055C97.6769 3.31055 85.7816 5.36291 87.7981 24.4255C89.8146 43.4852 100.315 41.8045 101.019 41.7791C101.721 41.751 111.58 42.01 112.103 18.7047C112.103 18.7019 112.254 1.46932 97.6769 3.31055Z" fill="#F8CEB9"/>
<path d="M92.4671 36.5677C92.4671 36.5677 92.9237 44.4703 92.2002 46.1764C91.4767 47.8825 101.705 53.226 108.09 47.0745C108.09 47.0745 106.8 38.499 107.201 35.4725C107.603 32.4433 92.4671 36.5677 92.4671 36.5677Z" fill="#F8CEB9"/>
<path d="M106.382 39.2271C106.382 39.2271 104.484 41.9269 100.072 41.8228C95.6618 41.7214 93.7443 39.3678 93.7443 39.3678C93.7443 39.3678 95.8323 43.8386 100.091 43.7907C104.355 43.7428 106.382 39.2271 106.382 39.2271Z" fill="#EAB69C"/>
<path d="M28.6279 84.3162C28.6279 84.3162 25.0407 83.1648 24.7518 80.9885C24.507 79.1389 22.8839 76.9288 22.3832 76.2475C21.7175 75.3354 20.6886 71.7599 19.558 72.6101C18.4273 73.4603 20.9775 78.5899 21.3021 79.7751C21.6267 80.9604 16.719 78.7053 15.5058 79.015C14.2926 79.3247 11.1015 87.8551 14.6447 89.0038C18.188 90.1524 22.7133 88.9869 23.2965 89.3163C23.8797 89.6456 25.8412 90.2566 25.8412 90.2566L28.6279 84.3162Z" fill="#F8CEB9"/>
<path d="M16.3936 79.0863C16.3936 79.0863 5.32089 76.3047 4.43232 76.7524C3.54376 77.2 3.43098 77.8222 4.45709 78.1262C5.48045 78.4303 15.0786 81.1302 15.0786 81.1302C15.0786 81.1302 1.43376 80.0913 0.627722 80.2941C0.154554 80.4123 -0.131549 81.606 0.40214 81.82C0.935829 82.0339 14.4046 83.8554 14.4046 83.8554C14.4046 83.8554 1.6621 82.9095 1.03488 83.2867C0.487433 83.6133 0.492922 84.7789 1.43376 84.914C2.37459 85.0491 14.1515 86.6116 14.1515 86.6116C14.1515 86.6116 4.83397 86.5187 4.48735 87.1578C4.27552 87.5463 3.98116 88.5683 6.38551 88.5148C8.78986 88.4613 14.4761 88.9455 14.4761 88.9455L16.3936 79.0863Z" fill="#F8CEB9"/>
<path d="M81.2271 72.1027C81.2271 72.1027 78.3523 77.2969 74.5065 83.1387C74.1516 83.6765 73.7885 84.2198 73.4198 84.7632C73.4198 84.7632 73.4198 84.7688 73.4171 84.7716C72.9164 85.5092 72.4075 86.2497 71.8848 86.9845C71.2631 87.8629 70.6303 88.7356 69.9894 89.583C66.4241 94.3156 62.669 98.3415 59.8218 99.0594C53.6568 100.611 22.6809 93.5836 22.6809 93.5836L25.0742 81.1201C25.0742 81.1201 35.9351 84.9039 43.1921 85.5233C47.6432 85.9034 53.1947 87.3983 53.8522 86.976C54.5124 86.5537 67.2164 67.8008 68.1215 65.7794C69.0293 63.7552 73.0897 55.8188 76.5532 52.0266C80.0139 48.2315 83.7773 49.6786 83.7773 49.6786C94.1594 56.5902 81.2271 72.1027 81.2271 72.1027Z" fill="#EF7A56"/>
<path d="M76.1687 160.684C82.6472 162.694 89.5192 163.772 96.6387 163.772C108.383 163.772 119.461 160.836 129.199 155.639C127.934 147.931 126.363 140.985 124.407 135.746C119.711 123.173 78.7271 141.942 78.7271 141.942C78.7271 141.942 77.5854 150.428 76.1687 160.684Z" fill="#292C47"/>
<path d="M93.4912 46.2152C93.4912 46.2152 80.1765 49.0334 78.5974 50.4635C76.8808 51.9895 73.8575 66.9107 73.6759 71.0689C73.4944 75.2243 75.2798 92.5921 76.9964 99.0589C78.7102 105.526 78.0885 137.339 77.0046 146.297C77.0046 146.297 96.7319 155.34 130.035 147.133C130.035 147.133 124.236 117.637 125.292 108.775C126.643 97.4232 129.301 69.5627 129.301 69.5627C129.301 69.5627 129.383 52.5215 127.037 50.4889C124.69 48.4562 107.417 46.2124 107.417 46.2124H93.4912V46.2152Z" fill="#EF7A56"/>
<path d="M119.516 49.6718C119.516 49.6718 111.175 52.0226 115.764 67.6899C119.359 79.9591 119.844 82.5942 119.844 82.5942L139.089 77.6758C139.089 77.6758 134.165 51.7551 124.949 49.5254C124.952 49.5254 121.307 48.8441 119.516 49.6718Z" fill="#EF7A56"/>
<path d="M74.5059 83.138C74.151 83.6757 73.7879 84.2191 73.4192 84.7624C73.4192 84.7624 73.4192 84.7681 73.4165 84.7709C72.9158 85.5085 72.4069 86.2489 71.8842 86.9837C71.4935 79.6892 73.367 69.5625 73.367 69.5625C73.0093 72.955 74.5059 83.138 74.5059 83.138Z" fill="#F2622E"/>
<path d="M78.7343 71.8857H86.9102V84.6617H78.7343V71.8857Z" fill="#F2622E"/>
<path d="M92.5281 44.2278C92.5281 44.2278 100.759 46.7053 107.653 43.7886L108.129 47.2402C108.129 47.2402 98.8829 50.8353 91.6561 49.1884L92.5281 44.2278Z" fill="#F2622E"/>
<path d="M137.449 150.464C137.449 150.464 142.041 151.205 148.64 150.639C148.64 150.639 144.904 107.184 145.094 104.729C145.27 102.457 136.522 62.0857 131.716 55.968L124.404 79.583C124.96 79.4 132.363 103.665 132.464 106.162C132.605 109.513 137.449 150.464 137.449 150.464Z" fill="#EF7A56"/>
<path d="M86.7106 15.5283C86.3447 10.4664 86.7133 6.28278 87.357 3.69832C88.1493 0.511368 93.1836 1.38694 93.1836 1.38694V1.38975C100.864 -0.966677 105.494 0.117226 108.405 1.39257C112.76 5.04404 113.092 11.2603 112.894 14.6865C112.806 15.4973 112.716 16.311 112.628 17.1077C112.625 17.1246 112.625 17.133 112.625 17.133C112.231 20.5368 111.83 23.4985 111.83 23.4985L110.443 25.1342C110.443 25.1342 110.798 19.4641 109.948 19.146C109.491 18.9743 109.381 17.8312 109.379 16.8093C109.373 15.9309 109.447 15.1426 109.447 15.1426C100.564 10.9562 90.5922 13.9377 90.3694 14.5176C90.2291 14.8808 90.0255 15.9675 89.8274 16.9332C89.7064 17.5159 89.5881 18.0565 89.4891 18.3605C89.225 19.1629 89.3267 24.2812 89.3267 24.2812L87.5964 21.967C87.5964 21.967 87.3763 20.8634 87.0902 19.1995C86.9967 18.659 86.8976 18.0593 86.7986 17.4202C86.7986 17.4146 86.7216 16.691 86.7106 15.5283Z" fill="#434343"/>
</svg>
