<svg width="24" height="24" viewBox="0 0 24 24" fill="none" xmlns="http://www.w3.org/2000/svg">
<path d="M6.52407 20.319H18.476C18.9513 20.319 19.3242 20.2135 19.5945 20.0026C19.8648 19.7916 20 19.5019 20 19.1335C20 18.5631 19.8262 17.96 19.4787 17.3243C19.1311 16.6885 18.632 16.0929 17.9813 15.5373C17.3307 14.9817 16.5434 14.5301 15.6194 14.1825C14.6955 13.8349 13.6542 13.6611 12.4956 13.6611C11.3429 13.6611 10.3045 13.8349 9.38058 14.1825C8.45663 14.5301 7.66786 14.9817 7.01427 15.5373C6.36067 16.0929 5.86156 16.6885 5.51694 17.3243C5.17231 17.96 5 18.5631 5 19.1335C5 19.5019 5.13518 19.7916 5.40553 20.0026C5.67588 20.2135 6.04873 20.319 6.52407 20.319ZM12.5045 12.0658C13.1403 12.0658 13.7285 11.892 14.2691 11.5444C14.8099 11.1968 15.2451 10.7259 15.5749 10.1318C15.9047 9.53757 16.0695 8.86912 16.0695 8.12639C16.0695 7.39555 15.9047 6.74047 15.5749 6.16115C15.2451 5.58183 14.8099 5.1258 14.2691 4.79306C13.7285 4.46032 13.1403 4.29395 12.5045 4.29395C11.8687 4.29395 11.2805 4.46329 10.7398 4.80197C10.1991 5.14065 9.76383 5.60114 9.43406 6.18343C9.10429 6.76573 8.93941 7.41933 8.93941 8.14423C8.93941 8.881 9.10429 9.545 9.43406 10.1362C9.76383 10.7274 10.1991 11.1968 10.7398 11.5444C11.2805 11.892 11.8687 12.0658 12.5045 12.0658Z" fill="#F2622E"/>
</svg>
