<svg width="24" height="24" viewBox="0 0 24 24" fill="none" xmlns="http://www.w3.org/2000/svg">
<g clip-path="url(#clip0_979_933)">
<path d="M6.66874 18.9235L17.323 8.27899L15.6141 6.56024L4.94999 17.2145L4.02226 19.3825C3.97668 19.4997 4.0011 19.6087 4.0955 19.7096C4.1899 19.8105 4.29569 19.8382 4.41288 19.7927L6.66874 18.9235ZM18.1824 7.43915L19.1687 6.47235C19.4161 6.21844 19.5463 5.96453 19.5594 5.71063C19.5724 5.45672 19.4682 5.21583 19.2469 4.98797L18.9148 4.65594C18.6935 4.43459 18.4542 4.33367 18.1971 4.35321C17.9399 4.37274 17.6876 4.50294 17.4402 4.74383L16.4539 5.7204L18.1824 7.43915Z" fill="black" fill-opacity="0.85"/>
</g>
<defs>
<clipPath id="clip0_979_933">
<rect width="15.5605" height="15.814" fill="white" transform="translate(4 4)"/>
</clipPath>
</defs>
</svg>
