<svg width="24" height="24" viewBox="0 0 24 24" fill="none" xmlns="http://www.w3.org/2000/svg">
<g clip-path="url(#clip0_979_1081)">
<path d="M12.4806 17.8719C12.7165 17.8719 12.9591 17.8351 13.2083 17.7617C13.4575 17.6882 13.8002 17.6515 14.2363 17.6515C14.53 17.6515 14.7681 17.6693 14.9506 17.7049C15.1331 17.7406 15.3011 17.7773 15.4546 17.8151C15.6081 17.8529 15.7939 17.8719 16.012 17.8719C16.506 17.8719 16.881 17.7739 17.1369 17.5781C17.3928 17.3823 17.5207 17.113 17.5207 16.7703C17.5207 16.3787 17.3861 16.0361 17.1169 15.7423C16.8476 15.4486 16.467 15.2194 15.9753 15.0548C15.4835 14.8901 14.9016 14.8077 14.2296 14.8077C13.9003 14.8077 13.6222 14.8177 13.3952 14.8378C13.1682 14.8578 12.9657 14.8856 12.7877 14.9213C12.6097 14.9569 12.4272 14.9969 12.2403 15.0414L11.5194 13.3992C11.2835 12.8741 10.9987 12.4168 10.6649 12.0274C10.3311 11.638 9.94728 11.3353 9.51335 11.1195C9.07946 10.9036 8.59326 10.7957 8.05474 10.7957H7.26703C7.13797 10.7957 7.03338 10.7668 6.95327 10.7089C6.87316 10.6511 6.83311 10.5576 6.83311 10.4286C6.83311 10.2239 6.95105 10.087 7.18692 10.018C7.42279 9.94904 7.69204 9.91455 7.99466 9.91455C8.97376 9.91455 9.82155 10.1838 10.538 10.7223C11.2546 11.2608 11.8331 12.0708 12.2737 13.1522L12.7343 14.267C12.9568 14.2181 13.1894 14.1825 13.4319 14.1602C13.6745 14.138 13.9181 14.1269 14.1629 14.1269C14.3632 14.1269 14.5556 14.1335 14.7403 14.1469C14.925 14.1602 15.1108 14.1802 15.2977 14.2069C15.5024 14.0556 15.7261 13.9032 15.9687 13.7497C16.2112 13.5961 16.5016 13.4459 16.8398 13.2991C17.089 13.4682 17.3494 13.615 17.6209 13.7396C17.8923 13.8643 18.1705 13.9611 18.4553 14.0301C18.7401 14.099 19.0316 14.1335 19.3298 14.1335C19.9439 14.1335 20.4479 14.0756 20.8418 13.9599C21.2356 13.8442 21.5271 13.6317 21.7163 13.3224C21.9054 13.0131 22 12.5692 22 11.9907C22 11.4655 21.911 10.9793 21.733 10.532C21.555 10.0848 21.3058 9.69537 20.9853 9.36382C20.6649 9.03227 20.2899 8.77415 19.8605 8.58946C19.431 8.40476 18.9626 8.31464 18.4553 8.31909L16.6662 5.93591C16.1589 5.28171 15.6148 4.7955 15.0341 4.4773C14.4533 4.1591 13.8669 4 13.275 4C13.0302 4 12.7688 4.03227 12.4907 4.0968C12.2125 4.16133 11.9488 4.25478 11.6996 4.37717C11.4504 4.49955 11.2468 4.64308 11.0888 4.80774C10.9308 4.97241 10.8518 5.15265 10.8518 5.34847C10.8518 5.52648 10.9531 5.7223 11.1556 5.93591C11.3581 6.14953 11.6084 6.36204 11.9066 6.57343C12.2047 6.78483 12.4918 6.97508 12.7677 7.14419L16.6129 9.49399C16.466 9.63641 16.3202 9.74544 16.1756 9.82109C16.0309 9.89675 15.8763 9.93458 15.7116 9.93458C15.4535 9.93458 15.1798 9.86338 14.8905 9.72096C14.6013 9.57855 14.2541 9.38941 13.8491 9.15354C13.3373 8.85537 12.8467 8.56943 12.3772 8.29573C11.9077 8.02203 11.4448 7.77615 10.9886 7.55808C10.5325 7.34001 10.0652 7.16756 9.58676 7.04072C9.10835 6.91388 8.60213 6.85047 8.06809 6.85047C7.32933 6.85047 6.65176 6.99066 6.03538 7.27103C5.419 7.5514 4.87717 7.97085 4.40988 8.52938C3.94259 9.0879 3.55763 9.78104 3.25501 10.6088C2.89898 10.6088 2.6008 10.7156 2.36048 10.9292C2.12016 11.1429 2 11.421 2 11.7637C2 12.1509 2.13796 12.4579 2.41389 12.6849C2.68981 12.9119 3.03694 13.0254 3.45528 13.0254C3.78015 13.4793 4.16956 13.8465 4.6235 14.1269C5.07744 14.4072 5.58255 14.6119 6.13886 14.741C6.69515 14.8701 7.28705 14.9346 7.91455 14.9346C7.96351 14.9346 8.01358 14.9335 8.06476 14.9312C8.11594 14.929 8.166 14.9279 8.21496 14.9279L10.9186 17.1709C11.2523 17.4735 11.5327 17.666 11.7597 17.7483C11.9866 17.8307 12.227 17.8719 12.4806 17.8719ZM7.6542 18.3992C8.29951 18.3992 8.83355 18.3392 9.25632 18.219C9.67914 18.0988 10.0508 17.9297 10.3712 17.7116L8.30174 15.9894C8.25279 15.9938 8.20049 15.9982 8.14486 16.0027C8.08923 16.0071 8.02582 16.0094 7.95461 16.0094C7.84335 16.0094 7.7154 16.0005 7.57076 15.9827C7.42613 15.9648 7.26702 15.9482 7.09346 15.9326C6.91989 15.917 6.7352 15.9092 6.53938 15.9092C6.16555 15.9092 5.87072 16.0005 5.65488 16.1829C5.43903 16.3654 5.33111 16.6079 5.33111 16.9105C5.33111 17.36 5.54139 17.7205 5.96195 17.992C6.38251 18.2635 6.9466 18.3992 7.6542 18.3992ZM19.1763 11.6702C19.0249 11.6702 18.897 11.6157 18.7924 11.5066C18.6878 11.3976 18.6355 11.2697 18.6355 11.1228C18.6355 10.9715 18.6889 10.8391 18.7957 10.7256C18.9025 10.6122 19.0316 10.5554 19.1829 10.5554C19.3387 10.5554 19.4688 10.6077 19.5734 10.7123C19.678 10.8169 19.7303 10.9448 19.7303 11.0962C19.7303 11.243 19.6758 11.3754 19.5667 11.4933C19.4577 11.6113 19.3276 11.6702 19.1763 11.6702Z" fill="black" fill-opacity="0.85"/>
</g>
<defs>
<clipPath id="clip0_979_1081">
<rect width="20" height="15.3605" fill="white" transform="translate(2 4)"/>
</clipPath>
</defs>
</svg>
