<svg width="226" height="68" viewBox="0 0 226 68" fill="none" xmlns="http://www.w3.org/2000/svg">
<path d="M20.5215 67.14C16.9748 67.14 13.5448 66.6967 10.2315 65.81C6.96482 64.97 4.23482 63.6867 2.04148 61.96L6.38148 54.12C7.96815 55.4267 9.97482 56.4533 12.4015 57.2C14.8748 57.9933 17.3015 58.39 19.6815 58.39C23.5548 58.39 26.3548 57.5267 28.0815 55.8C29.8548 54.0733 30.7415 51.5067 30.7415 48.1V42.43L31.4415 32.98L31.3015 23.46V15.34H41.6615V46.7C41.6615 53.7 39.8415 58.8567 36.2015 62.17C32.5615 65.4833 27.3348 67.14 20.5215 67.14ZM18.8415 51.18C15.3415 51.18 12.1682 50.4333 9.32148 48.94C6.52148 47.4 4.25815 45.2767 2.53148 42.57C0.851485 39.8167 0.0114845 36.62 0.0114845 32.98C0.0114845 29.2933 0.851485 26.0967 2.53148 23.39C4.25815 20.6367 6.52148 18.5133 9.32148 17.02C12.1682 15.5267 15.3415 14.78 18.8415 14.78C22.0148 14.78 24.8148 15.4333 27.2415 16.74C29.6682 18 31.5582 19.9833 32.9115 22.69C34.2648 25.35 34.9415 28.78 34.9415 32.98C34.9415 37.1333 34.2648 40.5633 32.9115 43.27C31.5582 45.93 29.6682 47.9133 27.2415 49.22C24.8148 50.5267 22.0148 51.18 18.8415 51.18ZM21.0115 42.22C22.9248 42.22 24.6282 41.8467 26.1215 41.1C27.6148 40.3067 28.7815 39.21 29.6215 37.81C30.4615 36.41 30.8815 34.8 30.8815 32.98C30.8815 31.1133 30.4615 29.5033 29.6215 28.15C28.7815 26.75 27.6148 25.6767 26.1215 24.93C24.6282 24.1367 22.9248 23.74 21.0115 23.74C19.0982 23.74 17.3948 24.1367 15.9015 24.93C14.4082 25.6767 13.2182 26.75 12.3315 28.15C11.4915 29.5033 11.0715 31.1133 11.0715 32.98C11.0715 34.8 11.4915 36.41 12.3315 37.81C13.2182 39.21 14.4082 40.3067 15.9015 41.1C17.3948 41.8467 19.0982 42.22 21.0115 42.22ZM69.7452 53.56C65.7318 53.56 62.1618 52.72 59.0352 51.04C55.9552 49.36 53.5052 47.0733 51.6852 44.18C49.9118 41.24 49.0252 37.9033 49.0252 34.17C49.0252 30.39 49.9118 27.0533 51.6852 24.16C53.5052 21.22 55.9552 18.9333 59.0352 17.3C62.1618 15.62 65.7318 14.78 69.7452 14.78C73.7118 14.78 77.2585 15.62 80.3852 17.3C83.5118 18.9333 85.9618 21.1967 87.7352 24.09C89.5085 26.9833 90.3952 30.3433 90.3952 34.17C90.3952 37.9033 89.5085 41.24 87.7352 44.18C85.9618 47.0733 83.5118 49.36 80.3852 51.04C77.2585 52.72 73.7118 53.56 69.7452 53.56ZM69.7452 44.6C71.5652 44.6 73.1985 44.18 74.6452 43.34C76.0918 42.5 77.2352 41.31 78.0752 39.77C78.9152 38.1833 79.3352 36.3167 79.3352 34.17C79.3352 31.9767 78.9152 30.11 78.0752 28.57C77.2352 27.03 76.0918 25.84 74.6452 25C73.1985 24.16 71.5652 23.74 69.7452 23.74C67.9252 23.74 66.2918 24.16 64.8452 25C63.3985 25.84 62.2318 27.03 61.3452 28.57C60.5052 30.11 60.0852 31.9767 60.0852 34.17C60.0852 36.3167 60.5052 38.1833 61.3452 39.77C62.2318 41.31 63.3985 42.5 64.8452 43.34C66.2918 44.18 67.9252 44.6 69.7452 44.6Z" fill="#F2622E"/>
<path d="M99.0243 53V14.5C99.0243 10.2533 100.284 6.87 102.804 4.35C105.324 1.78333 108.918 0.499996 113.584 0.499996C115.171 0.499996 116.688 0.66333 118.134 0.989998C119.628 1.31666 120.888 1.83 121.914 2.53L119.044 10.44C118.438 10.02 117.761 9.69333 117.014 9.46C116.268 9.22666 115.474 9.11 114.634 9.11C113.048 9.11 111.811 9.57666 110.924 10.51C110.084 11.3967 109.664 12.75 109.664 14.57V18.07L109.944 22.76V53H99.0243ZM93.2143 24.58V16.18H119.324V24.58H93.2143ZM125.484 53V1.06H136.404V53H125.484ZM165.193 53.56C160.9 53.56 157.12 52.72 153.853 51.04C150.633 49.36 148.136 47.0733 146.363 44.18C144.59 41.24 143.703 37.9033 143.703 34.17C143.703 30.39 144.566 27.0533 146.293 24.16C148.066 21.22 150.47 18.9333 153.503 17.3C156.536 15.62 159.966 14.78 163.793 14.78C167.48 14.78 170.793 15.5733 173.733 17.16C176.72 18.7 179.076 20.94 180.803 23.88C182.53 26.7733 183.393 30.25 183.393 34.31C183.393 34.73 183.37 35.22 183.323 35.78C183.276 36.2933 183.23 36.7833 183.183 37.25H152.593V30.88H177.443L173.243 32.77C173.243 30.81 172.846 29.1067 172.053 27.66C171.26 26.2133 170.163 25.0933 168.763 24.3C167.363 23.46 165.73 23.04 163.863 23.04C161.996 23.04 160.34 23.46 158.893 24.3C157.493 25.0933 156.396 26.2367 155.603 27.73C154.81 29.1767 154.413 30.9033 154.413 32.91V34.59C154.413 36.6433 154.856 38.4633 155.743 40.05C156.676 41.59 157.96 42.78 159.593 43.62C161.273 44.4133 163.233 44.81 165.473 44.81C167.48 44.81 169.23 44.5067 170.723 43.9C172.263 43.2933 173.663 42.3833 174.923 41.17L180.733 47.47C179.006 49.43 176.836 50.9467 174.223 52.02C171.61 53.0467 168.6 53.56 165.193 53.56ZM184.878 53L201.748 30.88L201.538 36.9L185.368 15.34H197.618L207.838 29.41L203.218 29.55L213.788 15.34H225.408L209.168 36.69V30.81L225.968 53H213.578L202.868 38.02L207.418 38.65L196.778 53H184.878Z" fill="#012611"/>
</svg>
