<svg width="80" height="80" viewBox="0 0 80 80" fill="none" xmlns="http://www.w3.org/2000/svg">
<path d="M24.6256 50.2501C25.76 49.9013 26.1945 49.2038 26.2819 48.6804C26.1945 47.9821 25.7908 47.6993 25.6591 46.4297C25.505 44.9521 26.7387 41.4169 27.1056 40.7862C27.0556 40.6655 27.0041 40.559 26.9548 40.4351C25.2358 39.3444 23.4847 37.3722 22.68 33.8076C22.2497 31.9018 22.6056 29.9543 23.6364 28.294C23.6364 28.294 22.4703 20.1579 24.1125 14.8441C22.5784 14.1057 20.9078 14.2301 18.6181 14.4588C16.8609 14.6347 16.6116 15.0082 15.2619 14.8124C13.7152 14.5876 12.46 14.118 12.0825 13.929C11.865 13.8205 9.82484 15.6305 9.25687 17.1087C7.45516 21.791 7.93891 25.0012 8.3975 27.4301C8.38219 27.6788 8.3625 27.9266 8.3625 28.178L8.78125 29.9571C8.78281 29.9758 8.78125 29.9933 8.78187 30.0112C7.86906 30.8299 7.31891 32.0135 7.60937 33.3001C8.2075 35.946 9.49531 37.0191 10.7634 37.484C11.6045 39.8568 12.4206 41.3551 13.373 42.3624C13.6137 43.4604 13.8264 44.9515 13.6723 46.4299C13.0295 52.6222 0 49.3604 0 60.2318C0 61.6555 4.05484 63.9783 13.8778 64.6472C13.8491 64.4376 13.8294 64.2262 13.8294 64.0101C13.8294 54.261 20.1669 51.6221 24.6256 50.2501Z" fill="#012611"/>
<path d="M66.328 46.4294C66.1739 44.9518 66.386 43.4614 66.6267 42.3652C67.5808 41.3561 68.3968 39.8571 69.2382 37.483C70.5058 37.0179 71.7928 35.9443 72.3903 33.2996C72.6669 32.0814 72.1883 30.9549 71.3607 30.1433C71.9603 28.1333 74.3185 18.8202 67.236 16.9314C64.8807 13.9879 62.8207 14.1054 59.2874 14.4585C57.5302 14.6344 57.2805 15.0079 55.9316 14.8121C55.6363 14.7691 55.3563 14.7155 55.0863 14.6583C55.3453 15.0114 55.5922 15.3764 55.8108 15.7664C58.175 19.9904 57.5507 25.3399 56.8078 28.6074C57.6938 30.2027 57.9836 32.0361 57.5833 33.8082C56.7786 37.3707 55.0283 39.3424 53.3102 40.4332C53.2241 40.6493 52.9708 41.0916 53.3196 41.5279C53.6382 42.0443 53.6952 41.995 54.0425 42.3619C54.283 43.4599 54.4953 44.951 54.341 46.4294C54.2141 47.656 52.0985 48.68 52.6952 49.1757C53.2821 49.4227 53.9628 49.681 54.7264 49.9613C59.1053 51.5691 66.4339 54.2607 66.4339 64.0097C66.4339 64.2194 66.4157 64.4252 66.3885 64.6285C76.0193 63.9368 79.9999 61.6424 79.9999 60.2314C79.9999 49.36 66.9707 52.6219 66.328 46.4294Z" fill="#012611"/>
<path d="M47.0319 48.1184C46.8545 46.4177 47.0994 44.7017 47.3758 43.4378C48.4737 42.278 49.4144 40.5509 50.3826 37.8178C51.842 37.2824 53.3242 36.0467 54.0123 33.0013C54.3292 31.5988 53.7789 30.3019 52.827 29.3675C53.5164 27.0534 56.2309 16.3305 48.0773 14.1561C45.3658 10.7667 42.9931 10.9022 38.9258 11.3089C36.9022 11.5111 36.6147 11.9414 35.0616 11.7156C33.2803 11.4567 31.8356 10.9161 31.4009 10.6988C31.1506 10.5733 28.8014 12.6578 28.1469 14.3594C26.0734 19.75 26.6305 23.4467 27.1578 26.2431C27.1405 26.5295 27.1166 26.8147 27.1166 27.1042L27.5997 29.1527C27.6012 29.1738 27.5997 29.1939 27.6003 29.215C26.5494 30.1572 25.9164 31.52 26.2509 33.0013C26.9387 36.0478 28.4219 37.2831 29.8819 37.8181C30.8505 40.5502 31.7892 42.2764 32.8867 43.4363C33.1637 44.6994 33.4086 46.4169 33.2312 48.1184C32.4909 55.2475 17.49 51.4924 17.49 64.01C17.49 65.9405 23.9587 69.3072 40.1316 69.3072C56.3044 69.3072 62.7731 65.9405 62.7731 64.01C62.7731 51.4922 47.7722 55.2475 47.0319 48.1184ZM37.5061 67.2352L33.4005 50.5589L38.4511 52.6609L38.1795 55.1014L38.9819 55.0839L37.5061 67.2352ZM43.1576 67.2352L41.6815 55.0839L42.4839 55.1014L42.2123 52.6609L47.263 50.5589L43.1576 67.2352Z" fill="#012611"/>
</svg>
