<svg width="59" height="68" viewBox="0 0 59 68" fill="none" xmlns="http://www.w3.org/2000/svg">
<path d="M10.1559 8L58.6357 8.19169L58.4441 54.9643L48.0966 67.9993H0V21.035L10.1559 8Z" fill="#F2622E"/>
<path d="M10.251 0L58.6684 0.189872L58.2886 0.94936H10.4408L10.251 0Z" fill="white"/>
<path d="M0 12.9121L48.4174 13.102L48.0376 14.0513L0.379744 13.8615L0 12.9121Z" fill="white"/>
<path d="M0 59.0488H48.4174L48.4174 59.9982H0.379809L0 59.0488Z" fill="white"/>
<path d="M10.2531 0L10.8227 0.569616L0.94936 13.1012L0 12.9113L10.2531 0Z" fill="white"/>
<path d="M57.7203 0.379883L58.6697 0.569755L48.4166 13.6709L47.2773 13.4811L57.7203 0.379883Z" fill="white"/>
<path d="M57.9103 46.5195L58.6698 46.7094L48.4167 60.0004L47.6572 59.6207L57.9103 46.5195Z" fill="white"/>
<path d="M0 12.9121L0.94936 13.2919V60.0004H0V12.9121Z" fill="white"/>
<path d="M47.4688 13.4816L48.4181 13.2383V60.0002H47.4688V13.4816Z" fill="white"/>
<path d="M57.7197 0.568221L58.6691 0.188477V46.7071L57.7197 47.0869V0.568221Z" fill="white"/>
<path d="M19.2498 45V28.2H23.1378V41.832H31.5618V45H19.2498Z" fill="white"/>
</svg>
