<svg width="24" height="24" viewBox="0 0 24 24" fill="none" xmlns="http://www.w3.org/2000/svg">
<g clip-path="url(#clip0_1065_1320)">
<path d="M3.08654 21.5961C3.20833 21.5961 3.33333 21.5753 3.46154 21.5336C3.58975 21.492 3.73077 21.4263 3.88461 21.3365L8.77885 18.702L14.0962 21.6827C14.4423 21.875 14.8013 21.9712 15.1731 21.9712C15.5256 21.9712 15.8462 21.8878 16.1346 21.7212L21.1635 18.8654C21.4519 18.7051 21.6634 18.508 21.7981 18.274C21.9327 18.04 22 17.7628 22 17.4423V4.49038C22 4.13782 21.9054 3.86538 21.7163 3.67308C21.5272 3.48077 21.2596 3.38462 20.9135 3.38462C20.7916 3.38462 20.6666 3.40545 20.5384 3.44712C20.4102 3.48878 20.266 3.55128 20.1058 3.63462L15.0096 6.47115L9.78847 3.26923C9.49359 3.08974 9.16987 3 8.81731 3C8.45833 3 8.1282 3.08974 7.82692 3.26923L2.82692 6.11538C2.54487 6.27564 2.33654 6.47275 2.20192 6.70673C2.06731 6.9407 2 7.22115 2 7.54808V20.4808C2 20.8398 2.09455 21.1154 2.28365 21.3077C2.47276 21.5 2.74039 21.5961 3.08654 21.5961ZM8.15385 17.173L3.8173 19.5577C3.75321 19.5897 3.70513 19.6057 3.67308 19.6057C3.58975 19.6057 3.54808 19.5545 3.54808 19.4519V7.92308C3.54808 7.80769 3.57212 7.70673 3.62019 7.62019C3.66827 7.53365 3.75 7.45834 3.86538 7.39423L7.80769 5.08654C7.87179 5.05449 7.93109 5.02243 7.98558 4.99038C8.04006 4.95833 8.09615 4.92629 8.15385 4.89423V17.173ZM9.70193 17.3269V5.09616C9.75321 5.1218 9.80449 5.14904 9.85577 5.17788C9.90705 5.20673 9.95833 5.23718 10.0096 5.26923L14.298 7.88462V19.9039C14.2275 19.8654 14.157 19.8286 14.0865 19.7933C14.016 19.7581 13.9455 19.7212 13.875 19.6827L9.70193 17.3269ZM15.8462 20.077V7.78846L20.1827 5.42308C20.2468 5.39103 20.2917 5.375 20.3173 5.375C20.3622 5.375 20.3959 5.38782 20.4183 5.41346C20.4407 5.4391 20.4519 5.47756 20.4519 5.52885V17.0576C20.4519 17.173 20.4279 17.2756 20.3798 17.3653C20.3318 17.4551 20.25 17.5321 20.1346 17.5961L16.2789 19.8365C16.2083 19.8814 16.1362 19.9231 16.0625 19.9616C15.9888 20 15.9167 20.0385 15.8462 20.077Z" fill="black" fill-opacity="0.54"/>
</g>
<defs>
<clipPath id="clip0_1065_1320">
<rect width="20" height="18.9712" fill="white" transform="translate(2 3)"/>
</clipPath>
</defs>
</svg>
