<svg width="40" height="28" viewBox="0 0 40 28" fill="none" xmlns="http://www.w3.org/2000/svg">
<path d="M5.57491 14.8613H7.7334V17.1168H5.57491V14.8613Z" fill="#E95433"/>
<path d="M6.87348 14.8613H7.7334V17.1168H6.87348V14.8613Z" fill="#A8A7A1"/>
<path d="M5.57491 14.8613H7.7334V15.4348H5.57491V14.8613Z" fill="#E95433"/>
<path d="M33.5378 16.9849H33.5957V26.148H33.5378V16.9849Z" fill="#A0A0A0"/>
<path d="M32.3943 16.9849H32.4521V26.148H32.3943V16.9849Z" fill="#A0A0A0"/>
<path d="M28.5181 20.9509H37.4707V21.0102H28.5181V20.9509Z" fill="#A0A0A0"/>
<path d="M28.5181 22.1226H37.4707V22.1819H28.5181V22.1226Z" fill="#A0A0A0"/>
<path d="M33.1749 16.9492L34.0137 26.072L33.956 26.0776L33.1172 16.9548L33.1749 16.9492Z" fill="#A0A0A0"/>
<path d="M32.0357 17.0584L32.8745 26.1812L32.8169 26.1867L31.978 17.064L32.0357 17.0584Z" fill="#A0A0A0"/>
<path d="M37.3974 20.5264L37.4028 20.5854L28.4897 21.4432L28.4843 21.3841L37.3974 20.5264Z" fill="#A0A0A0"/>
<path d="M37.5039 21.6924L37.5093 21.7515L28.5961 22.6092L28.5907 22.5501L37.5039 21.6924Z" fill="#A0A0A0"/>
<path d="M30.257 17.8923L36.5874 24.3716L36.5464 24.4135L30.216 17.9343L30.257 17.8923Z" fill="#A0A0A0"/>
<path d="M29.4451 18.72L35.7764 25.1992L35.7354 25.2412L29.4041 18.7619L29.4451 18.72Z" fill="#A0A0A0"/>
<path d="M29.795 18.3028L36.9204 23.8511L36.8853 23.8983L29.7599 18.35L29.795 18.3028Z" fill="#A0A0A0"/>
<path d="M29.1033 19.2303L36.2251 24.7832L36.19 24.8304L29.0682 19.2775L29.1033 19.2303Z" fill="#A0A0A0"/>
<path d="M35.7373 17.8934L35.7783 17.9353L29.4479 24.4146L29.4069 24.3726L35.7373 17.8934Z" fill="#A0A0A0"/>
<path d="M36.5455 18.721L36.5864 18.7629L30.256 25.2422L30.215 25.2003L36.5455 18.721Z" fill="#A0A0A0"/>
<path d="M36.241 18.3502L36.2754 18.3979L29.0721 23.8399L29.0377 23.7922L36.241 18.3502Z" fill="#A0A0A0"/>
<path d="M36.9197 19.2926L36.9541 19.3403L29.7508 24.7823L29.7164 24.7346L36.9197 19.2926Z" fill="#A0A0A0"/>
<path d="M32.9954 16.1343C35.9269 16.1343 38.3032 18.5665 38.3032 21.5669C38.3032 24.5673 35.9269 26.9996 32.9954 26.9996C30.0639 26.9996 27.6875 24.5673 27.6875 21.5669C27.6875 18.5665 30.0639 16.1343 32.9954 16.1343ZM32.9954 25.8425C35.3022 25.8425 37.1721 23.9286 37.1721 21.5675C37.1721 19.2065 35.3022 17.2926 32.9954 17.2926C30.6885 17.2926 28.8186 19.2065 28.8186 21.5675C28.8186 23.928 30.6885 25.8425 32.9954 25.8425Z" fill="#7E7E7E"/>
<path d="M32.9959 16.9517C35.487 16.9517 37.5059 19.0186 37.5059 21.5676C37.5059 24.1173 35.4864 26.1842 32.9959 26.1842C30.5048 26.1842 28.486 24.1173 28.486 21.5676C28.486 19.0186 30.5048 16.9517 32.9959 16.9517ZM32.9959 25.8402C35.3028 25.8402 37.1727 23.9263 37.1727 21.5653C37.1727 19.2042 35.3028 17.2903 32.9959 17.2903C30.6891 17.2903 28.8192 19.2042 28.8192 21.5653C28.8192 23.9263 30.6891 25.8402 32.9959 25.8402Z" fill="#A4A4A4"/>
<path d="M31.7679 21.5675C31.7679 22.2608 32.3167 22.8224 32.9941 22.8224C33.6709 22.8224 34.2202 22.2608 34.2202 21.5675C34.2202 20.8747 33.6715 20.3125 32.9941 20.3125C32.3167 20.3131 31.7679 20.8747 31.7679 21.5675Z" fill="#333333"/>
<path d="M32.4275 21.5672C32.4275 21.8886 32.6818 22.1496 32.9959 22.1496C33.31 22.1496 33.5649 21.8892 33.5649 21.5672C33.5649 21.2457 33.3106 20.9854 32.9959 20.9854C32.6824 20.9854 32.4275 21.2457 32.4275 21.5672Z" fill="#4C4C49"/>
<path d="M26.8609 22.6341C26.5375 20.5132 26.8852 18.1207 28.495 16.6143C28.9614 16.1778 29.4719 15.787 30.0288 15.4792C31.0567 14.911 32.2342 14.8048 33.3705 15.0171C34.0682 15.1476 34.7143 15.3754 35.3233 15.7514C35.9242 16.1226 36.5002 16.5473 36.9811 17.0734C37.1915 17.3041 37.3763 17.5621 37.622 17.756C37.6962 17.8147 37.7848 17.861 37.8781 17.8817C38.3881 17.995 37.9002 18.1901 37.6632 18.2536C37.1805 18.3829 36.7233 18.1374 36.3489 17.8432C36.105 17.6522 33.7756 15.2532 30.796 16.7442C29.9117 17.1866 28.6856 17.9529 28.2823 19.9012C27.9514 21.4984 28.2168 22.2071 28.3356 22.4147C28.7835 23.1964 27.1106 24.1388 26.687 23.4111C26.7108 23.4526 26.8452 23.1584 26.8528 23.1347C26.9009 22.9781 26.8852 22.7931 26.8609 22.6341Z" fill="#F2622E"/>
<path d="M12.1994 16.9849H12.2573V26.148H12.1994V16.9849Z" fill="#A0A0A0"/>
<path d="M11.0549 16.9849H11.1128V26.148H11.0549V16.9849Z" fill="#A0A0A0"/>
<path d="M7.18163 20.9519H16.1343V21.0112H7.18163V20.9519Z" fill="#A0A0A0"/>
<path d="M7.18163 22.1233H16.1343V22.1826H7.18163V22.1233Z" fill="#A0A0A0"/>
<path d="M11.8326 16.9483L12.6724 26.071L12.6147 26.0766L11.775 16.9539L11.8326 16.9483Z" fill="#A0A0A0"/>
<path d="M10.6943 17.0589L11.5332 26.1816L11.4756 26.1872L10.6367 17.0645L10.6943 17.0589Z" fill="#A0A0A0"/>
<path d="M16.0571 20.5274L16.0625 20.5864L7.14925 21.4432L7.14383 21.3841L16.0571 20.5274Z" fill="#A0A0A0"/>
<path d="M16.1635 21.6936L16.1689 21.7527L7.25569 22.6094L7.25028 22.5504L16.1635 21.6936Z" fill="#A0A0A0"/>
<path d="M8.91666 17.8923L15.2471 24.3716L15.2061 24.4135L8.87568 17.9343L8.91666 17.8923Z" fill="#A0A0A0"/>
<path d="M8.10326 18.7197L14.4346 25.199L14.3936 25.2409L8.06229 18.7617L8.10326 18.7197Z" fill="#A0A0A0"/>
<path d="M8.4576 18.3035L15.583 23.8508L15.5479 23.898L8.42252 18.3507L8.4576 18.3035Z" fill="#A0A0A0"/>
<path d="M7.7644 19.2301L14.8862 24.783L14.8511 24.8301L7.72929 19.2773L7.7644 19.2301Z" fill="#A0A0A0"/>
<path d="M14.398 17.8924L14.439 17.9343L8.10855 24.4136L8.06758 24.3716L14.398 17.8924Z" fill="#A0A0A0"/>
<path d="M15.2061 18.7195L15.2471 18.7615L8.91666 25.2407L8.87568 25.1988L15.2061 18.7195Z" fill="#A0A0A0"/>
<path d="M14.8982 18.349L14.9326 18.3967L7.72932 23.8387L7.69491 23.791L14.8982 18.349Z" fill="#A0A0A0"/>
<path d="M15.5769 19.2911L15.6113 19.3389L8.40803 24.7809L8.37362 24.7331L15.5769 19.2911Z" fill="#A0A0A0"/>
<path d="M11.656 16.1348C14.5875 16.1348 16.9639 18.567 16.9639 21.5674C16.9639 24.5678 14.5875 27.0001 11.656 27.0001C8.72453 27.0001 6.34818 24.5678 6.34818 21.5674C6.34818 18.567 8.72453 16.1348 11.656 16.1348ZM11.656 25.843C13.9628 25.843 15.8328 23.9291 15.8328 21.568C15.8328 19.2069 13.9628 17.2931 11.656 17.2931C9.34919 17.2931 7.47928 19.2069 7.47928 21.568C7.47928 23.9285 9.34919 25.843 11.656 25.843Z" fill="#8D8D8D"/>
<path d="M11.6541 16.9507C14.1452 16.9507 16.1641 19.0176 16.1641 21.5667C16.1641 24.1163 14.1446 26.1832 11.6541 26.1832C9.16304 26.1832 7.14362 24.1163 7.14362 21.5667C7.14362 19.0176 9.16304 16.9507 11.6541 16.9507ZM11.6541 25.8392C13.961 25.8392 15.8309 23.9254 15.8309 21.5643C15.8309 19.2032 13.961 17.2893 11.6541 17.2893C9.3473 17.2893 7.47739 19.2032 7.47739 21.5643C7.47739 23.9254 9.3473 25.8392 11.6541 25.8392Z" fill="#B9B9B9"/>
<path d="M10.4305 21.567C10.4305 22.2603 10.9793 22.8219 11.6567 22.8219C12.3341 22.8219 12.8828 22.2603 12.8828 21.567C12.8828 20.8743 12.3341 20.312 11.6567 20.312C10.9799 20.3126 10.4305 20.8743 10.4305 21.567Z" fill="#A8A7A1"/>
<path d="M11.0871 21.5677C11.0871 21.8891 11.3415 22.1501 11.6556 22.1501C11.9696 22.1501 12.2246 21.8897 12.2246 21.5677C12.2246 21.2462 11.9702 20.9858 11.6556 20.9858C11.3421 20.9858 11.0871 21.2462 11.0871 21.5677Z" fill="#4C4C49"/>
<path d="M11.2406 21.5671C11.2406 21.7949 11.4208 21.9793 11.6427 21.9793H20.2512C20.4731 21.9793 20.6533 21.7949 20.6533 21.5671C20.6533 21.34 20.4731 21.1555 20.2512 21.1555H11.6427C11.4208 21.1555 11.2406 21.34 11.2406 21.5671Z" fill="#0C2518"/>
<path d="M29.6887 10.4678L30.5266 13.3395C30.5266 13.3395 31.1252 15.063 29.4059 17.5664C27.6872 20.0698 24.251 24.4017 24.251 24.4017C24.251 24.4017 23.5696 25.3216 22.4704 24.8311C21.3711 24.3406 19.3251 21.371 19.2347 19.6333C19.2347 19.6333 23.3285 20.4808 27.299 15.2468C28.7766 13.298 29.6887 10.4678 29.6887 10.4678Z" fill="#333333"/>
<path d="M19.2335 19.6067C19.2335 19.6067 17.9367 19.4377 17.9222 18.3583C17.9135 17.6982 17.6568 16.9918 17.8787 16.3447C18.1064 15.6799 18.8151 15.4664 19.3465 15.1307C19.6327 14.9498 19.8576 14.7387 20.0656 14.4676C20.094 14.4303 20.648 13.5068 20.4428 13.5068H15.2451C15.2451 13.5068 15.613 15.4047 14.588 14.9682C14.588 14.9682 10.5213 13.1178 7.2439 15.6846C7.2439 15.6846 5.00024 17.5837 4.94867 20.9394C4.94867 20.9394 5.0547 21.7305 4.29851 21.9286C4.29851 21.9286 3.66806 22.0431 4.21971 22.2602C4.77077 22.4772 6.32372 22.7429 6.59433 21.9802C6.86494 21.2175 6.70327 17.2765 10.9704 16.5387C10.9704 16.5387 15.0034 15.8507 16.1687 20.3137C16.1687 20.3137 16.2023 20.6671 16.2574 20.8344C16.2794 20.9008 19.6432 20.953 19.6432 20.953L19.2335 19.6067Z" fill="#F2622E"/>
<path d="M17.8793 16.3442C17.6574 16.9912 17.9141 17.6976 17.9228 18.3577C17.9286 18.8007 18.1511 19.0907 18.4107 19.2781C18.2339 19.22 18.0624 19.1423 17.9031 19.0628C17.5722 18.8986 17.2581 18.7106 16.9869 18.4532C16.4011 17.898 15.9572 17.1887 15.4832 16.5369C15.0562 15.9503 14.6216 15.2819 14.0207 14.8656C13.899 14.7814 13.7738 14.7084 13.6446 14.6444C14.2316 14.8063 14.588 14.9682 14.588 14.9682C15.6136 15.4047 15.2451 13.5068 15.2451 13.5068H20.4428C20.648 13.5068 20.094 14.4303 20.0656 14.4676C19.8576 14.7387 19.6327 14.9498 19.3465 15.1307C18.8151 15.4658 18.107 15.6793 17.8793 16.3442Z" fill="#C23806"/>
<path d="M20.7797 12.6336C20.7797 12.6336 21.8569 12.6336 21.58 13.5233C21.303 14.4129 20.5474 14.5315 20.0693 14.5908H14.2521C14.2521 14.5908 13.3916 14.6798 13.2554 13.9088C13.1193 13.1378 13.2554 12.7819 13.2554 12.7819C13.2554 12.7819 13.201 12.4486 13.8807 12.4189L20.7797 12.6336Z" fill="#543A22"/>
<path d="M19.9821 13.8357C19.9786 13.8345 19.9751 13.8327 19.9717 13.8315C19.9085 13.7995 19.901 13.7568 19.9015 13.6916C19.9015 13.6103 19.9015 13.5297 19.9015 13.4484C19.901 13.2764 19.8998 13.1044 19.9021 12.9324C19.9027 12.9034 19.8958 12.8701 19.9004 12.8417C19.9218 12.7023 20.1171 12.7515 20.2092 12.7557C20.3437 12.7616 20.4781 12.7664 20.6125 12.7711C20.6427 12.7723 20.6734 12.7741 20.7035 12.7747C20.7035 12.7747 21.6307 12.793 21.3826 13.2788C21.1352 13.7645 20.4839 13.8167 20.0713 13.8416C20.0418 13.8404 20.0093 13.8452 19.9821 13.8357Z" fill="#7A5435"/>
<path d="M18.1138 12.6789C18.1265 12.673 18.1433 12.6694 18.1665 12.67C18.3247 12.6735 18.4835 12.6878 18.6417 12.6937C18.9285 12.7038 19.22 12.702 19.5062 12.7251C19.5595 12.7293 19.6065 12.734 19.6592 12.7299C19.6818 12.7281 19.6957 12.7269 19.7171 12.7388C19.7884 12.7773 19.7965 12.826 19.7936 12.8971C19.7907 12.9719 19.7942 13.049 19.7942 13.1243C19.7942 13.2963 19.7936 13.4683 19.7948 13.6403C19.7954 13.7162 19.8069 13.7458 19.7583 13.8081C19.7386 13.833 19.6638 13.8378 19.6354 13.8372C19.5908 13.8366 19.5473 13.8283 19.5027 13.8277C19.3741 13.8265 19.2454 13.8229 19.1168 13.8218C18.852 13.8188 18.5878 13.8099 18.323 13.8069C18.276 13.8063 18.2285 13.8057 18.1816 13.8046C18.0326 13.7998 18.0831 13.4973 18.0836 13.406C18.0842 13.2168 18.0836 13.0276 18.0836 12.8384C18.0831 12.7714 18.0645 12.7032 18.1138 12.6789Z" fill="#7A5435"/>
<path d="M14.2277 12.7287C14.2277 12.7287 14.1843 12.5443 14.7695 12.5396C14.8889 12.5443 15.0089 12.5484 15.1288 12.5532C15.3357 12.5615 15.5443 12.5621 15.7506 12.5787C15.8108 12.5834 15.947 12.5781 15.9922 12.635C16.0386 12.6938 16.0264 12.7412 16.0281 12.8076C16.031 12.8912 16.0281 12.9749 16.0299 13.0585C16.0328 13.2293 16.0304 13.4007 16.0299 13.5715C16.0299 13.6107 16.0409 13.6712 16.0229 13.7056C15.9928 13.7619 15.925 13.7607 15.8722 13.7577C15.801 13.7542 15.7285 13.7548 15.6573 13.7542C15.4968 13.7524 15.3357 13.7488 15.1752 13.7447C15.1398 13.7435 15.1027 13.7411 15.0674 13.7423C15.0662 13.7423 14.3257 13.7761 14.2167 13.3491C14.1066 12.9227 14.2277 12.7287 14.2277 12.7287Z" fill="#7A5435"/>
<path d="M16.1693 12.6027C16.2133 12.5814 16.284 12.5991 16.3286 12.6009C16.4596 12.6069 16.5906 12.6104 16.7209 12.6158C16.882 12.6229 17.0437 12.6306 17.2048 12.6347C17.3502 12.6389 17.4957 12.6501 17.6411 12.6537C17.7217 12.6555 17.8254 12.6413 17.9001 12.6709C17.9222 12.6798 17.9772 12.6964 17.9772 12.7302C17.9772 12.8542 17.9772 12.9787 17.9772 13.1027C17.9778 13.2883 17.9766 13.4745 17.976 13.6602C17.976 13.6875 17.9818 13.7183 17.9772 13.745C17.9679 13.8001 17.8428 13.7924 17.7854 13.7901C17.7159 13.7877 17.6463 13.7865 17.5768 13.7859C17.4395 13.7847 17.3021 13.7853 17.1648 13.7829C16.8948 13.7776 16.6247 13.7723 16.3541 13.7669C16.2411 13.7646 16.1328 13.7901 16.1339 13.6317C16.1345 13.538 16.1351 13.4449 16.1339 13.3512C16.1328 13.1667 16.1415 12.9811 16.1334 12.7966C16.1316 12.7611 16.1374 12.7255 16.1351 12.6905C16.1345 12.6768 16.1264 12.6679 16.1293 12.6537C16.1363 12.6276 16.1508 12.6116 16.1693 12.6027Z" fill="#7A5435"/>
<path d="M10.9544 21.5229C10.9538 21.6504 11.1275 21.7548 11.3428 21.7566C11.5581 21.7578 11.7329 21.6558 11.7335 21.5277L11.7705 14.9711C11.7711 14.8436 11.5974 14.7392 11.3827 14.738C11.1674 14.7369 10.9926 14.8389 10.992 14.967L10.9544 21.5229Z" fill="#C4C4C3"/>
<path d="M10.7967 19.1726C10.7961 19.2746 11.0429 19.3583 11.3477 19.36C11.6525 19.3618 11.9005 19.2806 11.9011 19.1786L11.9307 13.947C11.9312 13.845 11.6844 13.7613 11.3796 13.7596C11.0748 13.7578 10.8268 13.839 10.8262 13.9404L10.7967 19.1726Z" fill="#D54511"/>
<path d="M11.53 13.9626C11.7124 13.9864 11.8443 14.0522 11.8437 14.1293L11.8194 19.0424C11.8189 19.116 11.699 19.1776 11.53 19.2014V13.9626Z" fill="#F2622E"/>
<path d="M31.7705 15.0242L33.0957 21.6412C33.0795 21.6809 33.058 21.7183 33.032 21.7509C33.0291 21.7533 33.0267 21.7563 33.0238 21.758L27.727 21.8761C27.727 21.8761 27.3573 21.3636 27.3573 20.5256C27.3573 19.5269 28.6217 16.1576 31.7705 15.0242ZM29.1675 21.6424H32.1228C32.6443 21.5238 32.1686 21.0291 32.1686 21.0291C32.1686 21.0291 30.9882 19.5707 30.6272 19.101C29.9689 18.2446 29.7175 18.7209 29.7175 18.7209C29.7175 18.7209 28.7231 19.7244 28.4832 21.3832C28.4305 21.7527 29.1675 21.6424 29.1675 21.6424Z" fill="#F2622E"/>
<path d="M30.816 9.08239L31.979 13.9617C31.979 13.9617 32.2438 14.7914 31.979 14.9397L30.3953 15.582L28.9015 10.8462C28.9015 10.8462 28.4472 9.32437 27.8735 8.88489C27.8735 8.88489 27.2883 7.53385 27.3734 7.53385C28.267 7.53385 29.6994 6.14307 29.6994 6.14307C29.6994 6.14307 30.6173 6.22491 30.6265 6.46215C30.6364 6.69879 30.816 9.08239 30.816 9.08239Z" fill="#A7170D"/>
<path d="M28.7985 10.2209C29.1253 10.1491 29.4527 10.0815 29.779 10.0097C30.122 9.9338 30.4639 9.83476 30.8098 9.76952C30.866 9.75944 30.884 9.75884 30.9043 9.75944C30.9477 9.76003 30.9576 9.76952 30.9883 9.81104L31.978 13.9626C31.978 13.9626 32.2428 14.7923 31.978 14.9406L30.3943 15.5829L28.9005 10.8472C28.9005 10.8472 28.8315 10.6159 28.7133 10.3086C28.6988 10.2689 28.7145 10.2434 28.7985 10.2209Z" fill="#F2622E"/>
<path d="M28.9042 7.84C28.9163 8.77767 30.1964 9.69102 32.0025 9.53741C32.3485 9.50835 32.6318 8.77708 32.6318 7.84C32.6318 6.90293 32.3433 6.19716 32.0025 6.1426C30.4797 5.89825 28.8937 7.05595 28.9042 7.84Z" fill="#C53D0C"/>
<path d="M31.983 6.13916C31.9899 6.14035 31.9963 6.14094 32.0033 6.14153C32.3436 6.1961 32.6318 6.90187 32.6318 7.83894C32.6318 8.77601 32.3482 9.50728 32.0033 9.53634C31.9963 9.53694 31.9899 9.53694 31.983 9.53753V6.13916Z" fill="#878888"/>
<path d="M32.2197 6.27124C32.4576 6.52271 32.6318 7.11045 32.6318 7.83995C32.6318 8.57122 32.4594 9.17557 32.2197 9.42052V6.27124Z" fill="#FFFCE6"/>
<path d="M27.8366 6.58404C28.5951 6.33435 28.897 6.313 29.1861 6.20328C29.4811 6.10957 29.754 6.00222 30.0316 6.01409C30.3358 6.02713 30.7657 6.0129 30.8984 6.18905C30.877 7.0763 30.9152 9.23216 30.8984 9.55539C29.4005 9.97411 28.7973 9.81575 28.4589 9.72027C28.365 9.58504 27.6187 8.10649 27.515 8.02701C27.5155 8.02642 26.9859 6.86398 27.8366 6.58404Z" fill="#DF511E"/>
<path d="M29.889 8.53783C29.889 8.70685 30.0229 8.84445 30.1886 8.84445H31.0115C31.1766 8.84445 31.311 8.70745 31.311 8.53783C31.311 8.3688 31.1772 8.2312 31.0115 8.2312H30.1886C30.0229 8.2312 29.889 8.3682 29.889 8.53783Z" fill="#7C140A"/>
<path d="M26.6138 1.29704C26.4893 2.04729 26.5501 2.68427 26.7498 2.71926C26.9495 2.75425 27.2122 2.17362 27.3373 1.42337C27.4617 0.673119 27.4009 0.0361466 27.2013 0.00174769C27.001 -0.0332443 26.7382 0.546792 26.6138 1.29704Z" fill="#878888"/>
<path d="M26.6143 1.29739C26.7387 0.546547 27.0021 -0.0334884 27.2018 0.00150353C27.2157 0.00387587 27.229 0.00980668 27.2417 0.0175168C27.0559 0.113596 26.84 0.640848 26.7306 1.29917C26.6149 1.99723 26.6594 2.59625 26.8267 2.70478C26.8006 2.71842 26.7752 2.72317 26.7503 2.71901C26.55 2.68461 26.4892 2.04824 26.6143 1.29739Z" fill="#626362"/>
<path d="M27.5077 7.01151C27.4684 7.27188 27.5725 7.50496 27.7392 7.53105C27.9059 7.55715 28.0732 7.36736 28.112 7.10641C28.1508 6.84545 28.0472 6.61296 27.8805 6.58687C27.7138 6.56077 27.5465 6.75115 27.5077 7.01151Z" fill="#AAAAAA"/>
<path d="M26.4207 6.83298C26.3836 7.05479 26.4167 7.24576 26.4955 7.26C26.4955 7.26 27.655 7.46402 27.6555 7.46402C27.7599 7.48241 27.8804 7.37209 27.9348 7.29499C28.0102 7.18824 28.0554 7.03641 28.0177 6.90711C27.9899 6.81044 27.896 6.67937 27.7906 6.66098L26.6305 6.45696C26.5517 6.44214 26.4578 6.61057 26.4207 6.83298Z" fill="#333333"/>
<path d="M26.2847 6.8216C26.239 7.08137 26.3368 7.31624 26.503 7.34708C26.6691 7.37792 26.841 7.19228 26.8867 6.93251C26.9324 6.67274 26.8346 6.43788 26.6685 6.40704C26.5018 6.37679 26.3305 6.56243 26.2847 6.8216Z" fill="#AAAAAA"/>
<path d="M31.0476 7.72783C31.0476 7.72783 32.097 7.96032 31.904 8.66786C31.8032 9.03736 30.6808 9.37838 30.3094 9.16724C30.1518 9.07769 30.1257 8.15841 30.2706 7.8334C30.3459 7.66437 30.7503 7.65369 31.0476 7.72783Z" fill="#E95433"/>
<path d="M31.0471 7.72734C31.0471 7.72734 32.0965 7.95983 31.9036 8.66738C31.8027 9.03687 30.6803 9.37789 30.3089 9.16675C30.1513 9.0772 30.1252 8.15792 30.2701 7.83291C30.3454 7.66388 30.7499 7.6532 31.0471 7.72734Z" fill="#E95433"/>
<path d="M30.2709 7.83284C30.3247 7.71185 30.547 7.67212 30.7773 7.68635V9.22362C30.5869 9.2426 30.4167 9.22777 30.3091 9.16669C30.1517 9.07772 30.1262 8.15785 30.2709 7.83284Z" fill="#A8A7A1"/>
<path d="M30.1751 8.47403C30.1769 8.22612 30.2076 7.97347 30.2702 7.83291C30.3455 7.66388 30.7505 7.6532 31.0472 7.72734C31.0472 7.72734 31.9014 7.91713 31.9263 8.47403H30.1751Z" fill="#E95433"/>
<path d="M24.9838 21.509C25.948 20.2997 26.8838 19.0495 27.7269 17.7477C28.1667 17.0686 28.5845 16.3629 28.8864 15.6061C29.1414 14.9661 29.2486 14.3547 29.2011 13.6637C29.157 13.022 29.0278 12.3773 29.0597 11.7327C29.0898 11.12 29.5459 10.4967 29.941 10.0845L30.7697 13.5291C30.7697 13.5291 31.126 15.0616 29.4074 17.565C27.6887 20.0684 24.2525 24.4003 24.2525 24.4003C24.2525 24.4003 23.8747 24.9092 23.2292 24.9679C23.2634 23.659 24.2137 22.4752 24.9838 21.509Z" fill="#E4E4E4"/>
<path d="M24.9853 21.5095C25.9495 20.3002 26.8853 19.05 27.7284 17.7482C28.1682 17.0691 28.586 16.3633 28.8879 15.6066C29.1429 14.9666 29.2501 14.3552 29.2026 13.6642C29.1585 13.0225 29.0293 12.3778 29.0612 11.7331C29.0913 11.1205 29.5474 10.4972 29.9425 10.085L30.0005 10.3258C29.8313 10.4835 29.0699 11.1389 29.2037 12.3298C29.3637 13.7532 29.7113 14.4056 28.8421 16.2637C27.973 18.1218 24.1097 22.9851 24.1097 22.9851C24.1097 22.9851 23.5297 23.9673 23.4572 24.9269C23.386 24.9459 23.3101 24.9601 23.2301 24.9678C23.2649 23.6595 24.2152 22.4757 24.9853 21.5095Z" fill="#D7D7D7"/>
<path d="M30.4762 10.2349L31.6786 14.7026C31.6786 14.7026 31.7076 14.9001 31.5482 14.8212L30.3505 10.3731C30.3505 10.3731 30.2879 10.1952 30.3505 10.1258C30.4131 10.057 30.46 10.1738 30.4762 10.2349Z" fill="#A7170D"/>
<path d="M30.0839 17.6805C30.0839 18.0244 30.3563 18.3032 30.6923 18.3032C31.0284 18.3032 31.3008 18.0244 31.3008 17.6805C31.3008 17.3365 31.0284 17.0571 30.6923 17.0571C30.3563 17.0577 30.0839 17.3365 30.0839 17.6805Z" fill="#DE211B"/>
<path d="M31.4444 19.0699C31.4444 19.1618 31.5168 19.2359 31.6065 19.2359C31.6962 19.2359 31.7686 19.1618 31.7686 19.0699C31.7686 18.9785 31.6962 18.9038 31.6065 18.9038C31.5168 18.9038 31.4444 18.9779 31.4444 19.0699Z" fill="#DE211B"/>
<path d="M9.62909 14.6136C9.72517 14.6136 9.80273 14.5341 9.80273 14.4357V13.7839C9.80273 13.6854 9.72517 13.606 9.62909 13.606C9.53301 13.606 9.45545 13.6854 9.45545 13.7839V14.4357C9.45545 14.5341 9.53301 14.6136 9.62909 14.6136Z" fill="#333333"/>
<path d="M12.2869 13.9615C12.7759 13.9615 12.9706 13.6258 13.0054 13.439C13.0077 13.4283 13.0083 13.417 13.0083 13.4058V12.8121C13.0083 12.7136 12.9307 12.6342 12.8345 12.6342C12.7383 12.6342 12.6606 12.7136 12.6606 12.8121V13.3838V6.33737C12.6606 5.84097 12.2969 5.47279 11.8005 5.47274C9.63922 5.47255 3.99007 5.47272 1.69106 5.4728C1.13879 5.47282 0.696123 5.92053 0.696123 6.47279V12.6027C0.696123 13.155 1.14384 13.6027 1.69612 13.6027H6.97323C6.87704 13.6027 6.7994 13.6821 6.7994 13.7806C6.7994 13.879 6.87704 13.9585 6.97323 13.9585H12.211C12.237 13.9609 12.2625 13.9615 12.2869 13.9615Z" fill="#F2622E"/>
<path d="M7.40839 15.5827C7.50447 15.5827 7.58203 15.5032 7.58203 15.4048V13.7839C7.58203 13.6854 7.50447 13.606 7.40839 13.606C7.31231 13.606 7.23475 13.6854 7.23475 13.7839V15.4048C7.23475 15.5026 7.31231 15.5827 7.40839 15.5827Z" fill="#333333"/>
<path d="M8.87293 15.9377C8.87293 16.1068 9.00678 16.2444 9.17251 16.2444H9.99534C10.1605 16.2444 10.2949 16.1074 10.2949 15.9377C10.2949 15.7687 10.1611 15.6311 9.99534 15.6311H9.17251C9.00736 15.6311 8.87293 15.7687 8.87293 15.9377Z" fill="#7C140A"/>
<path d="M8.8747 15.2073C8.8747 15.2073 7.8253 15.4398 8.01826 16.1474C8.11908 16.5168 9.2415 16.8579 9.61293 16.6467C9.77054 16.5572 9.79662 15.6379 9.65175 15.3129C9.57642 15.1439 9.17196 15.1332 8.8747 15.2073Z" fill="#E95433"/>
<path d="M9.65181 15.3128C9.59798 15.1918 9.37572 15.1521 9.14535 15.1663V16.7036C9.33578 16.722 9.50595 16.7078 9.61361 16.6467C9.77047 16.5571 9.79651 15.6378 9.65181 15.3128Z" fill="#A8A7A1"/>
<path d="M8.02217 15.8105C8.16936 15.3639 8.87514 15.2073 8.87514 15.2073C9.1724 15.1332 9.57686 15.1439 9.65219 15.3129C9.7026 15.4262 9.73273 15.613 9.74316 15.8105H8.02217Z" fill="#E95433"/>
<path d="M11.9994 20.7425L20.634 20.9524C21.7181 20.9524 22.5972 21.8521 22.5972 22.9618C22.5972 24.072 21.7181 24.9717 20.634 24.9717C20.3251 24.9717 20.1443 24.9824 19.7097 24.8946L12.5534 24.094C12.5534 24.094 10.4268 23.8413 10.7113 21.4737C10.7107 21.4737 10.8944 20.5325 11.9994 20.7425Z" fill="#ABABAB"/>
<path d="M15.8485 21.0293L19.0291 21.1355C19.5228 21.1521 19.1989 21.6965 19.1989 21.6965C19.1989 21.6965 18.8043 22.4319 18.3784 23.2095C18.3761 23.213 18.255 23.4343 18.0661 23.4165L16.2929 23.2949C16.2929 23.2949 16.0206 23.2943 15.9197 22.9811C15.6874 22.2623 15.4736 21.5797 15.4463 21.4142C15.3832 21.0334 15.8485 21.0293 15.8485 21.0293Z" fill="#333333"/>
<path d="M10.9456 21.9103C10.9334 22.0675 11.1362 22.2122 11.3976 22.233L18.4704 22.7917C18.7318 22.8124 18.9531 22.7015 18.9653 22.5444C18.9775 22.3872 18.7747 22.2425 18.5133 22.2217L11.4399 21.663C11.1791 21.6417 10.9578 21.7526 10.9456 21.9103Z" fill="#333333"/>
<path d="M19.1887 22.7931C19.1887 23.6198 19.8434 24.29 20.6512 24.29C21.459 24.29 22.1138 23.6198 22.1138 22.7931C22.1138 21.9663 21.459 21.2961 20.6512 21.2961C19.8434 21.2961 19.1887 21.9663 19.1887 22.7931Z" fill="#333333"/>
<path d="M17.2747 18.2912C17.2747 18.4323 17.3864 18.5462 17.5236 18.5462C17.6613 18.5462 17.7725 18.4317 17.7725 18.2912C17.7725 18.15 17.6613 18.0361 17.5236 18.0361C17.3864 18.0361 17.2747 18.15 17.2747 18.2912Z" fill="#A7170D"/>
<path d="M37.3374 17.7208C37.3374 17.7208 35.4582 14.8834 31.9264 15.0898L32.0006 15.3876C32.0012 15.3876 34.9523 15.0572 37.3374 17.7208Z" fill="#DE211B"/>
<path d="M7.57959 15.6311C7.57959 15.6311 5.8922 17.0948 5.37069 19.0965C5.37069 19.0965 5.24031 19.5413 5.1389 20.6089C5.0375 21.6764 4.96507 21.9747 4.38561 22.0329C4.38561 22.0329 5.13891 22.1823 5.23568 21.4415C5.34751 20.5828 5.41357 17.9186 7.57959 15.6311Z" fill="#DE211B"/>
<path d="M30.9044 10.23L31.8298 14.2185C31.8298 14.2185 31.8895 14.5903 32.0952 14.6639C32.0952 14.6639 32.167 14.515 32.0963 13.9961C32.0256 13.4771 31.3013 10.6007 31.3013 10.6007C31.3013 10.6007 31.2468 10.2745 30.9044 10.23Z" fill="#E95433"/>
<path d="M30.9044 10.23L31.8298 14.2185C31.8298 14.2185 31.8895 14.5903 32.0952 14.6639C32.0952 14.6639 32.167 14.515 32.0963 13.9961C32.0256 13.4771 31.3013 10.6007 31.3013 10.6007C31.3013 10.6007 31.2468 10.2745 30.9044 10.23Z" fill="#EC6E35"/>
<path d="M31.4196 12.4498L30.9056 10.2305C31.2477 10.275 31.3015 10.6011 31.3015 10.6011C31.3015 10.6011 31.5284 11.5026 31.7402 12.3869C31.6337 12.4106 31.5267 12.4308 31.4196 12.4498Z" fill="#E95433"/>
<path d="M31.0016 10.3708L31.8882 14.3C31.8882 14.3 31.555 11.7871 31.0016 10.3708Z" fill="#E95433"/>
<path d="M27.218 1.30225L28.7078 5.20414C28.7078 5.20414 29.1071 5.9455 28.8562 6.40514L28.5531 7.0599C28.5531 7.0599 28.4894 7.12158 28.4239 7.0599C28.4239 7.0599 28.4019 7.01364 28.4308 6.96145C28.4598 6.90926 28.7571 6.2717 28.7571 6.2717C28.7571 6.2717 28.837 5.96033 28.6846 5.54517L27.178 1.56439C27.1786 1.5638 27.079 1.32716 27.218 1.30225Z" fill="#C4C4C3"/>
<path d="M3.09892 11.4524C2.96102 11.4524 2.82766 11.4351 2.69883 11.4007C2.57181 11.368 2.46566 11.3181 2.38038 11.251L2.54913 10.9461C2.61082 10.9969 2.68885 11.0369 2.7832 11.0659C2.87937 11.0967 2.97372 11.1122 3.06626 11.1122C3.21687 11.1122 3.32574 11.0786 3.39287 11.0115C3.46182 10.9443 3.4963 10.8445 3.4963 10.7121V10.4916L3.52352 10.1242L3.51807 9.75401V9.43829H3.92089V10.6576C3.92089 10.9298 3.85013 11.1303 3.70859 11.2591C3.56706 11.388 3.36384 11.4524 3.09892 11.4524ZM3.0336 10.8318C2.89751 10.8318 2.77413 10.8028 2.66344 10.7447C2.55457 10.6848 2.46657 10.6023 2.39943 10.497C2.33411 10.39 2.30145 10.2657 2.30145 10.1242C2.30145 9.98082 2.33411 9.85653 2.39943 9.75129C2.46657 9.64423 2.55457 9.56167 2.66344 9.50361C2.77413 9.44555 2.89751 9.41651 3.0336 9.41651C3.15699 9.41651 3.26586 9.44192 3.36021 9.49272C3.45456 9.54171 3.52805 9.61883 3.58067 9.72407C3.63329 9.8275 3.6596 9.96086 3.6596 10.1242C3.6596 10.2857 3.63329 10.419 3.58067 10.5243C3.52805 10.6277 3.45456 10.7048 3.36021 10.7556C3.26586 10.8064 3.15699 10.8318 3.0336 10.8318ZM3.11798 10.4834C3.19237 10.4834 3.2586 10.4689 3.31666 10.4399C3.37473 10.409 3.42009 10.3664 3.45275 10.312C3.48541 10.2575 3.50174 10.1949 3.50174 10.1242C3.50174 10.0516 3.48541 9.98899 3.45275 9.93637C3.42009 9.88193 3.37473 9.8402 3.31666 9.81117C3.2586 9.78032 3.19237 9.7649 3.11798 9.7649C3.04358 9.7649 2.97735 9.78032 2.91929 9.81117C2.86122 9.8402 2.81495 9.88193 2.78048 9.93637C2.74782 9.98899 2.73149 10.0516 2.73149 10.1242C2.73149 10.1949 2.74782 10.2575 2.78048 10.312C2.81495 10.3664 2.86122 10.409 2.91929 10.4399C2.97735 10.4689 3.04358 10.4834 3.11798 10.4834ZM5.01284 10.9244C4.8568 10.9244 4.71799 10.8917 4.59642 10.8264C4.47666 10.7611 4.3814 10.6721 4.31063 10.5596C4.24168 10.4453 4.20721 10.3156 4.20721 10.1704C4.20721 10.0235 4.24168 9.89373 4.31063 9.78123C4.3814 9.66691 4.47666 9.578 4.59642 9.5145C4.71799 9.44918 4.8568 9.41651 5.01284 9.41651C5.16708 9.41651 5.30498 9.44918 5.42655 9.5145C5.54812 9.578 5.64338 9.66601 5.71233 9.77851C5.78128 9.89101 5.81576 10.0216 5.81576 10.1704C5.81576 10.3156 5.78128 10.4453 5.71233 10.5596C5.64338 10.6721 5.54812 10.7611 5.42655 10.8264C5.30498 10.8917 5.16708 10.9244 5.01284 10.9244ZM5.01284 10.576C5.08361 10.576 5.14712 10.5596 5.20337 10.527C5.25961 10.4943 5.30407 10.4481 5.33673 10.3882C5.36939 10.3265 5.38572 10.2539 5.38572 10.1704C5.38572 10.0852 5.36939 10.0126 5.33673 9.9527C5.30407 9.89282 5.25961 9.84655 5.20337 9.81389C5.14712 9.78123 5.08361 9.7649 5.01284 9.7649C4.94208 9.7649 4.87857 9.78123 4.82232 9.81389C4.76607 9.84655 4.72071 9.89282 4.68623 9.9527C4.65357 10.0126 4.63724 10.0852 4.63724 10.1704C4.63724 10.2539 4.65357 10.3265 4.68623 10.3882C4.72071 10.4481 4.76607 10.4943 4.82232 10.527C4.87857 10.5596 4.94208 10.576 5.01284 10.576ZM6.15128 10.9026V9.40563C6.15128 9.24051 6.20027 9.10896 6.29825 9.01097C6.39623 8.91118 6.53595 8.86128 6.7174 8.86128C6.77909 8.86128 6.83806 8.86763 6.89431 8.88033C6.95238 8.89303 7.00137 8.91299 7.04129 8.94021L6.9297 9.24777C6.90611 9.23144 6.8798 9.21873 6.85077 9.20966C6.82173 9.20059 6.79089 9.19605 6.75823 9.19605C6.69653 9.19605 6.64845 9.2142 6.61397 9.25049C6.58131 9.28496 6.56498 9.33758 6.56498 9.40835V9.54444L6.57587 9.72679V10.9026H6.15128ZM5.92537 9.79756V9.47095H6.94058V9.79756H5.92537ZM7.1801 10.9026V8.88305H7.60469V10.9026H7.1801ZM8.72405 10.9244C8.55712 10.9244 8.41014 10.8917 8.28313 10.8264C8.15793 10.7611 8.06085 10.6721 7.9919 10.5596C7.92295 10.4453 7.88847 10.3156 7.88847 10.1704C7.88847 10.0235 7.92204 9.89373 7.98918 9.78123C8.05813 9.66691 8.15158 9.578 8.26952 9.5145C8.38746 9.44918 8.52083 9.41651 8.66962 9.41651C8.81296 9.41651 8.94179 9.44736 9.0561 9.50905C9.17223 9.56893 9.26386 9.65603 9.331 9.77034C9.39814 9.88284 9.4317 10.018 9.4317 10.1759C9.4317 10.1922 9.4308 10.2113 9.42898 10.233C9.42717 10.253 9.42535 10.272 9.42354 10.2902H8.23414V10.0425H9.20036L9.03705 10.116C9.03705 10.0398 9.02163 9.97356 8.99078 9.91732C8.95994 9.86107 8.91729 9.81752 8.86286 9.78667C8.80842 9.75401 8.74492 9.73768 8.67234 9.73768C8.59976 9.73768 8.53534 9.75401 8.47909 9.78667C8.42466 9.81752 8.38202 9.86197 8.35117 9.92004C8.32032 9.97629 8.3049 10.0434 8.3049 10.1214V10.1868C8.3049 10.2666 8.32214 10.3374 8.35661 10.3991C8.3929 10.4589 8.4428 10.5052 8.50631 10.5379C8.57163 10.5687 8.64784 10.5841 8.73494 10.5841C8.81296 10.5841 8.881 10.5723 8.93907 10.5488C8.99895 10.5252 9.05338 10.4898 9.10237 10.4426L9.32828 10.6876C9.26114 10.7638 9.17677 10.8227 9.07516 10.8645C8.97354 10.9044 8.85651 10.9244 8.72405 10.9244ZM9.48944 10.9026L10.1454 10.0425L10.1372 10.2766L9.50849 9.43829H9.98479L10.3822 9.98536L10.2025 9.9908L10.6135 9.43829H11.0653L10.4339 10.2684V10.0398L11.0871 10.9026H10.6054L10.1889 10.3201L10.3658 10.3446L9.95213 10.9026H9.48944Z" fill="white"/>
</svg>
