<svg width="24" height="24" viewBox="0 0 24 24" fill="none" xmlns="http://www.w3.org/2000/svg">
<g clip-path="url(#clip0_962_9740)">
<path d="M4.27215 17.7292L11.4235 21.7819C11.6779 21.9272 11.9278 21.9999 12.1731 21.9999C12.4185 21.9999 12.6714 21.9272 12.9318 21.7819L20.0741 17.7292C20.4921 17.4869 20.8086 17.2127 21.0236 16.9068C21.2387 16.6008 21.3462 16.1238 21.3462 15.4756V8.27888C21.3462 7.80637 21.2569 7.41564 21.0782 7.10668C20.8995 6.79773 20.6193 6.53119 20.2377 6.30705L13.8042 2.65415C13.259 2.33915 12.7168 2.18164 12.1777 2.18164C11.6385 2.18164 11.0933 2.33915 10.542 2.65415L4.11767 6.30705C3.72997 6.53119 3.44677 6.79773 3.26806 7.10668C3.08935 7.41564 3 7.80637 3 8.27888V15.4756C3 16.1238 3.10904 16.6008 3.32712 16.9068C3.54521 17.2127 3.86022 17.4869 4.27215 17.7292ZM5.08996 16.5297C4.82342 16.3782 4.63865 16.2192 4.53567 16.0526C4.43269 15.886 4.3812 15.6786 4.3812 15.4302V8.56966L11.4598 12.6132V20.1553L5.08996 16.5297ZM19.2654 16.5297L12.8864 20.1553V12.6132L19.965 8.56966V15.4302C19.965 15.6786 19.9135 15.886 19.8106 16.0526C19.7076 16.2192 19.5259 16.3782 19.2654 16.5297ZM12.1777 11.3412L5.16266 7.3702L7.97048 5.76184L14.9855 9.75094L12.1777 11.3412ZM16.4484 8.92405L9.4062 4.94402L11.1509 3.95357C11.8415 3.5598 12.526 3.5598 13.2045 3.95357L19.1926 7.3702L16.4484 8.92405Z" fill="black" fill-opacity="0.85"/>
</g>
<defs>
<clipPath id="clip0_962_9740">
<rect width="18.3462" height="20" fill="white" transform="translate(3 2)"/>
</clipPath>
</defs>
</svg>
