<svg width="24" height="24" viewBox="0 0 24 24" fill="none" xmlns="http://www.w3.org/2000/svg">
<path fill-rule="evenodd" clip-rule="evenodd" d="M5.58579 4.58566C5 5.17142 5 6.11421 5 7.99979V16.9996C5 18.8852 5 19.8279 5.58579 20.4137C6.17157 20.9995 7.11438 20.9995 9 20.9995H15C16.8856 20.9995 17.8284 20.9995 18.4142 20.4137C19 19.8279 19 18.8852 19 16.9996V7.99979C19 6.11421 19 5.17142 18.4142 4.58566C17.8284 3.99988 16.8856 3.99988 15 3.99988H9C7.11438 3.99988 6.17157 3.99988 5.58579 4.58566ZM9 7.99979C8.44772 7.99979 8 8.4475 8 8.99977C8 9.55204 8.44772 9.99975 9 9.99975H15C15.5523 9.99975 16 9.55204 16 8.99977C16 8.4475 15.5523 7.99979 15 7.99979H9ZM9 11.9997C8.44772 11.9997 8 12.4474 8 12.9997C8 13.552 8.44772 13.9997 9 13.9997H15C15.5523 13.9997 16 13.552 16 12.9997C16 12.4474 15.5523 11.9997 15 11.9997H9ZM9 15.9996C8.44772 15.9996 8 16.4473 8 16.9996C8 17.5519 8.44772 17.9996 9 17.9996H13C13.5523 17.9996 14 17.5519 14 16.9996C14 16.4473 13.5523 15.9996 13 15.9996H9Z" fill="#F2622E"/>
</svg>
