<svg width="24" height="24" viewBox="0 0 24 24" fill="none" xmlns="http://www.w3.org/2000/svg">
<g clip-path="url(#clip0_979_949)">
<path d="M3.94991 17.9357H17.105C17.7331 17.9357 18.2152 17.772 18.5515 17.4446C18.8878 17.1172 19.0559 16.6395 19.0559 16.0115V10.553L17.9803 11.6287V16.065C17.9803 16.3411 17.9045 16.5549 17.7531 16.7064C17.6016 16.8578 17.3879 16.9335 17.1117 16.9335H3.94323C3.66708 16.9335 3.45328 16.8578 3.30184 16.7064C3.15041 16.5549 3.07469 16.3411 3.07469 16.065V10.4461C3.07469 9.86711 3.3642 9.5776 3.94323 9.5776H14.8335L15.8423 8.57543H3.94991C3.32188 8.57543 2.83973 8.738 2.50345 9.06315C2.16716 9.38829 1.99902 9.86711 1.99902 10.4996V16.0115C1.99902 16.6395 2.16716 17.1172 2.50345 17.4446C2.83973 17.772 3.32188 17.9357 3.94991 17.9357ZM5.5467 14.2076C5.80949 14.2076 6.03442 14.1141 6.22149 13.927C6.40856 13.7399 6.5021 13.515 6.5021 13.2522C6.5021 12.9894 6.40856 12.7645 6.22149 12.5774C6.03442 12.3904 5.80949 12.2968 5.5467 12.2968C5.28391 12.2968 5.05898 12.3904 4.87191 12.5774C4.68483 12.7645 4.5913 12.9894 4.5913 13.2522C4.5913 13.515 4.68483 13.7399 4.87191 13.927C5.05898 14.1141 5.28391 14.2076 5.5467 14.2076ZM8.42626 14.2076C8.68905 14.2076 8.91399 14.1141 9.10108 13.927C9.28813 13.7399 9.38165 13.515 9.38165 13.2522C9.38165 12.9894 9.28813 12.7645 9.10108 12.5774C8.91399 12.3904 8.68905 12.2968 8.42626 12.2968C8.16347 12.2968 7.93854 12.3904 7.75147 12.5774C7.5644 12.7645 7.47086 12.9894 7.47086 13.2522C7.47086 13.515 7.5644 13.7399 7.75147 13.927C7.93854 14.1141 8.16347 14.2076 8.42626 14.2076ZM11.3058 14.2076C11.5686 14.2076 11.7935 14.1141 11.9806 13.927C12.1677 13.7399 12.2612 13.515 12.2612 13.2522C12.2612 12.9894 12.1677 12.7645 11.9806 12.5774C11.7935 12.3904 11.5686 12.2968 11.3058 12.2968C11.043 12.2968 10.8181 12.3904 10.631 12.5774C10.4439 12.7645 10.3504 12.9894 10.3504 13.2522C10.3504 13.515 10.4439 13.7399 10.631 13.927C10.8181 14.1141 11.043 14.2076 11.3058 14.2076ZM13.5774 13.5997L14.9403 12.9984L20.8264 7.11895L19.8844 6.19026L14.0117 12.0696L13.3703 13.3859C13.3391 13.4437 13.3502 13.5016 13.4037 13.5596C13.4571 13.6174 13.515 13.6308 13.5774 13.5997ZM21.3208 6.61786L21.8219 6.1101C21.9377 5.98983 21.9967 5.8551 21.999 5.70589C22.0012 5.55668 21.9444 5.42417 21.8286 5.30836L21.6682 5.14801C21.5613 5.04111 21.4333 4.99212 21.2841 5.00103C21.1349 5.00994 21.0046 5.07007 20.8932 5.18142L20.3922 5.67582L21.3208 6.61786Z" fill="black" fill-opacity="0.85"/>
</g>
<defs>
<clipPath id="clip0_979_949">
<rect width="20" height="13.5982" fill="white" transform="translate(2 5)"/>
</clipPath>
</defs>
</svg>
