<svg width="80" height="80" viewBox="0 0 80 80" fill="none" xmlns="http://www.w3.org/2000/svg">
<path d="M51.79 54.1545C48.9637 52.4295 47.9496 52.6033 47.9496 49.1568C47.9496 47.9505 47.9496 45.7093 47.9496 43.6416C49.5008 41.919 50.065 42.1334 51.3768 35.3699C54.0295 35.3699 53.8576 31.9234 55.1088 28.8663C56.1286 26.3767 55.2744 25.3674 54.4154 24.9549C55.1176 15.8825 55.1176 9.63418 44.8202 7.69582C41.0876 4.49657 35.4553 5.58273 32.7863 6.1166C30.1195 6.65047 27.7139 6.1166 27.7139 6.1166L28.172 10.4151C24.2669 15.1016 26.2197 21.3499 25.591 25.0096C24.7717 25.456 24.0327 26.4851 25.0083 28.8663C26.2593 31.9234 26.0875 35.3699 28.7403 35.3699C30.0521 42.1334 30.6161 41.919 32.1675 43.6416C32.1675 45.7093 32.1675 47.9505 32.1675 49.1568C32.1675 52.6033 30.9962 52.6627 28.3272 54.1545C21.8924 57.7513 13.5071 59.841 12.0047 71.0824C11.7295 73.1385 23.535 75.3831 40.0585 75.3902C56.5821 75.3831 68.387 73.1385 68.1125 71.0824C66.6101 59.841 58.148 58.0333 51.79 54.1545Z" fill="#012611"/>
</svg>
