<svg width="24" height="24" viewBox="0 0 24 24" fill="none" xmlns="http://www.w3.org/2000/svg">
<g clip-path="url(#clip0_962_9730)">
<path d="M3 7.09975C3 7.35387 3.07876 7.55717 3.23629 7.70964C3.39381 7.86211 3.60197 7.93834 3.86076 7.93834H6.05485V18.3317C6.05485 19.2183 6.27426 19.8833 6.71308 20.3266C7.15189 20.7698 7.81293 20.9915 8.6962 20.9915H18.3418C18.8762 20.9915 19.3431 20.8771 19.7426 20.6484C20.1421 20.4197 20.4515 20.0979 20.6709 19.6828C20.8903 19.2677 21 18.7806 21 18.2216V15.9176C21 15.6635 20.9226 15.4602 20.7679 15.3078C20.6132 15.1553 20.4037 15.079 20.1392 15.079H19.4388V5.65976C19.4388 4.77317 19.2208 4.10823 18.7848 3.66494C18.3488 3.22165 17.6948 3 16.8228 3H5.21096C4.55274 3 4.01969 3.20894 3.61181 3.62682C3.20394 4.0447 3 4.60658 3 5.31247V7.09975ZM7.4135 18.3402V5.31247C7.4135 5.13741 7.40506 4.97082 7.38818 4.8127C7.3713 4.65459 7.34599 4.50494 7.31223 4.36377H16.7468C17.1856 4.36377 17.5175 4.4767 17.7426 4.70258C17.9676 4.92847 18.0802 5.25317 18.0802 5.6767V15.079H10.8312C10.5668 15.079 10.3558 15.1553 10.1983 15.3078C10.0408 15.4602 9.96202 15.6635 9.96202 15.9176V18.3402C9.96202 18.7242 9.84247 19.0348 9.60337 19.272C9.36427 19.5091 9.06188 19.6277 8.6962 19.6277C8.31926 19.6277 8.01125 19.5063 7.77215 19.2635C7.53305 19.0207 7.4135 18.7129 7.4135 18.3402ZM4.35865 6.57458V5.31247C4.35865 5.01882 4.43882 4.78729 4.59916 4.61787C4.7595 4.44847 4.96343 4.36377 5.21096 4.36377C5.46413 4.36377 5.66807 4.44847 5.82278 4.61787C5.97749 4.78729 6.05485 5.01882 6.05485 5.31247V6.57458H4.35865ZM10.9916 19.6277C11.211 19.2381 11.3207 18.7778 11.3207 18.247V16.4427H19.6413V18.2216C19.6413 18.6395 19.5218 18.9783 19.2827 19.2381C19.0436 19.4978 18.7299 19.6277 18.3418 19.6277H10.9916ZM9.84387 10.903H12.8734C13.0253 10.903 13.1505 10.8536 13.249 10.7548C13.3474 10.656 13.3966 10.536 13.3966 10.3948C13.3966 10.2423 13.3474 10.1153 13.249 10.0136C13.1505 9.91199 13.0253 9.86116 12.8734 9.86116H9.84387C9.69198 9.86116 9.56539 9.91199 9.46413 10.0136C9.36286 10.1153 9.31223 10.2423 9.31223 10.3948C9.31223 10.536 9.36286 10.656 9.46413 10.7548C9.56539 10.8536 9.69198 10.903 9.84387 10.903ZM9.84387 7.94681H15.6498C15.8017 7.94681 15.9268 7.89598 16.0253 7.79434C16.1237 7.69269 16.1729 7.56846 16.1729 7.42164C16.1729 7.27481 16.1237 7.15199 16.0253 7.05317C15.9268 6.95434 15.8017 6.90493 15.6498 6.90493H9.84387C9.69198 6.90493 9.56539 6.95434 9.46413 7.05317C9.36286 7.15199 9.31223 7.27481 9.31223 7.42164C9.31223 7.56846 9.36286 7.69269 9.46413 7.79434C9.56539 7.89598 9.69198 7.94681 9.84387 7.94681Z" fill="black" fill-opacity="0.85"/>
</g>
<defs>
<clipPath id="clip0_962_9730">
<rect width="18" height="18" fill="white" transform="translate(3 3)"/>
</clipPath>
</defs>
</svg>
