<svg width="56" height="56" viewBox="0 0 56 56" fill="none" xmlns="http://www.w3.org/2000/svg">
<circle cx="28" cy="28" r="28" fill="#F2622E" fill-opacity="0.12"/>
<g clip-path="url(#clip0_978_871)">
<path d="M12.861 55.8807H43.1391C44.3434 55.8807 45.2879 55.6135 45.9728 55.0791C46.6576 54.5447 47 53.8109 47 52.8776C47 51.4325 46.5598 49.9047 45.6793 48.2941C44.7988 46.6835 43.5343 45.1745 41.8859 43.7671C40.2377 42.3596 38.2433 41.2156 35.9025 40.335C33.562 39.4545 30.924 39.0142 27.9888 39.0142C25.0686 39.0142 22.4381 39.4545 20.0975 40.335C17.7568 41.2156 15.7586 42.3596 14.1028 43.7671C12.447 45.1745 11.1826 46.6835 10.3096 48.2941C9.43652 49.9047 9 51.4325 9 52.8776C9 53.8109 9.34245 54.5447 10.0273 55.0791C10.7122 55.6135 11.6568 55.8807 12.861 55.8807ZM28.0114 34.9726C29.622 34.9726 31.1121 34.5324 32.4818 33.6518C33.8517 32.7712 34.9543 31.5783 35.7897 30.073C36.6251 28.5678 37.0428 26.8744 37.0428 24.9928C37.0428 23.1413 36.6251 21.4818 35.7897 20.0142C34.9543 18.5466 33.8517 17.3913 32.4818 16.5483C31.1121 15.7054 29.622 15.2839 28.0114 15.2839C26.4007 15.2839 24.9105 15.7129 23.5407 16.5709C22.171 17.4289 21.0684 18.5955 20.233 20.0706C19.3975 21.5458 18.9798 23.2016 18.9798 25.038C18.9798 26.9045 19.3975 28.5866 20.233 30.0843C21.0684 31.5821 22.171 32.7712 23.5407 33.6518C24.9105 34.5324 26.4007 34.9726 28.0114 34.9726Z" fill="black" fill-opacity="0.54"/>
</g>
<defs>
<clipPath id="clip0_978_871">
<rect width="38" height="41.3419" fill="white" transform="translate(9 14.5391)"/>
</clipPath>
</defs>
</svg>
