<svg width="100" height="100" viewBox="0 0 100 100" fill="none" xmlns="http://www.w3.org/2000/svg">
<circle cx="50" cy="50" r="50" fill="#555555"/>
<g clip-path="url(#clip0_978_872)">
<path d="M22.9659 99.7872H77.0339C79.1844 99.7872 80.8711 99.3101 82.0941 98.3558C83.317 97.4015 83.9284 96.091 83.9284 94.4244C83.9284 91.844 83.1423 89.1158 81.5701 86.2397C79.9976 83.3637 77.7397 80.669 74.7962 78.1557C71.853 75.6425 68.2914 73.5996 64.1115 72.0271C59.9319 70.4546 55.2213 69.6684 49.9798 69.6684C44.7652 69.6684 40.068 70.4546 35.8882 72.0271C31.7084 73.5996 28.1402 75.6425 25.1834 78.1557C22.2267 80.669 19.9688 83.3637 18.4098 86.2397C16.8508 89.1158 16.0713 91.844 16.0713 94.4244C16.0713 96.091 16.6828 97.4015 17.9058 98.3558C19.1288 99.3101 20.8155 99.7872 22.9659 99.7872ZM50.0201 62.4514C52.8962 62.4514 55.5572 61.6651 58.0031 60.0927C60.4492 58.5202 62.4182 56.39 63.9101 53.7021C65.4019 51.0141 66.1478 47.9902 66.1478 44.6302C66.1478 41.3241 65.4019 38.3606 63.9101 35.7398C62.4182 33.1191 60.4492 31.0561 58.0031 29.5508C55.5572 28.0456 52.8962 27.293 50.0201 27.293C47.144 27.293 44.4829 28.059 42.0369 29.5912C39.5909 31.1233 37.6219 33.2065 36.1301 35.8407C34.6383 38.4748 33.8924 41.4316 33.8924 44.7109C33.8924 48.0439 34.6383 51.0477 36.1301 53.7222C37.6219 56.3968 39.5909 58.5202 42.0369 60.0927C44.4829 61.6651 47.144 62.4514 50.0201 62.4514Z" fill="white" fill-opacity="0.54"/>
</g>
<defs>
<clipPath id="clip0_978_872">
<rect width="67.8571" height="73.8248" fill="white" transform="translate(16.0713 25.9626)"/>
</clipPath>
</defs>
</svg>
