<svg width="24" height="24" viewBox="0 0 24 24" fill="none" xmlns="http://www.w3.org/2000/svg">
<g clip-path="url(#clip0_962_9769)">
<g clip-path="url(#clip1_962_9769)">
<path d="M6.39258 21.4082H18.668C20.263 21.4082 21.0605 20.8874 21.0605 19.8457C21.0605 19.2077 20.8652 18.5274 20.4746 17.8047C20.084 17.082 19.5192 16.4001 18.7803 15.7588C18.0414 15.1175 17.1462 14.5951 16.0947 14.1914C15.0433 13.7877 13.8568 13.5859 12.5352 13.5859C11.207 13.5859 10.0173 13.7877 8.96582 14.1914C7.91439 14.5951 7.0192 15.1175 6.28027 15.7588C5.54134 16.4001 4.97657 17.082 4.58594 17.8047C4.19531 18.5274 4 19.2077 4 19.8457C4 20.8874 4.79753 21.4082 6.39258 21.4082ZM5.93359 19.9336C5.80338 19.9336 5.71061 19.9141 5.65527 19.875C5.59994 19.8359 5.57227 19.7643 5.57227 19.6602C5.57227 19.2631 5.72364 18.8024 6.02637 18.2783C6.3291 17.7542 6.77669 17.2481 7.36914 16.7598C7.96159 16.2715 8.69075 15.8662 9.55664 15.5439C10.4225 15.2216 11.4154 15.0605 12.5352 15.0605C13.6549 15.0605 14.6461 15.2216 15.5088 15.5439C16.3714 15.8662 17.0989 16.2715 17.6914 16.7598C18.2839 17.2481 18.7315 17.7542 19.0342 18.2783C19.3369 18.8024 19.4883 19.2631 19.4883 19.6602C19.4883 19.7643 19.4606 19.8359 19.4053 19.875C19.35 19.9141 19.2604 19.9336 19.1367 19.9336H5.93359ZM12.5352 12.375C13.3099 12.375 14.0163 12.1667 14.6543 11.75C15.2923 11.3333 15.8017 10.7783 16.1826 10.085C16.5635 9.3916 16.7539 8.625 16.7539 7.78516C16.7539 6.95183 16.5651 6.19824 16.1875 5.52441C15.8099 4.85058 15.3021 4.3151 14.6641 3.91797C14.0261 3.52083 13.3164 3.32227 12.5352 3.32227C11.7604 3.32227 11.054 3.52409 10.416 3.92773C9.77799 4.33138 9.26855 4.87174 8.8877 5.54883C8.50684 6.22591 8.31641 6.97786 8.31641 7.80469C8.31641 8.63802 8.50684 9.40137 8.8877 10.0947C9.26855 10.7881 9.77799 11.3415 10.416 11.7549C11.054 12.1683 11.7604 12.375 12.5352 12.375ZM12.5352 10.9004C12.0599 10.9004 11.6221 10.762 11.2217 10.4853C10.8213 10.2087 10.499 9.83594 10.2549 9.36719C10.0107 8.89844 9.88867 8.3776 9.88867 7.80469C9.88867 7.23828 10.0091 6.72884 10.25 6.27637C10.4909 5.8239 10.8115 5.4642 11.2119 5.19727C11.6123 4.93034 12.0534 4.79688 12.5352 4.79688C13.0234 4.79688 13.4678 4.92709 13.8682 5.1875C14.2686 5.44791 14.5876 5.80436 14.8252 6.25684C15.0628 6.70931 15.1816 7.21875 15.1816 7.78516C15.1816 8.35807 15.0612 8.88053 14.8203 9.35254C14.5794 9.82455 14.2588 10.2005 13.8584 10.4805C13.458 10.7604 13.0169 10.9004 12.5352 10.9004Z" fill="black" fill-opacity="0.85"/>
</g>
</g>
<defs>
<clipPath id="clip0_962_9769">
<rect width="18.3462" height="20" fill="white" transform="translate(3 2)"/>
</clipPath>
<clipPath id="clip1_962_9769">
<rect width="17.0605" height="18.4082" fill="white" transform="translate(4 3)"/>
</clipPath>
</defs>
</svg>
