<svg width="24" height="24" viewBox="0 0 24 24" fill="none" xmlns="http://www.w3.org/2000/svg">
<path d="M12 4C7.58172 4 4 7.58172 4 12C4 16.4182 7.58172 20 12 20C16.4182 20 20 16.4182 20 12C20 7.58172 16.4182 4 12 4Z" stroke="black" stroke-opacity="0.5" stroke-width="1.2" stroke-linecap="round" stroke-linejoin="round"/>
<path d="M5.81689 17.0766C5.81689 17.0766 7.60011 14.8 12.0001 14.8C16.4001 14.8 18.1834 17.0766 18.1834 17.0766" stroke="black" stroke-opacity="0.5" stroke-width="1.2" stroke-linecap="round" stroke-linejoin="round"/>
<path d="M12.0001 12.0001C13.3256 12.0001 14.4001 10.9256 14.4001 9.60007C14.4001 8.27459 13.3256 7.20007 12.0001 7.20007C10.6746 7.20007 9.6001 8.27459 9.6001 9.60007C9.6001 10.9256 10.6746 12.0001 12.0001 12.0001Z" stroke="black" stroke-opacity="0.5" stroke-width="1.2" stroke-linecap="round" stroke-linejoin="round"/>
</svg>
