<svg width="24" height="24" viewBox="0 0 24 24" fill="none" xmlns="http://www.w3.org/2000/svg">
<path d="M12 3C7.02943 3 3 7.02943 3 12C3 16.9705 7.02943 21 12 21C16.9705 21 21 16.9705 21 12C21 7.02943 16.9705 3 12 3Z" fill="#F2622E" stroke="white" stroke-width="1.35" stroke-linecap="round" stroke-linejoin="round"/>
<path d="M5.04395 17.7112C5.04395 17.7112 7.05006 15.15 12 15.15C16.95 15.15 18.9562 17.7112 18.9562 17.7112" fill="#F2622E"/>
<path d="M5.04395 17.7112C5.04395 17.7112 7.05006 15.15 12 15.15C16.95 15.15 18.9562 17.7112 18.9562 17.7112" stroke="white" stroke-width="1.35" stroke-linecap="round" stroke-linejoin="round"/>
<path d="M12 12C13.4913 12 14.7 10.7912 14.7 9.29998C14.7 7.80881 13.4913 6.59998 12 6.59998C10.5088 6.59998 9.30005 7.80881 9.30005 9.29998C9.30005 10.7912 10.5088 12 12 12Z" fill="#F2622E" stroke="white" stroke-width="1.35" stroke-linecap="round" stroke-linejoin="round"/>
</svg>
