<svg width="19" height="22" viewBox="0 0 19 22" fill="none" xmlns="http://www.w3.org/2000/svg">
<path d="M14.3333 8.80167C14.3333 7.29289 13.7715 5.8459 12.7712 4.77903C11.771 3.71215 10.4145 3.11279 9 3.11279C7.58551 3.11279 6.22896 3.71215 5.22876 4.77903C4.22857 5.8459 3.66667 7.29289 3.66667 8.80167C3.66667 15.4387 1 17.335 1 17.335H17C17 17.335 14.3333 15.4387 14.3333 8.80167Z" fill="white" stroke="white" stroke-width="1.33333" stroke-linecap="round" stroke-linejoin="round"/>
<path d="M10.538 20.0015C10.3817 20.2709 10.1574 20.4945 9.88747 20.6499C9.6176 20.8054 9.31165 20.8872 9.00018 20.8872C8.68871 20.8872 8.38276 20.8054 8.11289 20.6499C7.84302 20.4945 7.61867 20.2709 7.4624 20.0015" fill="white"/>
<path d="M10.538 20.0015C10.3817 20.2709 10.1574 20.4945 9.88747 20.6499C9.6176 20.8054 9.31165 20.8872 9.00018 20.8872C8.68871 20.8872 8.38276 20.8054 8.11289 20.6499C7.84302 20.4945 7.61867 20.2709 7.4624 20.0015" stroke="white" stroke-width="1.33333" stroke-linecap="round" stroke-linejoin="round"/>
<path d="M14.9991 7.00105C16.6563 7.00105 17.9996 5.65766 17.9996 4.00052C17.9996 2.34339 16.6563 1 14.9991 1C13.3419 1 11.9985 2.34339 11.9985 4.00052C11.9985 5.65766 13.3419 7.00105 14.9991 7.00105Z" fill="#F2622E" stroke="#F2622E" stroke-width="1.50026" stroke-linecap="round" stroke-linejoin="round"/>
</svg>
