<svg width="24" height="24" viewBox="0 0 24 24" fill="none" xmlns="http://www.w3.org/2000/svg">
<path d="M18.0026 8.40112C18.0026 6.70343 17.3704 5.07529 16.2449 3.87485C15.1195 2.6744 13.5932 2 12.0016 2C10.41 2 8.88361 2.6744 7.75819 3.87485C6.63278 5.07529 6.00053 6.70343 6.00053 8.40112C6.00053 15.8691 3 18.0028 3 18.0028H21.0032C21.0032 18.0028 18.0026 15.8691 18.0026 8.40112Z" fill="#222222" stroke="#222222" stroke-width="1.50026" stroke-linecap="round" stroke-linejoin="round"/>
<path d="M13.7321 21.0034C13.5563 21.3066 13.3039 21.5582 13.0002 21.733C12.6965 21.908 12.3522 22.0001 12.0018 22.0001C11.6513 22.0001 11.3071 21.908 11.0034 21.733C10.6998 21.5582 10.4473 21.3066 10.2715 21.0034" fill="#222222"/>
<path d="M13.7321 21.0034C13.5563 21.3066 13.3039 21.5582 13.0002 21.733C12.6965 21.908 12.3522 22.0001 12.0018 22.0001C11.6513 22.0001 11.3071 21.908 11.0034 21.733C10.6998 21.5582 10.4473 21.3066 10.2715 21.0034" stroke="#222222" stroke-width="1.50026" stroke-linecap="round" stroke-linejoin="round"/>
</svg>
