<svg width="59" height="60" viewBox="0 0 59 60" fill="none" xmlns="http://www.w3.org/2000/svg">
<path d="M10.251 0L58.6684 0.189872L58.2886 0.94936H10.4408L10.251 0Z" fill="black" fill-opacity="0.2"/>
<path d="M0 12.9121L48.4174 13.102L48.0376 14.0513L0.379744 13.8615L0 12.9121Z" fill="black" fill-opacity="0.2"/>
<path d="M0 59.0488H48.4174L48.4174 59.9982H0.379809L0 59.0488Z" fill="black" fill-opacity="0.2"/>
<path d="M10.2531 0L10.8227 0.569616L0.94936 13.1012L0 12.9113L10.2531 0Z" fill="black" fill-opacity="0.2"/>
<path d="M57.7203 0.379395L58.6697 0.569267L48.4166 13.6704L47.2773 13.4806L57.7203 0.379395Z" fill="black" fill-opacity="0.2"/>
<path d="M57.9103 46.5195L58.6698 46.7094L48.4167 60.0004L47.6572 59.6207L57.9103 46.5195Z" fill="black" fill-opacity="0.2"/>
<path d="M0 12.9121L0.94936 13.2919V60.0004H0V12.9121Z" fill="black" fill-opacity="0.2"/>
<path d="M47.4688 13.4816L48.4181 13.2383V60.0002H47.4688V13.4816Z" fill="black" fill-opacity="0.2"/>
<path d="M57.7197 0.568709L58.6691 0.188965V46.7076L57.7197 47.0874V0.568709Z" fill="black" fill-opacity="0.2"/>
<path d="M23.8597 45.288C22.5157 45.288 21.2277 45.112 19.9957 44.76C18.7637 44.392 17.7717 43.92 17.0197 43.344L18.3397 40.416C19.0597 40.928 19.9077 41.352 20.8837 41.688C21.8757 42.008 22.8757 42.168 23.8837 42.168C24.6517 42.168 25.2677 42.096 25.7317 41.952C26.2117 41.792 26.5637 41.576 26.7877 41.304C27.0117 41.032 27.1237 40.72 27.1237 40.368C27.1237 39.92 26.9477 39.568 26.5957 39.312C26.2437 39.04 25.7797 38.824 25.2037 38.664C24.6277 38.488 23.9877 38.328 23.2837 38.184C22.5957 38.024 21.8997 37.832 21.1957 37.608C20.5077 37.384 19.8757 37.096 19.2997 36.744C18.7237 36.392 18.2517 35.928 17.8837 35.352C17.5317 34.776 17.3557 34.04 17.3557 33.144C17.3557 32.184 17.6117 31.312 18.1237 30.528C18.6517 29.728 19.4357 29.096 20.4757 28.632C21.5317 28.152 22.8517 27.912 24.4357 27.912C25.4917 27.912 26.5317 28.04 27.5557 28.296C28.5797 28.536 29.4837 28.904 30.2677 29.4L29.0677 32.352C28.2837 31.904 27.4997 31.576 26.7157 31.368C25.9317 31.144 25.1637 31.032 24.4117 31.032C23.6597 31.032 23.0437 31.12 22.5637 31.296C22.0837 31.472 21.7397 31.704 21.5317 31.992C21.3237 32.264 21.2197 32.584 21.2197 32.952C21.2197 33.384 21.3957 33.736 21.7477 34.008C22.0997 34.264 22.5637 34.472 23.1397 34.632C23.7157 34.792 24.3477 34.952 25.0357 35.112C25.7397 35.272 26.4357 35.456 27.1237 35.664C27.8277 35.872 28.4677 36.152 29.0437 36.504C29.6197 36.856 30.0837 37.32 30.4357 37.896C30.8037 38.472 30.9877 39.2 30.9877 40.08C30.9877 41.024 30.7237 41.888 30.1957 42.672C29.6677 43.456 28.8757 44.088 27.8197 44.568C26.7797 45.048 25.4597 45.288 23.8597 45.288Z" fill="black" fill-opacity="0.2"/>
<path d="M10.1559 0L58.6357 0.191691L58.4441 46.9643L48.0966 59.9993H0V13.035L10.1559 0Z" fill="black" fill-opacity="0.2"/>
</svg>
