<svg width="24" height="24" viewBox="0 0 24 24" fill="none" xmlns="http://www.w3.org/2000/svg">
<g clip-path="url(#clip0_959_9687)">
<path d="M11.1505 20.9916H12.8495C13.1748 20.9916 13.4538 20.9004 13.6864 20.7181C13.9192 20.5357 14.072 20.2875 14.1449 19.9734L14.5066 18.3997L14.7757 18.3072L16.1468 19.1486C16.4159 19.3226 16.6991 19.3899 16.9963 19.3506C17.2935 19.3113 17.5571 19.1767 17.787 18.9467L18.9646 17.7769C19.1944 17.5469 19.329 17.2833 19.3682 16.986C19.4075 16.6886 19.3402 16.4053 19.1664 16.136L18.3084 14.7728L18.4094 14.5203L19.9823 14.1501C20.2907 14.0771 20.5374 13.9228 20.7225 13.6872C20.9075 13.4516 21 13.1739 21 12.8541V11.1879C21 10.8682 20.9075 10.5905 20.7225 10.3548C20.5374 10.1192 20.2907 9.96493 19.9823 9.892L18.4262 9.51331L18.3168 9.24403L19.1748 7.88078C19.3486 7.61149 19.4159 7.32959 19.3767 7.03506C19.3374 6.74053 19.2028 6.47545 18.9729 6.23983L17.7953 5.06171C17.571 4.8373 17.3103 4.70546 17.0131 4.66619C16.7159 4.62692 16.4328 4.69144 16.1636 4.85974L14.7925 5.70126L14.5066 5.59186L14.1449 4.01823C14.072 3.70968 13.9192 3.46283 13.6864 3.2777C13.4538 3.09257 13.1748 3 12.8495 3H11.1505C10.8252 3 10.5463 3.09257 10.3136 3.2777C10.0809 3.46283 9.92805 3.70968 9.85515 4.01823L9.48506 5.59186L9.19908 5.70126L7.83645 4.85974C7.56169 4.69144 7.27711 4.62692 6.98271 4.66619C6.68832 4.70546 6.42618 4.8373 6.19627 5.06171L5.02711 6.23983C4.79159 6.47545 4.65561 6.74053 4.61916 7.03506C4.58271 7.32959 4.65141 7.61149 4.82524 7.88078L5.67477 9.24403L5.57384 9.51331L4.01776 9.892C3.70374 9.96493 3.45561 10.1192 3.27337 10.3548C3.09112 10.5905 3 10.8682 3 11.1879V12.8541C3 13.1739 3.09252 13.4516 3.27757 13.6872C3.46262 13.9228 3.70935 14.0771 4.01776 14.1501L5.59066 14.5203L5.68318 14.7728L4.83365 16.136C4.65982 16.4053 4.59112 16.6886 4.62757 16.986C4.66402 17.2833 4.8 17.5469 5.03552 17.7769L6.20468 18.9467C6.43458 19.1767 6.69813 19.3113 6.99533 19.3506C7.29253 19.3899 7.57851 19.3226 7.85328 19.1486L9.2159 18.3072L9.48506 18.3997L9.85515 19.9734C9.92805 20.2875 10.0809 20.5357 10.3136 20.7181C10.5463 20.9004 10.8252 20.9916 11.1505 20.9916ZM11.2851 19.6788C11.1449 19.6788 11.0636 19.6143 11.0411 19.4853L10.5365 17.3983C10.2785 17.3366 10.0332 17.2567 9.80048 17.1585C9.56777 17.0603 9.36169 16.9551 9.18225 16.8429L7.34861 17.9705C7.24767 18.0434 7.14393 18.0294 7.03739 17.9284L6.04487 16.9355C5.95515 16.8513 5.94393 16.7475 6.01122 16.6241L7.13833 14.8065C7.043 14.6269 6.94487 14.4222 6.84393 14.1921C6.743 13.9621 6.65889 13.7181 6.59159 13.46L4.50561 12.9635C4.37664 12.9411 4.31215 12.8597 4.31215 12.7195V11.3142C4.31215 11.1795 4.37664 11.0982 4.50561 11.0701L6.58319 10.5652C6.65047 10.2903 6.73879 10.0351 6.84813 9.79943C6.95748 9.56381 7.0486 9.36745 7.12151 9.21037L6.00281 7.3927C5.92992 7.26928 5.93832 7.15988 6.02804 7.06451L7.02898 6.08835C7.12992 5.99859 7.23646 5.98457 7.34861 6.04628L9.16543 7.14866C9.34487 7.04768 9.55655 6.9467 9.80048 6.84572C10.0444 6.74474 10.2925 6.66058 10.5449 6.59326L11.0411 4.50631C11.0636 4.37728 11.1449 4.31276 11.2851 4.31276H12.715C12.8551 4.31276 12.9336 4.37728 12.9505 4.50631L13.4635 6.61009C13.7271 6.67741 13.9724 6.76016 14.1995 6.85834C14.4266 6.95652 14.6327 7.0561 14.8178 7.15708L16.643 6.04628C16.7607 5.98457 16.8701 5.99859 16.9711 6.08835L17.9635 7.06451C18.0589 7.15988 18.0673 7.26928 17.9888 7.3927L16.8701 9.21037C16.9486 9.36745 17.0411 9.56381 17.1477 9.79943C17.2542 10.0351 17.3411 10.2903 17.4084 10.5652L19.4944 11.0701C19.6234 11.0982 19.6879 11.1795 19.6879 11.3142V12.7195C19.6879 12.8597 19.6234 12.9411 19.4944 12.9635L17.4001 13.46C17.3328 13.7181 17.2501 13.9621 17.1519 14.1921C17.0538 14.4222 16.9543 14.6269 16.8533 14.8065L17.9804 16.6241C18.0533 16.7475 18.0421 16.8513 17.9467 16.9355L16.9626 17.9284C16.8561 18.0294 16.7496 18.0434 16.643 17.9705L14.8093 16.8429C14.6299 16.9551 14.4252 17.0603 14.1953 17.1585C13.9655 17.2567 13.7215 17.3366 13.4635 17.3983L12.9505 19.4853C12.9336 19.6143 12.8551 19.6788 12.715 19.6788H11.2851ZM12 15.2103C12.5888 15.2103 13.1257 15.0659 13.6107 14.777C14.0958 14.4881 14.4828 14.0996 14.7715 13.6115C15.0603 13.1234 15.2047 12.5848 15.2047 11.9958C15.2047 11.4123 15.0603 10.878 14.7715 10.3927C14.4828 9.90743 14.0958 9.52033 13.6107 9.23141C13.1257 8.94249 12.5888 8.79803 12 8.79803C11.4112 8.79803 10.8743 8.94249 10.3893 9.23141C9.90422 9.52033 9.5159 9.90743 9.22431 10.3927C8.93272 10.878 8.78693 11.4123 8.78693 11.9958C8.78693 12.5848 8.93272 13.122 9.22431 13.6073C9.5159 14.0926 9.90422 14.481 10.3893 14.7728C10.8743 15.0645 11.4112 15.2103 12 15.2103ZM12 13.906C11.6523 13.906 11.3341 13.8204 11.0453 13.6494C10.7566 13.4782 10.5266 13.2482 10.3556 12.9593C10.1846 12.6704 10.0991 12.3492 10.0991 11.9958C10.0991 11.648 10.1846 11.331 10.3556 11.0449C10.5266 10.7588 10.7566 10.5301 11.0453 10.359C11.3341 10.1879 11.6523 10.1024 12 10.1024C12.3421 10.1024 12.6561 10.1879 12.9421 10.359C13.2281 10.5301 13.4566 10.7588 13.6276 11.0449C13.7986 11.331 13.8841 11.648 13.8841 11.9958C13.8841 12.3436 13.7986 12.662 13.6276 12.9509C13.4566 13.2398 13.2281 13.4712 12.9421 13.6451C12.6561 13.819 12.3421 13.906 12 13.906Z" fill="#333333"/>
</g>
<defs>
<clipPath id="clip0_959_9687">
<rect width="18" height="18" fill="white" transform="translate(3 3)"/>
</clipPath>
</defs>
</svg>
