<svg width="150" height="141" viewBox="0 0 150 141" fill="none" xmlns="http://www.w3.org/2000/svg">
<path d="M127.151 73.3642C127.151 73.3642 129.695 70.9532 129.189 69.1449C128.759 67.6079 129.404 65.8841 129.566 65.1758C129.784 64.2265 129.869 61.1585 130.558 61.3273C131.727 61.6136 131.456 66.5169 131.601 67.5627C131.745 68.6055 134.834 65.1095 135.891 64.9257C136.948 64.7418 142.317 70.3083 139.926 72.4571C137.535 74.6059 134.233 75.4769 133.886 75.941C133.538 76.4051 131.901 77.6769 131.901 77.6769L127.151 73.3642Z" fill="#F8CEB9"/>
<path d="M135.213 65.2898C135.213 65.2898 142.964 59.2111 143.812 59.2472C144.661 59.2834 144.958 59.7324 144.257 60.3322C143.556 60.9319 136.933 66.429 136.933 66.429C136.933 66.429 147.29 60.8114 147.991 60.6848C148.401 60.6125 148.713 61.4141 148.365 61.7697C148.018 62.1254 138.382 68.3277 138.382 68.3277C138.382 68.3277 148.059 63.0988 148.677 63.1742C149.216 63.2405 149.605 64.1536 148.913 64.5906C148.221 65.0276 139.507 70.4011 139.507 70.4011C139.507 70.4011 146.784 67.0498 147.27 67.4266C147.567 67.6586 147.985 68.168 146.08 68.9696C144.175 69.7743 140.031 72.342 140.031 72.342L135.213 65.2898Z" fill="#F8CEB9"/>
<path d="M73.3078 0.0294678C73.3078 0.0294678 91.8487 -1.54975 91.3422 18.4134C90.8357 38.3735 87.7436 41.3752 91.351 55.4826C94.9614 69.587 73.2754 47.4721 73.2754 47.4721L73.3078 0.0294678Z" fill="#434343"/>
<path d="M96.5275 167.703C89.6011 169.849 82.2507 171 74.6412 171C74.0787 171 73.5221 170.994 72.9626 170.979C72.5179 165.723 72.1557 161.585 71.9761 160.087C71.4195 155.527 71.1751 152.782 71.1751 152.782C70.0972 154.123 68.7956 158.071 64.6522 170.325C56.006 169.155 47.8193 166.494 40.354 162.591C40.5248 161.407 40.678 160.434 40.8075 159.722C42.1622 152.33 48.0725 122.982 48.0725 122.982C48.0725 122.982 73.7872 72.1997 92.0071 127.101C97.8968 144.858 97.9557 154.032 96.5275 167.703Z" fill="#434343"/>
<path d="M65.5864 53.141C65.5864 53.141 67.2149 49.2201 68.4282 44.82C68.4871 44.612 68.5401 44.4011 68.5931 44.1901C68.7374 43.6175 68.8699 43.0388 68.9907 42.4602C69.0584 42.1317 69.1203 41.8062 69.1792 41.4837C69.6091 39.0577 69.7299 36.7371 69.1821 35.0855C67.3857 29.6517 80.4551 33.4129 80.4551 33.4129C80.4551 33.4129 77.9225 47.7885 80.4551 52.6377C82.9847 57.4868 65.5864 53.141 65.5864 53.141Z" fill="#F8CEB9"/>
<path d="M87.7575 52.9055C89.2152 51.04 78.9759 50.389 78.9759 50.389L67.0344 49.3342C67.0344 49.3342 58.8212 50.7326 52.4543 52.9899C46.0816 55.2472 37.7358 67.6006 37.7358 67.6006C37.7358 67.6006 49.2533 95.27 51.459 103.211C53.6617 111.152 48.9587 131.357 48.9587 131.357C62.7643 139.048 90.025 132.176 90.025 132.176C90.025 132.176 79.1555 63.9238 87.7575 52.9055Z" fill="#EDDAD3"/>
<path d="M92.6288 86.2532C92.6288 86.2532 92.0899 87.4135 90.6175 91.9793C89.1185 79.1528 89.9018 72.4773 89.9018 72.4773C90.0668 79.3336 92.6288 86.2532 92.6288 86.2532Z" fill="#CFBEB8"/>
<path d="M79.6413 49.9627L65.5854 61.6862L67.0343 49.3358C67.0372 49.3358 75.2299 47.5245 79.6413 49.9627Z" fill="#F8CEB9"/>
<path d="M88.9174 99.3658C86.9826 107.569 96.7625 133.247 96.7625 133.247L80.2594 138.964C78.2186 139.672 76.0424 138.355 75.6654 136.185C73.8043 125.504 68.9805 96.8644 68.4328 84.1674C67.7555 68.3934 78.9755 49.7834 78.9755 49.7834C98.924 53.2854 93.4554 84.1674 93.4554 84.1674C93.4554 84.1674 92.731 86.1143 91.7621 89.1522C91.7621 89.1522 91.7621 89.1522 91.7621 89.1552C91.5177 89.9177 91.2615 90.7525 90.9935 91.6416C90.3103 93.923 89.5741 96.5751 88.9174 99.3658Z" fill="#EF7A56"/>
<path d="M65.6206 50.0098L65.865 49.3347C65.865 49.3347 55.6492 50.926 50.4574 53.5781C45.2656 56.2302 35.3267 69.9428 35.3267 69.9428L48.3253 87.507C48.3401 101.006 43.7372 132.674 43.7372 132.674L52.7721 136.456C54.1797 137.047 55.7258 136.004 55.7493 134.446C55.8966 124.808 56.3324 96.2559 56.5562 85.1171C56.8272 71.6154 66.239 49.7868 66.239 49.7868C66.0299 49.8561 65.8238 49.9314 65.6206 50.0098Z" fill="#EF7A56"/>
<path d="M47.1021 113.298C47.1021 113.298 56.9026 113.687 58.428 113.298C59.9535 112.91 70.1221 108.395 70.7347 103.938C71.3472 99.4802 47.1021 107.934 47.1021 107.934V113.298Z" fill="#F8CEB9"/>
<path d="M77.5152 99.3658L37.7358 94.6011L55.7055 109.564L77.5152 99.3658Z" fill="#B7B7B7"/>
<path d="M55.7035 109.565L77.5133 101.958V99.3665L54.9673 106.768L55.7035 109.565Z" fill="#434343"/>
<path d="M67.7702 47.0566L60.2137 59.3287L56.5591 61.6854L65.0786 49.4676L67.7702 47.0566Z" fill="#FAE6DE"/>
<path d="M60.2129 59.3274L65.5873 61.6842L67.0361 49.3338L67.7694 47.0554L60.2129 59.3274Z" fill="#D6C5BE"/>
<path d="M48.298 107.557C48.298 107.557 47.8886 112.741 48.298 113.825C48.298 113.825 23.7672 111.318 21.479 107.807C19.1909 104.296 19.2733 100.031 19.2733 100.031L48.298 107.557Z" fill="#EF7A56"/>
<path d="M55.7052 109.564L44.1054 65.4276L0 60.6628L12.0887 101.288L55.7052 109.564Z" fill="#434343"/>
<path d="M112.875 84.333C115.087 82.4644 116.388 81.7803 119.053 79.4326C123.203 75.7769 128.506 71.1508 128.506 71.1508L133.545 78.7243C133.545 78.7243 121.353 89.6914 114.874 96.2011C114.874 96.2011 106.673 105.212 104.841 104.414C103.01 103.618 96.472 93.9167 91.2537 84.5952C86.0324 75.2736 83.6942 69.3214 83.435 65.2589C83.1729 61.1993 96.3071 59.2434 96.3071 59.2434L106.591 82.2263C106.591 82.2263 108.419 85.5143 109.353 86.5059C109.35 86.5089 111.662 85.1648 112.875 84.333Z" fill="#EF7A56"/>
<path d="M75.1156 2.05133C70.5187 1.28282 60.0025 2.4612 57.0223 14.8086C57.0223 14.8086 57.0135 18.2322 57.52 20.9777C58.0236 23.7263 54.8254 31.2818 55.3879 31.7399C55.9504 32.198 58.4035 32.9846 58.4035 32.9846C58.4035 32.9846 60.1439 41.851 63.0858 42.1223C66.0277 42.3935 77.395 41.3447 83.8148 31.3179C90.2346 21.2942 93.6742 5.15852 75.1156 2.05133Z" fill="#F8CEB9"/>
<path d="M57.0278 14.8086C57.0278 14.8086 63.9453 20.9205 71.2722 22.8493C78.599 24.7781 82.4774 33.1985 82.4774 33.1985C82.4774 33.1985 95.4408 19.9651 87.6192 7.12349C79.7946 -5.71512 57.0396 0.0110197 57.0278 14.8086Z" fill="#434343"/>
<path d="M72.6191 23.2894C72.6191 23.2894 80.2905 43.8884 79.3923 48.8521C79.3923 48.8521 83.1824 48.177 90.2471 50.3891C90.2442 50.3891 86.8282 13.5941 72.6191 23.2894Z" fill="#434343"/>
<path d="M69.6474 59.6957L65.5864 61.6848L79.389 47.6829L69.6474 59.6957Z" fill="#D6C5BE"/>
<path d="M79.3911 47.6831L69.6494 59.696L74.9797 64.5602L80.7339 50.1785L79.3911 47.6831Z" fill="#FAE6DE"/>
<path d="M76.7172 38.3499C76.6553 38.4523 74.5439 41.8157 68.5952 44.1905C68.7395 43.6179 68.872 43.0393 68.9928 42.4606C69.0605 42.1321 69.1223 41.8066 69.1812 41.4842C69.1783 41.4842 74.1021 40.2515 76.7172 38.3499Z" fill="#E1A88B"/>
<path d="M80.7329 50.1782C80.7329 50.1782 93.5785 48.394 97.3244 62.1579C97.3214 62.1609 80.9862 60.3617 80.7329 50.1782Z" fill="#EF7A56"/>
<path d="M72.3311 24.975C72.3311 27.9737 74.7075 30.4058 77.6377 30.4058C80.5678 30.4058 82.9444 27.9737 82.9444 24.975C82.9444 21.9763 80.5678 19.5442 77.6377 19.5442C74.7075 19.5442 72.3311 21.9763 72.3311 24.975Z" fill="#F2622E"/>
<path d="M63.4555 36.4501L63.2729 35.3441C73.0146 33.6594 78.0415 25.3957 78.0915 25.3113L79.028 25.8929C78.816 26.2546 73.7037 34.678 63.4555 36.4501Z" fill="#F2622E"/>
<path d="M61.3203 36.3851C61.3203 37.3164 62.0565 38.0698 62.9665 38.0698C63.8765 38.0698 64.6127 37.3164 64.6127 36.3851C64.6127 35.4539 63.8765 34.7004 62.9665 34.7004C62.0595 34.6974 61.3203 35.4539 61.3203 36.3851Z" fill="#F2622E"/>
</svg>
