<svg width="24" height="24" viewBox="0 0 24 24" fill="none" xmlns="http://www.w3.org/2000/svg">
<g clip-path="url(#clip0_979_1021)">
<path d="M2 4.87184C2 5.05093 2.06355 5.20546 2.19064 5.33545C2.31774 5.46543 2.46794 5.53041 2.64125 5.53041H5.57019L6.95667 15.0451C7.0491 15.6632 7.26285 16.1514 7.59791 16.5096C7.93298 16.8678 8.41535 17.0469 9.04505 17.0469H19.1576C19.3252 17.0469 19.4725 16.9848 19.5996 16.8605C19.7267 16.7364 19.7902 16.5819 19.7902 16.397C19.7902 16.2121 19.7267 16.0576 19.5996 15.9334C19.4725 15.8091 19.3252 15.747 19.1576 15.747H9.19236C8.94973 15.747 8.75186 15.6676 8.59877 15.5088C8.44568 15.3499 8.35181 15.1375 8.31715 14.8718L8.1785 13.9619H19.175C19.8105 13.9619 20.2958 13.7814 20.6308 13.4204C20.9659 13.0593 21.1796 12.5668 21.2721 11.9429L21.9653 7.35884C21.9768 7.30106 21.9855 7.24185 21.9913 7.18119C21.9971 7.12054 22 7.06999 22 7.02955C22 6.82158 21.9278 6.6526 21.7833 6.52262C21.6389 6.39263 21.4483 6.32764 21.2114 6.32764H7.06931L6.89601 5.22713C6.84979 4.89206 6.74725 4.64076 6.58838 4.47323C6.42951 4.30569 6.12766 4.22192 5.68284 4.22192H2.64125C2.46794 4.22192 2.31774 4.28692 2.19064 4.4169C2.06355 4.54689 2 4.69853 2 4.87184ZM8.31715 19.8544C8.31715 20.1144 8.38069 20.3513 8.50778 20.565C8.63488 20.7788 8.80386 20.9477 9.01472 21.072C9.22558 21.1962 9.46388 21.2583 9.72963 21.2583C10.1167 21.2583 10.4474 21.1226 10.7218 20.851C10.9962 20.5795 11.1335 20.2473 11.1335 19.8544C11.1335 19.4616 10.9962 19.1295 10.7218 18.858C10.4474 18.5864 10.1167 18.4507 9.72963 18.4507C9.46388 18.4507 9.22558 18.5128 9.01472 18.637C8.80386 18.7612 8.63488 18.9302 8.50778 19.1439C8.38069 19.3577 8.31715 19.5945 8.31715 19.8544ZM16.4194 19.8544C16.4194 20.2473 16.558 20.5795 16.8354 20.851C17.1126 21.1226 17.4448 21.2583 17.8319 21.2583C18.2247 21.2583 18.5583 21.1226 18.8327 20.851C19.1071 20.5795 19.2443 20.2473 19.2443 19.8544C19.2443 19.4616 19.1071 19.1295 18.8327 18.858C18.5583 18.5864 18.2247 18.4507 17.8319 18.4507C17.5719 18.4507 17.335 18.5128 17.1213 18.637C16.9075 18.7612 16.7371 18.9302 16.61 19.1439C16.4829 19.3577 16.4194 19.5945 16.4194 19.8544Z" fill="#F2622E" fill-opacity="0.85"/>
</g>
<defs>
<clipPath id="clip0_979_1021">
<rect width="20" height="18.2582" fill="white" transform="translate(2 3)"/>
</clipPath>
</defs>
</svg>
