<svg width="113" height="96" viewBox="0 0 113 96" fill="none" xmlns="http://www.w3.org/2000/svg">
<path d="M57 31.8891L112 16V79.0367L57 95V31.8891Z" fill="#F2622E"/>
<path d="M2 16.1327L57.244 1L111 16.0225L56.2024 32L2 16.1327Z" fill="#F2622E"/>
<path d="M1.5574 16L57 31.8448L56.5912 95L1 79.4915L1.5574 16Z" fill="#F2622E"/>
<path d="M0.930664 15.8559L57.2079 0L58.6223 0.483865L2.86612 16.3025L0.930664 15.8559Z" fill="#F2F2F2"/>
<path d="M27.8779 24.2677L84.2296 7.85352L85.7929 8.30016L30.0367 24.7888L27.8779 24.2677Z" fill="#F2F2F2"/>
<path d="M54.6768 32.0466L111.177 15.4463L111.512 15.4835L111.847 15.558L112.182 15.6696L112.368 15.7813L112.517 15.8929L112.629 16.1163V16.3768L56.8355 32.5677L54.6768 32.0466Z" fill="#F2F2F2"/>
<path d="M54.6768 95.3959L112.778 79.0562L112.927 79.1306V79.2423V79.3539V79.4656V79.5772V79.7261L112.741 79.875L56.8355 95.917L54.6768 95.3959Z" fill="#F2F2F2"/>
<path d="M0.446645 16.2654L0.669967 16.0421L0.96773 15.856L1.78658 16.0421L1.19105 80.8055L0.818849 80.7311L0.446645 80.5822L0.260543 80.5078L0.148882 80.3589L0.0372204 80.1728L0 79.9867L0.446645 16.2654Z" fill="#F2F2F2"/>
<path d="M1.78635 15.8931L58.1008 32.0839L56.9842 32.6422L1.71191 16.8608L1.78635 15.8931Z" fill="#F2F2F2"/>
<rect x="56.2402" y="31.9351" width="1.04217" height="63.2747" fill="#F2F2F2"/>
<path d="M0.856445 79.6143L56.9104 94.6885L56.8359 95.954L1.11699 80.8053L0.856445 79.6143Z" fill="#F2F2F2"/>
<path d="M111.922 16.377L112.629 16.1909L112.927 79.7633H112.108L111.922 16.377Z" fill="#F2F2F2"/>
<path d="M57.2074 0L112.033 15.6326L111.698 16.4886L57.0957 0.893289L57.2074 0Z" fill="#F2F2F2"/>
<path d="M83.4111 30.967L106.488 24.3418L106.711 40.3838L83.56 48.0884L83.4111 30.967Z" fill="#EFEFEF"/>
<path d="M83.326 31.2311C83.2715 31.0893 83.35 30.9312 83.496 30.8891L106.2 24.33C106.432 24.2631 106.661 24.4442 106.649 24.6852V24.6852C106.641 24.8361 106.538 24.9653 106.393 25.006L83.6379 31.3876C83.5091 31.4237 83.374 31.3559 83.326 31.2311V31.2311Z" fill="#F2F2F2"/>
<path d="M85.5549 33.9138C85.461 33.6218 85.6257 33.3097 85.9198 33.2223L94.7595 30.5981C94.8592 30.5685 94.9653 30.5683 95.0651 30.5977V30.5977C95.58 30.7492 95.5816 31.4781 95.0672 31.6317L86.2319 34.2704C85.9468 34.3556 85.6459 34.1971 85.5549 33.9138V33.9138Z" fill="#F2F2F2"/>
<path d="M85.592 36.115C85.4981 35.8229 85.6629 35.5108 85.9569 35.4235L94.7966 32.7993C94.8963 32.7697 95.0024 32.7695 95.1022 32.7989V32.7989C95.6171 32.9503 95.6187 33.6792 95.1043 33.8328L86.269 36.4716C85.9839 36.5567 85.6831 36.3983 85.592 36.115V36.115Z" fill="#F2F2F2"/>
<path d="M83.5824 47.8943C83.5295 47.7567 83.6019 47.6027 83.7416 47.5557L106.378 39.9377C106.546 39.8811 106.722 39.999 106.734 40.176V40.176C106.742 40.2985 106.667 40.4112 106.55 40.4503L83.9066 48.0469C83.7751 48.091 83.6322 48.0238 83.5824 47.8943V47.8943Z" fill="#F2F2F2"/>
<rect x="83.2617" y="30.9678" width="0.669967" height="17.1214" rx="0.334984" fill="#F2F2F2"/>
<rect x="106.115" y="24.3418" width="0.669967" height="16.1537" rx="0.334984" fill="#F2F2F2"/>
</svg>
