<svg width="59" height="60" viewBox="0 0 59 60" fill="none" xmlns="http://www.w3.org/2000/svg">
<path d="M10.1559 0L58.6357 0.191691L58.4441 46.9643L48.0966 59.9993H0V13.035L10.1559 0Z" fill="black" fill-opacity="0.2"/>
<path d="M10.251 0L58.6684 0.189872L58.2886 0.94936H10.4408L10.251 0Z" fill="black" fill-opacity="0.2"/>
<path d="M0 12.9121L48.4174 13.102L48.0376 14.0513L0.379744 13.8615L0 12.9121Z" fill="black" fill-opacity="0.2"/>
<path d="M0 59.0488H48.4174L48.4174 59.9982H0.379809L0 59.0488Z" fill="black" fill-opacity="0.2"/>
<path d="M10.2531 0L10.8227 0.569616L0.94936 13.1012L0 12.9113L10.2531 0Z" fill="black" fill-opacity="0.2"/>
<path d="M57.7203 0.379395L58.6697 0.569267L48.4166 13.6704L47.2773 13.4806L57.7203 0.379395Z" fill="black" fill-opacity="0.2"/>
<path d="M57.9103 46.5195L58.6698 46.7094L48.4167 60.0004L47.6572 59.6207L57.9103 46.5195Z" fill="black" fill-opacity="0.2"/>
<path d="M0 12.9121L0.94936 13.2919V60.0004H0V12.9121Z" fill="black" fill-opacity="0.2"/>
<path d="M47.4688 13.4816L48.4181 13.2383V60.0002H47.4688V13.4816Z" fill="black" fill-opacity="0.2"/>
<path d="M57.7197 0.568709L58.6691 0.188965V46.7076L57.7197 47.0874V0.568709Z" fill="black" fill-opacity="0.2"/>
<path d="M8.53294 43L15.7569 33.04V35.872L8.84494 26.2H13.2609L18.0369 32.944L16.1889 32.968L20.8929 26.2H25.1169L18.2529 35.704V32.92L25.5249 43H21.0369L16.0929 35.872H17.8689L12.9969 43H8.53294ZM27.0467 43V26.2H30.9347V39.832H39.3587V43H27.0467Z" fill="black" fill-opacity="0.2"/>
</svg>
